<?xml version="1.0" encoding="UTF-8" standalone="no"?>
<!DOCTYPE svg PUBLIC "-//W3C//DTD SVG 1.1//EN"
 "http://www.w3.org/Graphics/SVG/1.1/DTD/svg11.dtd">
<!-- Generated by graphviz version 2.43.0 (0)
 -->
<!-- Title: classes_utilities Pages: 1 -->
<svg width="854pt" height="198pt"
 viewBox="0.00 0.00 854.00 198.00" xmlns="http://www.w3.org/2000/svg" xmlns:xlink="http://www.w3.org/1999/xlink">
<g id="graph0" class="graph" transform="scale(1 1) rotate(0) translate(4 194)">
<title>classes_utilities</title>
<polygon fill="white" stroke="black" points="-4,4 -4,-194 850,-194 850,4 -4,4"/>
<!-- olivia_finder.utilities.config.Configuration -->
<g id="node1" class="node">
<title>olivia_finder.utilities.config.Configuration</title>
<polygon fill="aliceblue" stroke="black" points="0,-60 0,-130 224,-130 224,-60 0,-60"/>
<text text-anchor="middle" x="112" y="-114.8" font-family="" font-size="14.00">Configuration</text>
<polyline fill="none" stroke="black" points="0,-107 224,-107 "/>
<polyline fill="none" stroke="black" points="0,-83 224,-83 "/>
<text text-anchor="start" x="8" y="-67.8" font-family="" font-size="14.00">get_key(section: str, key: str)</text>
</g>
<!-- olivia_finder.utilities.logger.ConsoleFormatter -->
<g id="node2" class="node">
<title>olivia_finder.utilities.logger.ConsoleFormatter</title>
<polygon fill="aliceblue" stroke="black" points="242,-0.5 242,-189.5 472,-189.5 472,-0.5 242,-0.5"/>
<text text-anchor="middle" x="357" y="-174.3" font-family="" font-size="14.00">ConsoleFormatter</text>
<polyline fill="none" stroke="black" points="242,-166.5 472,-166.5 "/>
<text text-anchor="start" x="250" y="-151.3" font-family="" font-size="14.00">BLUE : str</text>
<text text-anchor="start" x="250" y="-136.3" font-family="" font-size="14.00">DEFAULT_FORMAT_END : str</text>
<text text-anchor="start" x="250" y="-121.3" font-family="" font-size="14.00">DEFAULT_FORMAT_PRE : str</text>
<text text-anchor="start" x="250" y="-106.3" font-family="" font-size="14.00">FORMATS : dict</text>
<text text-anchor="start" x="250" y="-91.3" font-family="" font-size="14.00">GREEN : str</text>
<text text-anchor="start" x="250" y="-76.3" font-family="" font-size="14.00">ORANGE : str</text>
<text text-anchor="start" x="250" y="-61.3" font-family="" font-size="14.00">RED : str</text>
<text text-anchor="start" x="250" y="-46.3" font-family="" font-size="14.00">RESET : str</text>
<text text-anchor="start" x="250" y="-31.3" font-family="" font-size="14.00">YELLOW : str</text>
<polyline fill="none" stroke="black" points="242,-23.5 472,-23.5 "/>
<text text-anchor="start" x="250" y="-8.3" font-family="" font-size="14.00">format(record)</text>
</g>
<!-- olivia_finder.utilities.logger.MyLogger -->
<g id="node3" class="node">
<title>olivia_finder.utilities.logger.MyLogger</title>
<polygon fill="aliceblue" stroke="black" points="490,-22.5 490,-167.5 652,-167.5 652,-22.5 490,-22.5"/>
<text text-anchor="middle" x="571" y="-152.3" font-family="" font-size="14.00">MyLogger</text>
<polyline fill="none" stroke="black" points="490,-144.5 652,-144.5 "/>
<polyline fill="none" stroke="black" points="490,-120.5 652,-120.5 "/>
<text text-anchor="start" x="498" y="-105.3" font-family="" font-size="14.00">disable()</text>
<text text-anchor="start" x="498" y="-90.3" font-family="" font-size="14.00">disable_all_loggers()</text>
<text text-anchor="start" x="498" y="-75.3" font-family="" font-size="14.00">enable()</text>
<text text-anchor="start" x="498" y="-60.3" font-family="" font-size="14.00">enable_all_loggers()</text>
<text text-anchor="start" x="498" y="-45.3" font-family="" font-size="14.00">get_logger(): </text>
<text text-anchor="start" x="498" y="-30.3" font-family="" font-size="14.00">set_level(level)</text>
</g>
<!-- olivia_finder.utilities.exception.OliviaFinderException -->
<g id="node4" class="node">
<title>olivia_finder.utilities.exception.OliviaFinderException</title>
<polygon fill="aliceblue" stroke="black" points="670,-60.5 670,-129.5 846,-129.5 846,-60.5 670,-60.5"/>
<text text-anchor="middle" x="758" y="-114.3" font-family="" font-size="14.00" fill="red">OliviaFinderException</text>
<polyline fill="none" stroke="black" points="670,-106.5 846,-106.5 "/>
<text text-anchor="start" x="678" y="-91.3" font-family="" font-size="14.00" fill="red">message : str</text>
<polyline fill="none" stroke="black" points="670,-83.5 846,-83.5 "/>
<text text-anchor="middle" x="758" y="-68.3" font-family="" font-size="14.00" fill="red"> </text>
</g>
</g>
</svg>
