<?xml version="1.0" encoding="UTF-8" standalone="no"?>
<!DOCTYPE svg PUBLIC "-//W3C//DTD SVG 1.1//EN"
 "http://www.w3.org/Graphics/SVG/1.1/DTD/svg11.dtd">
<!-- Generated by graphviz version 2.43.0 (0)
 -->
<!-- Title: classes_myrequests Pages: 1 -->
<svg width="1808pt" height="409pt"
 viewBox="0.00 0.00 1807.50 409.00" xmlns="http://www.w3.org/2000/svg" xmlns:xlink="http://www.w3.org/1999/xlink">
<g id="graph0" class="graph" transform="scale(1 1) rotate(0) translate(4 405)">
<title>classes_myrequests</title>
<polygon fill="white" stroke="black" points="-4,4 -4,-405 1803.5,-405 1803.5,4 -4,4"/>
<!-- olivia_finder.myrequests.proxy_builders.list_builder.ListProxyBuilder -->
<g id="node1" class="node">
<title>olivia_finder.myrequests.proxy_builders.list_builder.ListProxyBuilder</title>
<polygon fill="antiquewhite" stroke="black" points="0,-38 0,-107 137,-107 137,-38 0,-38"/>
<text text-anchor="middle" x="68.5" y="-91.8" font-family="" font-size="14.00">ListProxyBuilder</text>
<polyline fill="none" stroke="black" points="0,-84 137,-84 "/>
<text text-anchor="start" x="8" y="-68.8" font-family="" font-size="14.00">TIMEOUT : int</text>
<polyline fill="none" stroke="black" points="0,-61 137,-61 "/>
<text text-anchor="middle" x="68.5" y="-45.8" font-family="" font-size="14.00"> </text>
</g>
<!-- olivia_finder.myrequests.proxy_builder.ProxyBuilder -->
<g id="node2" class="node">
<title>olivia_finder.myrequests.proxy_builder.ProxyBuilder</title>
<polygon fill="aliceblue" stroke="black" points="30.5,-256.5 30.5,-340.5 268.5,-340.5 268.5,-256.5 30.5,-256.5"/>
<text text-anchor="middle" x="149.5" y="-325.3" font-family="" font-size="14.00">ProxyBuilder</text>
<polyline fill="none" stroke="black" points="30.5,-317.5 268.5,-317.5 "/>
<text text-anchor="start" x="38.5" y="-302.3" font-family="" font-size="14.00">request_timeout : int = None</text>
<text text-anchor="start" x="38.5" y="-287.3" font-family="" font-size="14.00">url : str = None</text>
<polyline fill="none" stroke="black" points="30.5,-279.5 268.5,-279.5 "/>
<text text-anchor="start" x="38.5" y="-264.3" font-family="" font-size="14.00">get_proxies(): list[str]</text>
</g>
<!-- olivia_finder.myrequests.proxy_builders.list_builder.ListProxyBuilder&#45;&gt;olivia_finder.myrequests.proxy_builder.ProxyBuilder -->
<g id="edge1" class="edge">
<title>olivia_finder.myrequests.proxy_builders.list_builder.ListProxyBuilder&#45;&gt;olivia_finder.myrequests.proxy_builder.ProxyBuilder</title>
<path fill="none" stroke="black" d="M80.63,-107.04C93.97,-143.95 115.59,-203.71 131.04,-246.45"/>
<polygon fill="none" stroke="black" points="127.84,-247.89 134.53,-256.11 134.42,-245.51 127.84,-247.89"/>
</g>
<!-- olivia_finder.myrequests.proxy_handler.ProxyHandler -->
<g id="node3" class="node">
<title>olivia_finder.myrequests.proxy_handler.ProxyHandler</title>
<polygon fill="aliceblue" stroke="black" points="324,-0.5 324,-144.5 699,-144.5 699,-0.5 324,-0.5"/>
<text text-anchor="middle" x="511.5" y="-129.3" font-family="" font-size="14.00">ProxyHandler</text>
<polyline fill="none" stroke="black" points="324,-121.5 699,-121.5 "/>
<text text-anchor="start" x="332" y="-106.3" font-family="" font-size="14.00">PROXY_MAX_USES : int</text>
<text text-anchor="start" x="332" y="-91.3" font-family="" font-size="14.00">lock : lock</text>
<text text-anchor="start" x="332" y="-76.3" font-family="" font-size="14.00">proxy_builders : NoneType, list, list[ProxyBuilder]</text>
<text text-anchor="start" x="332" y="-61.3" font-family="" font-size="14.00">proxy_list : list, list[str]</text>
<text text-anchor="start" x="332" y="-46.3" font-family="" font-size="14.00">proxy_max_uses : int</text>
<text text-anchor="start" x="332" y="-31.3" font-family="" font-size="14.00">proxy_uses : dict</text>
<polyline fill="none" stroke="black" points="324,-23.5 699,-23.5 "/>
<text text-anchor="start" x="332" y="-8.3" font-family="" font-size="14.00">get_next_proxy(): Union[str, None]</text>
</g>
<!-- olivia_finder.myrequests.request_worker.RequestWorker -->
<g id="node6" class="node">
<title>olivia_finder.myrequests.request_worker.RequestWorker</title>
<polygon fill="aliceblue" stroke="black" points="595,-196.5 595,-400.5 756,-400.5 756,-196.5 595,-196.5"/>
<text text-anchor="middle" x="675.5" y="-385.3" font-family="" font-size="14.00">RequestWorker</text>
<polyline fill="none" stroke="black" points="595,-377.5 756,-377.5 "/>
<text text-anchor="start" x="603" y="-362.3" font-family="" font-size="14.00">RETRIES : int</text>
<text text-anchor="start" x="603" y="-347.3" font-family="" font-size="14.00">RETRY_DELAY : int</text>
<text text-anchor="start" x="603" y="-332.3" font-family="" font-size="14.00">TIMEOUT : int</text>
<text text-anchor="start" x="603" y="-317.3" font-family="" font-size="14.00">jobs_queue</text>
<text text-anchor="start" x="603" y="-302.3" font-family="" font-size="14.00">my_jobs : list</text>
<text text-anchor="start" x="603" y="-287.3" font-family="" font-size="14.00">progress_bar : tqdm</text>
<text text-anchor="start" x="603" y="-272.3" font-family="" font-size="14.00">proxy_handler</text>
<text text-anchor="start" x="603" y="-257.3" font-family="" font-size="14.00">stopped : bool</text>
<text text-anchor="start" x="603" y="-242.3" font-family="" font-size="14.00">user_agent_handler</text>
<text text-anchor="start" x="603" y="-227.3" font-family="" font-size="14.00">worker_id</text>
<polyline fill="none" stroke="black" points="595,-219.5 756,-219.5 "/>
<text text-anchor="start" x="603" y="-204.3" font-family="" font-size="14.00">run()</text>
</g>
<!-- olivia_finder.myrequests.proxy_handler.ProxyHandler&#45;&gt;olivia_finder.myrequests.request_worker.RequestWorker -->
<g id="edge3" class="edge">
<title>olivia_finder.myrequests.proxy_handler.ProxyHandler&#45;&gt;olivia_finder.myrequests.request_worker.RequestWorker</title>
<path fill="none" stroke="black" d="M563.62,-144.68C573.37,-158.01 583.78,-172.22 594.17,-186.42"/>
<polygon fill="black" stroke="black" points="594.27,-186.55 601.04,-189.03 601.36,-196.23 594.59,-193.75 594.27,-186.55"/>
<text text-anchor="middle" x="636" y="-166.8" font-family="" font-size="14.00" fill="green">proxy_handler</text>
</g>
<!-- olivia_finder.myrequests.request_handler.RequestHandler -->
<g id="node4" class="node">
<title>olivia_finder.myrequests.request_handler.RequestHandler</title>
<polygon fill="aliceblue" stroke="black" points="978,-15.5 978,-129.5 1541,-129.5 1541,-15.5 978,-15.5"/>
<text text-anchor="middle" x="1259.5" y="-114.3" font-family="" font-size="14.00">RequestHandler</text>
<polyline fill="none" stroke="black" points="978,-106.5 1541,-106.5 "/>
<text text-anchor="start" x="986" y="-91.3" font-family="" font-size="14.00">jobs_queue : Queue</text>
<text text-anchor="start" x="986" y="-76.3" font-family="" font-size="14.00">num_workers : int</text>
<text text-anchor="start" x="986" y="-61.3" font-family="" font-size="14.00">workers : list[RequestWorker]</text>
<polyline fill="none" stroke="black" points="978,-53.5 1541,-53.5 "/>
<text text-anchor="start" x="986" y="-38.3" font-family="" font-size="14.00">do_request(job: RequestJob)</text>
<text text-anchor="start" x="986" y="-23.3" font-family="" font-size="14.00">do_requests(request_jobs: list[RequestJob], num_workers: int, progress_bar)</text>
</g>
<!-- olivia_finder.myrequests.job.RequestJob -->
<g id="node5" class="node">
<title>olivia_finder.myrequests.job.RequestJob</title>
<polygon fill="aliceblue" stroke="black" points="1559.5,-0.5 1559.5,-144.5 1799.5,-144.5 1799.5,-0.5 1559.5,-0.5"/>
<text text-anchor="middle" x="1679.5" y="-129.3" font-family="" font-size="14.00">RequestJob</text>
<polyline fill="none" stroke="black" points="1559.5,-121.5 1799.5,-121.5 "/>
<text text-anchor="start" x="1567.5" y="-106.3" font-family="" font-size="14.00">FINALIZE_KEY : str</text>
<text text-anchor="start" x="1567.5" y="-91.3" font-family="" font-size="14.00">key : object</text>
<text text-anchor="start" x="1567.5" y="-76.3" font-family="" font-size="14.00">params : Optional[dict[str, str]]</text>
<text text-anchor="start" x="1567.5" y="-61.3" font-family="" font-size="14.00">response : Response</text>
<text text-anchor="start" x="1567.5" y="-46.3" font-family="" font-size="14.00">url : str</text>
<polyline fill="none" stroke="black" points="1559.5,-38.5 1799.5,-38.5 "/>
<text text-anchor="start" x="1567.5" y="-23.3" font-family="" font-size="14.00">end_job_signal()</text>
<text text-anchor="start" x="1567.5" y="-8.3" font-family="" font-size="14.00">set_response(job_response)</text>
</g>
<!-- olivia_finder.myrequests.proxy_builders.ssl_proxies.SSLProxiesBuilder -->
<g id="node7" class="node">
<title>olivia_finder.myrequests.proxy_builders.ssl_proxies.SSLProxiesBuilder</title>
<polygon fill="antiquewhite" stroke="black" points="155.5,-37.5 155.5,-107.5 305.5,-107.5 305.5,-37.5 155.5,-37.5"/>
<text text-anchor="middle" x="230.5" y="-92.3" font-family="" font-size="14.00">SSLProxiesBuilder</text>
<polyline fill="none" stroke="black" points="155.5,-84.5 305.5,-84.5 "/>
<polyline fill="none" stroke="black" points="155.5,-60.5 305.5,-60.5 "/>
<text text-anchor="middle" x="230.5" y="-45.3" font-family="" font-size="14.00"> </text>
</g>
<!-- olivia_finder.myrequests.proxy_builders.ssl_proxies.SSLProxiesBuilder&#45;&gt;olivia_finder.myrequests.proxy_builder.ProxyBuilder -->
<g id="edge2" class="edge">
<title>olivia_finder.myrequests.proxy_builders.ssl_proxies.SSLProxiesBuilder&#45;&gt;olivia_finder.myrequests.proxy_builder.ProxyBuilder</title>
<path fill="none" stroke="black" d="M218.2,-107.52C204.81,-144.54 183.27,-204.11 167.88,-246.68"/>
<polygon fill="none" stroke="black" points="164.51,-245.7 164.4,-256.3 171.09,-248.08 164.51,-245.7"/>
</g>
<!-- olivia_finder.myrequests.useragent_handler.UserAgentHandler -->
<g id="node8" class="node">
<title>olivia_finder.myrequests.useragent_handler.UserAgentHandler</title>
<polygon fill="aliceblue" stroke="black" points="717.5,-0.5 717.5,-144.5 959.5,-144.5 959.5,-0.5 717.5,-0.5"/>
<text text-anchor="middle" x="838.5" y="-129.3" font-family="" font-size="14.00">UserAgentHandler</text>
<polyline fill="none" stroke="black" points="717.5,-121.5 959.5,-121.5 "/>
<text text-anchor="start" x="725.5" y="-106.3" font-family="" font-size="14.00">DATA_FILE</text>
<text text-anchor="start" x="725.5" y="-91.3" font-family="" font-size="14.00">DATA_FILE : str</text>
<text text-anchor="start" x="725.5" y="-76.3" font-family="" font-size="14.00">USERAGENTSTRING_URL : str</text>
<text text-anchor="start" x="725.5" y="-61.3" font-family="" font-size="14.00">lock : lock</text>
<text text-anchor="start" x="725.5" y="-46.3" font-family="" font-size="14.00">useragents_list : list</text>
<text text-anchor="start" x="725.5" y="-31.3" font-family="" font-size="14.00">useragents_list : list[str]</text>
<polyline fill="none" stroke="black" points="717.5,-23.5 959.5,-23.5 "/>
<text text-anchor="start" x="725.5" y="-8.3" font-family="" font-size="14.00">get_next_useragent(): str</text>
</g>
<!-- olivia_finder.myrequests.useragent_handler.UserAgentHandler&#45;&gt;olivia_finder.myrequests.request_worker.RequestWorker -->
<g id="edge4" class="edge">
<title>olivia_finder.myrequests.useragent_handler.UserAgentHandler&#45;&gt;olivia_finder.myrequests.request_worker.RequestWorker</title>
<path fill="none" stroke="black" d="M786.7,-144.68C777.01,-158.01 766.66,-172.22 756.33,-186.42"/>
<polygon fill="black" stroke="black" points="756.25,-186.53 755.96,-193.73 749.19,-196.23 749.49,-189.03 756.25,-186.53"/>
<text text-anchor="middle" x="843" y="-166.8" font-family="" font-size="14.00" fill="green">user_agent_handler</text>
</g>
</g>
</svg>
