<?xml version="1.0" encoding="UTF-8" standalone="no"?>
<!DOCTYPE svg PUBLIC "-//W3C//DTD SVG 1.1//EN"
 "http://www.w3.org/Graphics/SVG/1.1/DTD/svg11.dtd">
<!-- Generated by graphviz version 2.43.0 (0)
 -->
<!-- Title: classes_data_source Pages: 1 -->
<svg width="2471pt" height="590pt"
 viewBox="0.00 0.00 2471.00 590.00" xmlns="http://www.w3.org/2000/svg" xmlns:xlink="http://www.w3.org/1999/xlink">
<g id="graph0" class="graph" transform="scale(1 1) rotate(0) translate(4 586)">
<title>classes_data_source</title>
<polygon fill="white" stroke="black" points="-4,4 -4,-586 2467,-586 2467,4 -4,4"/>
<!-- olivia_finder.data_source.repository_scrapers.bioconductor.BioconductorScraper -->
<g id="node1" class="node">
<title>olivia_finder.data_source.repository_scrapers.bioconductor.BioconductorScraper</title>
<polygon fill="antiquewhite" stroke="black" points="0,-15.5 0,-129.5 335,-129.5 335,-15.5 0,-15.5"/>
<text text-anchor="middle" x="167.5" y="-114.3" font-family="" font-size="14.00">BioconductorScraper</text>
<polyline fill="none" stroke="black" points="0,-106.5 335,-106.5 "/>
<text text-anchor="start" x="8" y="-91.3" font-family="" font-size="14.00">BIOCONDUCTOR_LIST_URL : str</text>
<text text-anchor="start" x="8" y="-76.3" font-family="" font-size="14.00">BIOCONDUCTOR_PACKAGE_DATA_URL : str</text>
<text text-anchor="start" x="8" y="-61.3" font-family="" font-size="14.00">DESCRIPTION : str</text>
<text text-anchor="start" x="8" y="-46.3" font-family="" font-size="14.00">NAME : str</text>
<polyline fill="none" stroke="black" points="0,-38.5 335,-38.5 "/>
<text text-anchor="start" x="8" y="-23.3" font-family="" font-size="14.00">obtain_package_names(): List[str]</text>
</g>
<!-- olivia_finder.data_source.scraper_ds.ScraperDataSource -->
<g id="node10" class="node">
<title>olivia_finder.data_source.scraper_ds.ScraperDataSource</title>
<polygon fill="aliceblue" stroke="black" points="335.5,-211.5 335.5,-340.5 1223.5,-340.5 1223.5,-211.5 335.5,-211.5"/>
<text text-anchor="middle" x="779.5" y="-325.3" font-family="" font-size="14.00">ScraperDataSource</text>
<polyline fill="none" stroke="black" points="335.5,-317.5 1223.5,-317.5 "/>
<text text-anchor="start" x="343.5" y="-302.3" font-family="" font-size="14.00">not_found : list</text>
<text text-anchor="start" x="343.5" y="-287.3" font-family="" font-size="14.00">request_handler : RequestHandler = None</text>
<polyline fill="none" stroke="black" points="335.5,-279.5 1223.5,-279.5 "/>
<text text-anchor="start" x="343.5" y="-264.3" font-family="" font-size="14.00">do_requests(urls: List[str], progress_bar: Optional[tqdm.tqdm]): List[Optional[requests.Response]]</text>
<text text-anchor="start" x="343.5" y="-249.3" font-family="" font-size="14.00">obtain_package_data(package_name: str): Dict</text>
<text text-anchor="start" x="343.5" y="-234.3" font-family="" font-size="14.00">obtain_package_names(): List[str]</text>
<text text-anchor="start" x="343.5" y="-219.3" font-family="" font-size="14.00">obtain_packages_data(package_names: Optional[List[str]], progress_bar: Optional[tqdm.tqdm]): Tuple[List[Dict], List[str]]</text>
</g>
<!-- olivia_finder.data_source.repository_scrapers.bioconductor.BioconductorScraper&#45;&gt;olivia_finder.data_source.scraper_ds.ScraperDataSource -->
<g id="edge3" class="edge">
<title>olivia_finder.data_source.repository_scrapers.bioconductor.BioconductorScraper&#45;&gt;olivia_finder.data_source.scraper_ds.ScraperDataSource</title>
<path fill="none" stroke="black" d="M302,-129.68C315.95,-135.04 329.96,-140.24 343.5,-145 407.12,-167.35 476.79,-189.25 541.41,-208.51"/>
<polygon fill="none" stroke="black" points="540.73,-211.96 551.31,-211.46 542.73,-205.25 540.73,-211.96"/>
</g>
<!-- olivia_finder.data_source.csv_ds.CSVDataSource -->
<g id="node2" class="node">
<title>olivia_finder.data_source.csv_ds.CSVDataSource</title>
<polygon fill="aliceblue" stroke="black" points="1241,-181.5 1241,-370.5 2012,-370.5 2012,-181.5 1241,-181.5"/>
<text text-anchor="middle" x="1626.5" y="-355.3" font-family="" font-size="14.00">CSVDataSource</text>
<polyline fill="none" stroke="black" points="1241,-347.5 2012,-347.5 "/>
<text text-anchor="start" x="1249" y="-332.3" font-family="" font-size="14.00">data : NoneType, DataFrame, TextFileReader</text>
<text text-anchor="start" x="1249" y="-317.3" font-family="" font-size="14.00">dependency_field : str = None</text>
<text text-anchor="start" x="1249" y="-302.3" font-family="" font-size="14.00">dependency_version_field : str = None</text>
<text text-anchor="start" x="1249" y="-287.3" font-family="" font-size="14.00">dependent_field : str = None</text>
<text text-anchor="start" x="1249" y="-272.3" font-family="" font-size="14.00">dependent_url_field : str = None</text>
<text text-anchor="start" x="1249" y="-257.3" font-family="" font-size="14.00">dependent_version_field : str = None</text>
<text text-anchor="start" x="1249" y="-242.3" font-family="" font-size="14.00">file_path : str</text>
<polyline fill="none" stroke="black" points="1241,-234.5 2012,-234.5 "/>
<text text-anchor="start" x="1249" y="-219.3" font-family="" font-size="14.00">obtain_package_data(package_name: str, override_previous: bool): Dict</text>
<text text-anchor="start" x="1249" y="-204.3" font-family="" font-size="14.00">obtain_package_names(): List[str]</text>
<text text-anchor="start" x="1249" y="-189.3" font-family="" font-size="14.00">obtain_packages_data(package_names: Optional[List[str]], progress_bar: Optional[tqdm.tqdm]): List[Dict]</text>
</g>
<!-- olivia_finder.data_source.data_source.DataSource -->
<g id="node4" class="node">
<title>olivia_finder.data_source.data_source.DataSource</title>
<polygon fill="aliceblue" stroke="black" points="1181.5,-407.5 1181.5,-581.5 2071.5,-581.5 2071.5,-407.5 1181.5,-407.5"/>
<text text-anchor="middle" x="1626.5" y="-566.3" font-family="" font-size="14.00">DataSource</text>
<polyline fill="none" stroke="black" points="1181.5,-558.5 2071.5,-558.5 "/>
<text text-anchor="start" x="1189.5" y="-543.3" font-family="" font-size="14.00">auxiliary_datasources : list, NoneType</text>
<text text-anchor="start" x="1189.5" y="-528.3" font-family="" font-size="14.00">description : str</text>
<text text-anchor="start" x="1189.5" y="-513.3" font-family="" font-size="14.00">name : str</text>
<text text-anchor="start" x="1189.5" y="-498.3" font-family="" font-size="14.00">packages_data : dict</text>
<polyline fill="none" stroke="black" points="1181.5,-490.5 2071.5,-490.5 "/>
<text text-anchor="start" x="1189.5" y="-475.3" font-family="" font-size="14.00">generate_package_dependency_network(package_name: str, dependency_network: Dict, deep_level: int): Dict[str, List[str]]</text>
<text text-anchor="start" x="1189.5" y="-460.3" font-family="" font-size="14.00">get_info(): Dict</text>
<text text-anchor="start" x="1189.5" y="-445.3" font-family="" font-size="14.00">obtain_package_data(package_name: str): Dict</text>
<text text-anchor="start" x="1189.5" y="-430.3" font-family="" font-size="14.00">obtain_package_names(): List[str]</text>
<text text-anchor="start" x="1189.5" y="-415.3" font-family="" font-size="14.00">obtain_packages_data(package_names: list[str]): List[Dict]</text>
</g>
<!-- olivia_finder.data_source.csv_ds.CSVDataSource&#45;&gt;olivia_finder.data_source.data_source.DataSource -->
<g id="edge1" class="edge">
<title>olivia_finder.data_source.csv_ds.CSVDataSource&#45;&gt;olivia_finder.data_source.data_source.DataSource</title>
<path fill="none" stroke="black" d="M1626.5,-370.7C1626.5,-379.41 1626.5,-388.24 1626.5,-396.97"/>
<polygon fill="none" stroke="black" points="1623,-397.16 1626.5,-407.16 1630,-397.16 1623,-397.16"/>
</g>
<!-- olivia_finder.data_source.repository_scrapers.cran.CranScraper -->
<g id="node3" class="node">
<title>olivia_finder.data_source.repository_scrapers.cran.CranScraper</title>
<polygon fill="antiquewhite" stroke="black" points="353,-15.5 353,-129.5 610,-129.5 610,-15.5 353,-15.5"/>
<text text-anchor="middle" x="481.5" y="-114.3" font-family="" font-size="14.00">CranScraper</text>
<polyline fill="none" stroke="black" points="353,-106.5 610,-106.5 "/>
<text text-anchor="start" x="361" y="-91.3" font-family="" font-size="14.00">CRAN_PACKAGE_DATA_URL : str</text>
<text text-anchor="start" x="361" y="-76.3" font-family="" font-size="14.00">CRAN_PACKAGE_LIST_URL : str</text>
<text text-anchor="start" x="361" y="-61.3" font-family="" font-size="14.00">DESCRIPTION : str, str = None</text>
<text text-anchor="start" x="361" y="-46.3" font-family="" font-size="14.00">NAME : str</text>
<polyline fill="none" stroke="black" points="353,-38.5 610,-38.5 "/>
<text text-anchor="start" x="361" y="-23.3" font-family="" font-size="14.00">obtain_package_names(): List[str]</text>
</g>
<!-- olivia_finder.data_source.repository_scrapers.cran.CranScraper&#45;&gt;olivia_finder.data_source.scraper_ds.ScraperDataSource -->
<g id="edge4" class="edge">
<title>olivia_finder.data_source.repository_scrapers.cran.CranScraper&#45;&gt;olivia_finder.data_source.scraper_ds.ScraperDataSource</title>
<path fill="none" stroke="black" d="M564.51,-129.63C599.27,-153.13 640.03,-180.69 676.66,-205.46"/>
<polygon fill="none" stroke="black" points="675.14,-208.66 685.38,-211.36 679.06,-202.86 675.14,-208.66"/>
</g>
<!-- olivia_finder.data_source.librariesio_ds.LibrariesIoException -->
<g id="node5" class="node">
<title>olivia_finder.data_source.librariesio_ds.LibrariesIoException</title>
<polygon fill="aliceblue" stroke="black" points="1820.5,-37.5 1820.5,-107.5 1986.5,-107.5 1986.5,-37.5 1820.5,-37.5"/>
<text text-anchor="middle" x="1903.5" y="-92.3" font-family="" font-size="14.00" fill="red">LibrariesIoException</text>
<polyline fill="none" stroke="black" points="1820.5,-84.5 1986.5,-84.5 "/>
<polyline fill="none" stroke="black" points="1820.5,-60.5 1986.5,-60.5 "/>
<text text-anchor="middle" x="1903.5" y="-45.3" font-family="" font-size="14.00" fill="red"> </text>
</g>
<!-- olivia_finder.data_source.librariesio_ds.LibrariesioDataSource -->
<g id="node6" class="node">
<title>olivia_finder.data_source.librariesio_ds.LibrariesioDataSource</title>
<polygon fill="aliceblue" stroke="black" points="2030,-204 2030,-348 2463,-348 2463,-204 2030,-204"/>
<text text-anchor="middle" x="2246.5" y="-332.8" font-family="" font-size="14.00">LibrariesioDataSource</text>
<polyline fill="none" stroke="black" points="2030,-325 2463,-325 "/>
<text text-anchor="start" x="2038" y="-309.8" font-family="" font-size="14.00">API_KEY : NoneType</text>
<text text-anchor="start" x="2038" y="-294.8" font-family="" font-size="14.00">API_KEY : str</text>
<text text-anchor="start" x="2038" y="-279.8" font-family="" font-size="14.00">API_URL : str</text>
<text text-anchor="start" x="2038" y="-264.8" font-family="" font-size="14.00">platform : str</text>
<polyline fill="none" stroke="black" points="2030,-257 2463,-257 "/>
<text text-anchor="start" x="2038" y="-241.8" font-family="" font-size="14.00">obtain_package_data(package_name: str): Dict</text>
<text text-anchor="start" x="2038" y="-226.8" font-family="" font-size="14.00">obtain_package_names(): List[str]</text>
<text text-anchor="start" x="2038" y="-211.8" font-family="" font-size="14.00">obtain_packages_data(package_names: list[str]): List[Dict]</text>
</g>
<!-- olivia_finder.data_source.librariesio_ds.LibrariesioDataSource&#45;&gt;olivia_finder.data_source.data_source.DataSource -->
<g id="edge2" class="edge">
<title>olivia_finder.data_source.librariesio_ds.LibrariesioDataSource&#45;&gt;olivia_finder.data_source.data_source.DataSource</title>
<path fill="none" stroke="black" d="M2081.32,-348.1C2061.28,-356.11 2041,-363.92 2021.5,-371 1990.4,-382.29 1957.7,-393.48 1924.99,-404.25"/>
<polygon fill="none" stroke="black" points="1923.71,-400.98 1915.3,-407.42 1925.89,-407.64 1923.71,-400.98"/>
</g>
<!-- olivia_finder.data_source.data_source.NotFoundInDataSourceException -->
<g id="node7" class="node">
<title>olivia_finder.data_source.data_source.NotFoundInDataSourceException</title>
<polygon fill="aliceblue" stroke="black" points="2004.5,-30.5 2004.5,-114.5 2260.5,-114.5 2260.5,-30.5 2004.5,-30.5"/>
<text text-anchor="middle" x="2132.5" y="-99.3" font-family="" font-size="14.00" fill="red">NotFoundInDataSourceException</text>
<polyline fill="none" stroke="black" points="2004.5,-91.5 2260.5,-91.5 "/>
<text text-anchor="start" x="2012.5" y="-76.3" font-family="" font-size="14.00" fill="red">data_source_name : str</text>
<text text-anchor="start" x="2012.5" y="-61.3" font-family="" font-size="14.00" fill="red">package_name : str</text>
<polyline fill="none" stroke="black" points="2004.5,-53.5 2260.5,-53.5 "/>
<text text-anchor="middle" x="2132.5" y="-38.3" font-family="" font-size="14.00" fill="red"> </text>
</g>
<!-- olivia_finder.data_source.repository_scrapers.npm.NpmScraper -->
<g id="node8" class="node">
<title>olivia_finder.data_source.repository_scrapers.npm.NpmScraper</title>
<polygon fill="antiquewhite" stroke="black" points="628.5,-0.5 628.5,-144.5 1526.5,-144.5 1526.5,-0.5 628.5,-0.5"/>
<text text-anchor="middle" x="1077.5" y="-129.3" font-family="" font-size="14.00">NpmScraper</text>
<polyline fill="none" stroke="black" points="628.5,-121.5 1526.5,-121.5 "/>
<text text-anchor="start" x="636.5" y="-106.3" font-family="" font-size="14.00">DESCRIPTION : str</text>
<text text-anchor="start" x="636.5" y="-91.3" font-family="" font-size="14.00">NAME : str</text>
<text text-anchor="start" x="636.5" y="-76.3" font-family="" font-size="14.00">NPM_PACKAGE_LIST_URL : str</text>
<text text-anchor="start" x="636.5" y="-61.3" font-family="" font-size="14.00">NPM_PACKAGE_REGISTRY_URL : str</text>
<text text-anchor="start" x="636.5" y="-46.3" font-family="" font-size="14.00">NPM_REPO_URL : str</text>
<text text-anchor="start" x="636.5" y="-31.3" font-family="" font-size="14.00">chunks_folder : NoneType</text>
<polyline fill="none" stroke="black" points="628.5,-23.5 1526.5,-23.5 "/>
<text text-anchor="start" x="636.5" y="-8.3" font-family="" font-size="14.00">obtain_package_names(page_size: int = None, save_chunks: bool, show_progress_bar: bool): List[dict]</text>
</g>
<!-- olivia_finder.data_source.repository_scrapers.npm.NpmScraper&#45;&gt;olivia_finder.data_source.scraper_ds.ScraperDataSource -->
<g id="edge5" class="edge">
<title>olivia_finder.data_source.repository_scrapers.npm.NpmScraper&#45;&gt;olivia_finder.data_source.scraper_ds.ScraperDataSource</title>
<path fill="none" stroke="black" d="M972.44,-144.54C943.15,-164.34 911.38,-185.82 882.24,-205.53"/>
<polygon fill="none" stroke="black" points="880.01,-202.81 873.69,-211.31 883.93,-208.61 880.01,-202.81"/>
</g>
<!-- olivia_finder.data_source.repository_scrapers.pypi.PypiScraper -->
<g id="node9" class="node">
<title>olivia_finder.data_source.repository_scrapers.pypi.PypiScraper</title>
<polygon fill="antiquewhite" stroke="black" points="1545,-15.5 1545,-129.5 1802,-129.5 1802,-15.5 1545,-15.5"/>
<text text-anchor="middle" x="1673.5" y="-114.3" font-family="" font-size="14.00">PypiScraper</text>
<polyline fill="none" stroke="black" points="1545,-106.5 1802,-106.5 "/>
<text text-anchor="start" x="1553" y="-91.3" font-family="" font-size="14.00">DESCRIPTION : str</text>
<text text-anchor="start" x="1553" y="-76.3" font-family="" font-size="14.00">NAME : str</text>
<text text-anchor="start" x="1553" y="-61.3" font-family="" font-size="14.00">PYPI_PACKAGE_DATA_URL : str</text>
<text text-anchor="start" x="1553" y="-46.3" font-family="" font-size="14.00">PYPI_PACKAGE_LIST_URL : str</text>
<polyline fill="none" stroke="black" points="1545,-38.5 1802,-38.5 "/>
<text text-anchor="start" x="1553" y="-23.3" font-family="" font-size="14.00">obtain_package_names(): List[str]</text>
</g>
<!-- olivia_finder.data_source.repository_scrapers.pypi.PypiScraper&#45;&gt;olivia_finder.data_source.scraper_ds.ScraperDataSource -->
<g id="edge6" class="edge">
<title>olivia_finder.data_source.repository_scrapers.pypi.PypiScraper&#45;&gt;olivia_finder.data_source.scraper_ds.ScraperDataSource</title>
<path fill="none" stroke="black" d="M1575.44,-129.67C1562.31,-135.58 1548.78,-140.92 1535.5,-145 1405.87,-184.84 1366.35,-159.2 1232.5,-181 1182.04,-189.22 1128.67,-199.16 1076.96,-209.46"/>
<polygon fill="none" stroke="black" points="1076.1,-206.06 1066.98,-211.46 1077.47,-212.93 1076.1,-206.06"/>
</g>
<!-- olivia_finder.data_source.scraper_ds.ScraperDataSource&#45;&gt;olivia_finder.data_source.data_source.DataSource -->
<g id="edge7" class="edge">
<title>olivia_finder.data_source.scraper_ds.ScraperDataSource&#45;&gt;olivia_finder.data_source.data_source.DataSource</title>
<path fill="none" stroke="black" d="M1028.19,-340.57C1107.03,-360.72 1195.67,-383.38 1280.09,-404.95"/>
<polygon fill="none" stroke="black" points="1279.27,-408.36 1289.83,-407.44 1281.01,-401.58 1279.27,-408.36"/>
</g>
<!-- olivia_finder.data_source.scraper_ds.ScraperError -->
<g id="node11" class="node">
<title>olivia_finder.data_source.scraper_ds.ScraperError</title>
<polygon fill="aliceblue" stroke="black" points="2279,-38 2279,-107 2392,-107 2392,-38 2279,-38"/>
<text text-anchor="middle" x="2335.5" y="-91.8" font-family="" font-size="14.00" fill="red">ScraperError</text>
<polyline fill="none" stroke="black" points="2279,-84 2392,-84 "/>
<text text-anchor="start" x="2287" y="-68.8" font-family="" font-size="14.00" fill="red">message : str</text>
<polyline fill="none" stroke="black" points="2279,-61 2392,-61 "/>
<text text-anchor="middle" x="2335.5" y="-45.8" font-family="" font-size="14.00" fill="red"> </text>
</g>
</g>
</svg>
