<?xml version="1.0" encoding="UTF-8" standalone="no"?>
<!DOCTYPE svg PUBLIC "-//W3C//DTD SVG 1.1//EN"
 "http://www.w3.org/Graphics/SVG/1.1/DTD/svg11.dtd">
<!-- Generated by graphviz version 2.43.0 (0)
 -->
<!-- Title: classes_olivia_finder Pages: 1 -->
<svg width="4900pt" height="1133pt"
 viewBox="0.00 0.00 4899.50 1133.00" xmlns="http://www.w3.org/2000/svg" xmlns:xlink="http://www.w3.org/1999/xlink">
<g id="graph0" class="graph" transform="scale(1 1) rotate(0) translate(4 1129)">
<title>classes_olivia_finder</title>
<polygon fill="white" stroke="black" points="-4,4 -4,-1129 4895.5,-1129 4895.5,4 -4,4"/>
<!-- olivia_finder.data_source.repository_scrapers.bioconductor.BioconductorScraper -->
<g id="node1" class="node">
<title>olivia_finder.data_source.repository_scrapers.bioconductor.BioconductorScraper</title>
<polygon fill="aquamarine" stroke="black" points="0,-241.5 0,-355.5 335,-355.5 335,-241.5 0,-241.5"/>
<text text-anchor="middle" x="167.5" y="-340.3" font-family="arial" font-size="14.00">BioconductorScraper</text>
<polyline fill="none" stroke="black" points="0,-332.5 335,-332.5 "/>
<text text-anchor="start" x="8" y="-317.3" font-family="arial" font-size="14.00">BIOCONDUCTOR_LIST_URL : str</text>
<text text-anchor="start" x="8" y="-302.3" font-family="arial" font-size="14.00">BIOCONDUCTOR_PACKAGE_DATA_URL : str</text>
<text text-anchor="start" x="8" y="-287.3" font-family="arial" font-size="14.00">DESCRIPTION : str</text>
<text text-anchor="start" x="8" y="-272.3" font-family="arial" font-size="14.00">NAME : str</text>
<polyline fill="none" stroke="black" points="0,-264.5 335,-264.5 "/>
<text text-anchor="start" x="8" y="-249.3" font-family="arial" font-size="14.00">obtain_package_names(): List[str]</text>
</g>
<!-- olivia_finder.data_source.scraper_ds.ScraperDataSource -->
<g id="node21" class="node">
<title>olivia_finder.data_source.scraper_ds.ScraperDataSource</title>
<polygon fill="antiquewhite" stroke="black" points="511,-475 511,-604 1644,-604 1644,-475 511,-475"/>
<text text-anchor="middle" x="1077.5" y="-588.8" font-family="arial" font-size="14.00">ScraperDataSource</text>
<polyline fill="none" stroke="black" points="511,-581 1644,-581 "/>
<text text-anchor="start" x="519" y="-565.8" font-family="arial" font-size="14.00">not_found : list</text>
<text text-anchor="start" x="519" y="-550.8" font-family="arial" font-size="14.00">request_handler : Optional[RequestHandler]</text>
<polyline fill="none" stroke="black" points="511,-543 1644,-543 "/>
<text text-anchor="start" x="519" y="-527.8" font-family="arial" font-size="14.00">get_info(): dict</text>
<text text-anchor="start" x="519" y="-512.8" font-family="arial" font-size="14.00">obtain_package_data(package_name: str): Dict</text>
<text text-anchor="start" x="519" y="-497.8" font-family="arial" font-size="14.00">obtain_package_names(): List[str]</text>
<text text-anchor="start" x="519" y="-482.8" font-family="arial" font-size="14.00">obtain_packages_data(package_names: Optional[List[str]], progress_bar: Optional[tqdm.tqdm], from_data_source: Optional[bool]): Tuple[List[Dict], List[str]]</text>
</g>
<!-- olivia_finder.data_source.repository_scrapers.bioconductor.BioconductorScraper&#45;&gt;olivia_finder.data_source.scraper_ds.ScraperDataSource -->
<g id="edge3" class="edge">
<title>olivia_finder.data_source.repository_scrapers.bioconductor.BioconductorScraper&#45;&gt;olivia_finder.data_source.scraper_ds.ScraperDataSource</title>
<path fill="none" stroke="black" d="M270.82,-355.64C294.24,-366.85 319.35,-377.71 343.5,-386 447.35,-421.67 562.47,-450.39 670.15,-472.87"/>
<polygon fill="none" stroke="black" points="669.71,-476.35 680.21,-474.96 671.13,-469.5 669.71,-476.35"/>
</g>
<!-- olivia_finder.data_source.csv_ds.CSVDataSource -->
<g id="node2" class="node">
<title>olivia_finder.data_source.csv_ds.CSVDataSource</title>
<polygon fill="antiquewhite" stroke="black" points="1662,-437.5 1662,-641.5 2455,-641.5 2455,-437.5 1662,-437.5"/>
<text text-anchor="middle" x="2058.5" y="-626.3" font-family="arial" font-size="14.00">CSVDataSource</text>
<polyline fill="none" stroke="black" points="1662,-618.5 2455,-618.5 "/>
<text text-anchor="start" x="1670" y="-603.3" font-family="arial" font-size="14.00">data : DataFrame, NoneType, TextFileReader</text>
<text text-anchor="start" x="1670" y="-588.3" font-family="arial" font-size="14.00">dependency_field : Optional[str]</text>
<text text-anchor="start" x="1670" y="-573.3" font-family="arial" font-size="14.00">dependency_version_field : Optional[str]</text>
<text text-anchor="start" x="1670" y="-558.3" font-family="arial" font-size="14.00">dependent_field : Optional[str]</text>
<text text-anchor="start" x="1670" y="-543.3" font-family="arial" font-size="14.00">dependent_url_field : Optional[str]</text>
<text text-anchor="start" x="1670" y="-528.3" font-family="arial" font-size="14.00">dependent_version_field : Optional[str]</text>
<text text-anchor="start" x="1670" y="-513.3" font-family="arial" font-size="14.00">file_path : str</text>
<polyline fill="none" stroke="black" points="1662,-505.5 2455,-505.5 "/>
<text text-anchor="start" x="1670" y="-490.3" font-family="arial" font-size="14.00">get_info()</text>
<text text-anchor="start" x="1670" y="-475.3" font-family="arial" font-size="14.00">obtain_package_data(package_name: str, override_previous: Optional[bool]): Dict</text>
<text text-anchor="start" x="1670" y="-460.3" font-family="arial" font-size="14.00">obtain_package_names(): List[str]</text>
<text text-anchor="start" x="1670" y="-445.3" font-family="arial" font-size="14.00">obtain_packages_data(package_name_list: Optional[List[str]], progress_bar: Optional[tqdm.tqdm]): List[Dict]</text>
</g>
<!-- olivia_finder.data_source.data_source.DataSource -->
<g id="node5" class="node">
<title>olivia_finder.data_source.data_source.DataSource</title>
<polygon fill="antiquewhite" stroke="black" points="1613.5,-679.5 1613.5,-853.5 2503.5,-853.5 2503.5,-679.5 1613.5,-679.5"/>
<text text-anchor="middle" x="2058.5" y="-838.3" font-family="arial" font-size="14.00">DataSource</text>
<polyline fill="none" stroke="black" points="1613.5,-830.5 2503.5,-830.5 "/>
<text text-anchor="start" x="1621.5" y="-815.3" font-family="arial" font-size="14.00">auxiliary_datasources : list, NoneType</text>
<text text-anchor="start" x="1621.5" y="-800.3" font-family="arial" font-size="14.00">description : str</text>
<text text-anchor="start" x="1621.5" y="-785.3" font-family="arial" font-size="14.00">name : str</text>
<text text-anchor="start" x="1621.5" y="-770.3" font-family="arial" font-size="14.00">packages_data : dict</text>
<polyline fill="none" stroke="black" points="1613.5,-762.5 2503.5,-762.5 "/>
<text text-anchor="start" x="1621.5" y="-747.3" font-family="arial" font-size="14.00">generate_package_dependency_network(package_name: str, dependency_network: Dict, deep_level: int): Dict[str, List[str]]</text>
<text text-anchor="start" x="1621.5" y="-732.3" font-family="arial" font-size="14.00">get_info(): Dict</text>
<text text-anchor="start" x="1621.5" y="-717.3" font-family="arial" font-size="14.00">obtain_package_data(package_name: str): Dict</text>
<text text-anchor="start" x="1621.5" y="-702.3" font-family="arial" font-size="14.00">obtain_package_names(): List[str]</text>
<text text-anchor="start" x="1621.5" y="-687.3" font-family="arial" font-size="14.00">obtain_packages_data(): List[Dict]</text>
</g>
<!-- olivia_finder.data_source.csv_ds.CSVDataSource&#45;&gt;olivia_finder.data_source.data_source.DataSource -->
<g id="edge1" class="edge">
<title>olivia_finder.data_source.csv_ds.CSVDataSource&#45;&gt;olivia_finder.data_source.data_source.DataSource</title>
<path fill="none" stroke="black" d="M2058.5,-641.81C2058.5,-650.88 2058.5,-660.04 2058.5,-669.07"/>
<polygon fill="none" stroke="black" points="2055,-669.19 2058.5,-679.19 2062,-669.19 2055,-669.19"/>
</g>
<!-- olivia_finder.utilities.config_ini.Configuration -->
<g id="node3" class="node">
<title>olivia_finder.utilities.config_ini.Configuration</title>
<polygon fill="cadetblue" stroke="black" points="2763.5,-45 2763.5,-115 2987.5,-115 2987.5,-45 2763.5,-45"/>
<text text-anchor="middle" x="2875.5" y="-99.8" font-family="arial" font-size="14.00">Configuration</text>
<polyline fill="none" stroke="black" points="2763.5,-92 2987.5,-92 "/>
<polyline fill="none" stroke="black" points="2763.5,-68 2987.5,-68 "/>
<text text-anchor="start" x="2771.5" y="-52.8" font-family="arial" font-size="14.00">get_key(section: str, key: str)</text>
</g>
<!-- olivia_finder.data_source.repository_scrapers.cran.CranScraper -->
<g id="node4" class="node">
<title>olivia_finder.data_source.repository_scrapers.cran.CranScraper</title>
<polygon fill="aquamarine" stroke="black" points="353,-241.5 353,-355.5 610,-355.5 610,-241.5 353,-241.5"/>
<text text-anchor="middle" x="481.5" y="-340.3" font-family="arial" font-size="14.00">CranScraper</text>
<polyline fill="none" stroke="black" points="353,-332.5 610,-332.5 "/>
<text text-anchor="start" x="361" y="-317.3" font-family="arial" font-size="14.00">CRAN_PACKAGE_DATA_URL : str</text>
<text text-anchor="start" x="361" y="-302.3" font-family="arial" font-size="14.00">CRAN_PACKAGE_LIST_URL : str</text>
<text text-anchor="start" x="361" y="-287.3" font-family="arial" font-size="14.00">DESCRIPTION : str, Optional[str]</text>
<text text-anchor="start" x="361" y="-272.3" font-family="arial" font-size="14.00">NAME : str</text>
<polyline fill="none" stroke="black" points="353,-264.5 610,-264.5 "/>
<text text-anchor="start" x="361" y="-249.3" font-family="arial" font-size="14.00">obtain_package_names(): List[str]</text>
</g>
<!-- olivia_finder.data_source.repository_scrapers.cran.CranScraper&#45;&gt;olivia_finder.data_source.scraper_ds.ScraperDataSource -->
<g id="edge4" class="edge">
<title>olivia_finder.data_source.repository_scrapers.cran.CranScraper&#45;&gt;olivia_finder.data_source.scraper_ds.ScraperDataSource</title>
<path fill="none" stroke="black" d="M563.98,-355.64C581.85,-366.53 600.96,-377.26 619.5,-386 689.59,-419.06 768.81,-448.13 841.41,-471.78"/>
<polygon fill="none" stroke="black" points="840.56,-475.19 851.15,-474.94 842.71,-468.53 840.56,-475.19"/>
</g>
<!-- olivia_finder.package_manager.PackageManager -->
<g id="node13" class="node">
<title>olivia_finder.package_manager.PackageManager</title>
<polygon fill="aliceblue" stroke="black" points="1223.5,-905.5 1223.5,-1124.5 2893.5,-1124.5 2893.5,-905.5 1223.5,-905.5"/>
<text text-anchor="middle" x="2058.5" y="-1109.3" font-family="arial" font-size="14.00">PackageManager</text>
<polyline fill="none" stroke="black" points="1223.5,-1101.5 2893.5,-1101.5 "/>
<text text-anchor="start" x="1231.5" y="-1086.3" font-family="arial" font-size="14.00">data_source</text>
<text text-anchor="start" x="1231.5" y="-1071.3" font-family="arial" font-size="14.00">packages : list, Dict[str, Package]</text>
<polyline fill="none" stroke="black" points="1223.5,-1063.5 2893.5,-1063.5 "/>
<text text-anchor="start" x="1231.5" y="-1048.3" font-family="arial" font-size="14.00">export_adjlist(): </text>
<text text-anchor="start" x="1231.5" y="-1033.3" font-family="arial" font-size="14.00">export_full_adjlist(): </text>
<text text-anchor="start" x="1231.5" y="-1018.3" font-family="arial" font-size="14.00">get_package(package_name: str): Union[Package, None]</text>
<text text-anchor="start" x="1231.5" y="-1003.3" font-family="arial" font-size="14.00">get_package_list(): List[Package]</text>
<text text-anchor="start" x="1231.5" y="-988.3" font-family="arial" font-size="14.00">get_package_names(): List[str]</text>
<text text-anchor="start" x="1231.5" y="-973.3" font-family="arial" font-size="14.00">load(cls: str, path)</text>
<text text-anchor="start" x="1231.5" y="-958.3" font-family="arial" font-size="14.00">load_csv_adjlist(csv_path: Optional[str], dependent_field: Optional[str], dependency_field: Optional[str], version_field: Optional[str], dependency_version_field: Optional[str], url_field: Optional[bool], default_format): PackageManager</text>
<text text-anchor="start" x="1231.5" y="-943.3" font-family="arial" font-size="14.00">obtain_package(package_name: str): Union[Package, None]</text>
<text text-anchor="start" x="1231.5" y="-928.3" font-family="arial" font-size="14.00">obtain_packages(package_names: Optional[List[str]], extend: Optional[bool], show_progress: Optional[bool]): List[Package]</text>
<text text-anchor="start" x="1231.5" y="-913.3" font-family="arial" font-size="14.00">save(path: str)</text>
</g>
<!-- olivia_finder.data_source.data_source.DataSource&#45;&gt;olivia_finder.package_manager.PackageManager -->
<g id="edge11" class="edge">
<title>olivia_finder.data_source.data_source.DataSource&#45;&gt;olivia_finder.package_manager.PackageManager</title>
<path fill="none" stroke="black" d="M2058.5,-853.71C2058.5,-866.47 2058.5,-879.81 2058.5,-893.11"/>
<polygon fill="black" stroke="black" points="2058.5,-893.3 2062.5,-899.3 2058.5,-905.3 2054.5,-899.3 2058.5,-893.3"/>
<text text-anchor="middle" x="2101.5" y="-875.8" font-family="arial" font-size="14.00" fill="green">data_source</text>
</g>
<!-- olivia_finder.myrequests.proxy_builder.FreeProxyList -->
<g id="node6" class="node">
<title>olivia_finder.myrequests.proxy_builder.FreeProxyList</title>
<polygon fill="burlywood" stroke="black" points="3005.5,-45 3005.5,-115 3123.5,-115 3123.5,-45 3005.5,-45"/>
<text text-anchor="middle" x="3064.5" y="-99.8" font-family="arial" font-size="14.00">FreeProxyList</text>
<polyline fill="none" stroke="black" points="3005.5,-92 3123.5,-92 "/>
<polyline fill="none" stroke="black" points="3005.5,-68 3123.5,-68 "/>
<text text-anchor="middle" x="3064.5" y="-52.8" font-family="arial" font-size="14.00"> </text>
</g>
<!-- olivia_finder.myrequests.proxy_builder.ProxyBuilder -->
<g id="node15" class="node">
<title>olivia_finder.myrequests.proxy_builder.ProxyBuilder</title>
<polygon fill="burlywood" stroke="black" points="3075,-256.5 3075,-340.5 3328,-340.5 3328,-256.5 3075,-256.5"/>
<text text-anchor="middle" x="3201.5" y="-325.3" font-family="arial" font-size="14.00">ProxyBuilder</text>
<polyline fill="none" stroke="black" points="3075,-317.5 3328,-317.5 "/>
<text text-anchor="start" x="3083" y="-302.3" font-family="arial" font-size="14.00">proxy_list_timeout : Optional[int]</text>
<text text-anchor="start" x="3083" y="-287.3" font-family="arial" font-size="14.00">url : Optional[str]</text>
<polyline fill="none" stroke="black" points="3075,-279.5 3328,-279.5 "/>
<text text-anchor="start" x="3083" y="-264.3" font-family="arial" font-size="14.00">get_proxies(): List[str]</text>
</g>
<!-- olivia_finder.myrequests.proxy_builder.FreeProxyList&#45;&gt;olivia_finder.myrequests.proxy_builder.ProxyBuilder -->
<g id="edge8" class="edge">
<title>olivia_finder.myrequests.proxy_builder.FreeProxyList&#45;&gt;olivia_finder.myrequests.proxy_builder.ProxyBuilder</title>
<path fill="none" stroke="black" d="M3086.21,-115.31C3108.77,-150.96 3144.31,-207.12 3169.97,-247.67"/>
<polygon fill="none" stroke="black" points="3167.14,-249.75 3175.45,-256.33 3173.06,-246.01 3167.14,-249.75"/>
</g>
<!-- olivia_finder.myrequests.proxy_builder.GeonodeProxy -->
<g id="node7" class="node">
<title>olivia_finder.myrequests.proxy_builder.GeonodeProxy</title>
<polygon fill="burlywood" stroke="black" points="3141.5,-45 3141.5,-115 3261.5,-115 3261.5,-45 3141.5,-45"/>
<text text-anchor="middle" x="3201.5" y="-99.8" font-family="arial" font-size="14.00">GeonodeProxy</text>
<polyline fill="none" stroke="black" points="3141.5,-92 3261.5,-92 "/>
<polyline fill="none" stroke="black" points="3141.5,-68 3261.5,-68 "/>
<text text-anchor="middle" x="3201.5" y="-52.8" font-family="arial" font-size="14.00"> </text>
</g>
<!-- olivia_finder.myrequests.proxy_builder.GeonodeProxy&#45;&gt;olivia_finder.myrequests.proxy_builder.ProxyBuilder -->
<g id="edge9" class="edge">
<title>olivia_finder.myrequests.proxy_builder.GeonodeProxy&#45;&gt;olivia_finder.myrequests.proxy_builder.ProxyBuilder</title>
<path fill="none" stroke="black" d="M3201.5,-115.31C3201.5,-150.51 3201.5,-205.71 3201.5,-246.13"/>
<polygon fill="none" stroke="black" points="3198,-246.33 3201.5,-256.33 3205,-246.33 3198,-246.33"/>
</g>
<!-- olivia_finder.data_source.librariesio_ds.LibrariesioDataSource -->
<g id="node8" class="node">
<title>olivia_finder.data_source.librariesio_ds.LibrariesioDataSource</title>
<polygon fill="antiquewhite" stroke="black" points="2473,-482.5 2473,-596.5 2820,-596.5 2820,-482.5 2473,-482.5"/>
<text text-anchor="middle" x="2646.5" y="-581.3" font-family="arial" font-size="14.00">LibrariesioDataSource</text>
<polyline fill="none" stroke="black" points="2473,-573.5 2820,-573.5 "/>
<text text-anchor="start" x="2481" y="-558.3" font-family="arial" font-size="14.00">lib</text>
<text text-anchor="start" x="2481" y="-543.3" font-family="arial" font-size="14.00">platform : str</text>
<polyline fill="none" stroke="black" points="2473,-535.5 2820,-535.5 "/>
<text text-anchor="start" x="2481" y="-520.3" font-family="arial" font-size="14.00">obtain_package_data(package_name: str): Dict</text>
<text text-anchor="start" x="2481" y="-505.3" font-family="arial" font-size="14.00">obtain_package_names(): List[str]</text>
<text text-anchor="start" x="2481" y="-490.3" font-family="arial" font-size="14.00">obtain_packages_data(): List[Dict]</text>
</g>
<!-- olivia_finder.data_source.librariesio_ds.LibrariesioDataSource&#45;&gt;olivia_finder.data_source.data_source.DataSource -->
<g id="edge2" class="edge">
<title>olivia_finder.data_source.librariesio_ds.LibrariesioDataSource&#45;&gt;olivia_finder.data_source.data_source.DataSource</title>
<path fill="none" stroke="black" d="M2554.36,-596.55C2525.86,-612.53 2493.94,-629.09 2463.5,-642 2435.18,-654.01 2405.3,-665.4 2375.12,-676.04"/>
<polygon fill="none" stroke="black" points="2373.6,-672.86 2365.32,-679.47 2375.91,-679.47 2373.6,-672.86"/>
</g>
<!-- olivia_finder.utilities.logger.MyLogger -->
<g id="node9" class="node">
<title>olivia_finder.utilities.logger.MyLogger</title>
<polygon fill="cadetblue" stroke="black" points="3395.5,-8 3395.5,-152 3543.5,-152 3543.5,-8 3395.5,-8"/>
<text text-anchor="middle" x="3469.5" y="-136.8" font-family="arial" font-size="14.00">MyLogger</text>
<polyline fill="none" stroke="black" points="3395.5,-129 3543.5,-129 "/>
<text text-anchor="start" x="3403.5" y="-113.8" font-family="arial" font-size="14.00">level : NoneType</text>
<text text-anchor="start" x="3403.5" y="-98.8" font-family="arial" font-size="14.00">logger : NoneType</text>
<text text-anchor="start" x="3403.5" y="-83.8" font-family="arial" font-size="14.00">status : bool</text>
<polyline fill="none" stroke="black" points="3395.5,-76 3543.5,-76 "/>
<text text-anchor="start" x="3403.5" y="-60.8" font-family="arial" font-size="14.00">disable_logger()</text>
<text text-anchor="start" x="3403.5" y="-45.8" font-family="arial" font-size="14.00">enable_logger()</text>
<text text-anchor="start" x="3403.5" y="-30.8" font-family="arial" font-size="14.00">get_instance(cls)</text>
<text text-anchor="start" x="3403.5" y="-15.8" font-family="arial" font-size="14.00">log(text)</text>
</g>
<!-- olivia_finder.data_source.data_source.NotFoundInDataSourceException -->
<g id="node10" class="node">
<title>olivia_finder.data_source.data_source.NotFoundInDataSourceException</title>
<polygon fill="antiquewhite" stroke="black" points="3561.5,-38 3561.5,-122 3817.5,-122 3817.5,-38 3561.5,-38"/>
<text text-anchor="middle" x="3689.5" y="-106.8" font-family="arial" font-size="14.00" fill="red">NotFoundInDataSourceException</text>
<polyline fill="none" stroke="black" points="3561.5,-99 3817.5,-99 "/>
<text text-anchor="start" x="3569.5" y="-83.8" font-family="arial" font-size="14.00" fill="red">data_source_name : str</text>
<text text-anchor="start" x="3569.5" y="-68.8" font-family="arial" font-size="14.00" fill="red">package_name : str</text>
<polyline fill="none" stroke="black" points="3561.5,-61 3817.5,-61 "/>
<text text-anchor="middle" x="3689.5" y="-45.8" font-family="arial" font-size="14.00" fill="red"> </text>
</g>
<!-- olivia_finder.data_source.repository_scrapers.npm.NpmScraper -->
<g id="node11" class="node">
<title>olivia_finder.data_source.repository_scrapers.npm.NpmScraper</title>
<polygon fill="aquamarine" stroke="black" points="628.5,-226.5 628.5,-370.5 1526.5,-370.5 1526.5,-226.5 628.5,-226.5"/>
<text text-anchor="middle" x="1077.5" y="-355.3" font-family="arial" font-size="14.00">NpmScraper</text>
<polyline fill="none" stroke="black" points="628.5,-347.5 1526.5,-347.5 "/>
<text text-anchor="start" x="636.5" y="-332.3" font-family="arial" font-size="14.00">DESCRIPTION : str</text>
<text text-anchor="start" x="636.5" y="-317.3" font-family="arial" font-size="14.00">NAME : str</text>
<text text-anchor="start" x="636.5" y="-302.3" font-family="arial" font-size="14.00">NPM_PACKAGE_LIST_URL : str</text>
<text text-anchor="start" x="636.5" y="-287.3" font-family="arial" font-size="14.00">NPM_PACKAGE_REGISTRY_URL : str</text>
<text text-anchor="start" x="636.5" y="-272.3" font-family="arial" font-size="14.00">NPM_REPO_URL : str</text>
<text text-anchor="start" x="636.5" y="-257.3" font-family="arial" font-size="14.00">chunks_folder : NoneType</text>
<polyline fill="none" stroke="black" points="628.5,-249.5 1526.5,-249.5 "/>
<text text-anchor="start" x="636.5" y="-234.3" font-family="arial" font-size="14.00">obtain_package_names(page_size: Optional[int], save_chunks: Optional[bool], show_progress_bar: Optional[bool]): List[dict]</text>
</g>
<!-- olivia_finder.data_source.repository_scrapers.npm.NpmScraper&#45;&gt;olivia_finder.data_source.scraper_ds.ScraperDataSource -->
<g id="edge5" class="edge">
<title>olivia_finder.data_source.repository_scrapers.npm.NpmScraper&#45;&gt;olivia_finder.data_source.scraper_ds.ScraperDataSource</title>
<path fill="none" stroke="black" d="M1077.5,-370.56C1077.5,-400.1 1077.5,-434.4 1077.5,-464.26"/>
<polygon fill="none" stroke="black" points="1074,-464.63 1077.5,-474.63 1081,-464.63 1074,-464.63"/>
</g>
<!-- olivia_finder.package.Package -->
<g id="node12" class="node">
<title>olivia_finder.package.Package</title>
<polygon fill="aliceblue" stroke="black" points="3836,-0.5 3836,-159.5 4157,-159.5 4157,-0.5 3836,-0.5"/>
<text text-anchor="middle" x="3996.5" y="-144.3" font-family="arial" font-size="14.00">Package</text>
<polyline fill="none" stroke="black" points="3836,-136.5 4157,-136.5 "/>
<text text-anchor="start" x="3844" y="-121.3" font-family="arial" font-size="14.00">dependencies : set, Optional[list[Package]]</text>
<text text-anchor="start" x="3844" y="-106.3" font-family="arial" font-size="14.00">name : str</text>
<text text-anchor="start" x="3844" y="-91.3" font-family="arial" font-size="14.00">url : Optional[str]</text>
<text text-anchor="start" x="3844" y="-76.3" font-family="arial" font-size="14.00">version : Optional[str]</text>
<polyline fill="none" stroke="black" points="3836,-68.5 4157,-68.5 "/>
<text text-anchor="start" x="3844" y="-53.3" font-family="arial" font-size="14.00">load(cls: dict, data)</text>
<text text-anchor="start" x="3844" y="-38.3" font-family="arial" font-size="14.00">print()</text>
<text text-anchor="start" x="3844" y="-23.3" font-family="arial" font-size="14.00">to_dict()</text>
<text text-anchor="start" x="3844" y="-8.3" font-family="arial" font-size="14.00">update(data: dict)</text>
</g>
<!-- olivia_finder.package_manager.PackageManagerLoadError -->
<g id="node14" class="node">
<title>olivia_finder.package_manager.PackageManagerLoadError</title>
<polygon fill="aliceblue" stroke="black" points="4175.5,-45.5 4175.5,-114.5 4387.5,-114.5 4387.5,-45.5 4175.5,-45.5"/>
<text text-anchor="middle" x="4281.5" y="-99.3" font-family="arial" font-size="14.00" fill="red">PackageManagerLoadError</text>
<polyline fill="none" stroke="black" points="4175.5,-91.5 4387.5,-91.5 "/>
<text text-anchor="start" x="4183.5" y="-76.3" font-family="arial" font-size="14.00" fill="red">message</text>
<polyline fill="none" stroke="black" points="4175.5,-68.5 4387.5,-68.5 "/>
<text text-anchor="middle" x="4281.5" y="-53.3" font-family="arial" font-size="14.00" fill="red"> </text>
</g>
<!-- olivia_finder.myrequests.proxy_handler.ProxyHandler -->
<g id="node16" class="node">
<title>olivia_finder.myrequests.proxy_handler.ProxyHandler</title>
<polygon fill="burlywood" stroke="black" points="2105.5,-23 2105.5,-137 2485.5,-137 2485.5,-23 2105.5,-23"/>
<text text-anchor="middle" x="2295.5" y="-121.8" font-family="arial" font-size="14.00">ProxyHandler</text>
<polyline fill="none" stroke="black" points="2105.5,-114 2485.5,-114 "/>
<text text-anchor="start" x="2113.5" y="-98.8" font-family="arial" font-size="14.00">proxy_builders : list, NoneType, List[ProxyBuilder]</text>
<text text-anchor="start" x="2113.5" y="-83.8" font-family="arial" font-size="14.00">proxy_list : list, List[str]</text>
<text text-anchor="start" x="2113.5" y="-68.8" font-family="arial" font-size="14.00">proxy_max_uses : Optional[int]</text>
<text text-anchor="start" x="2113.5" y="-53.8" font-family="arial" font-size="14.00">proxy_uses : dict</text>
<polyline fill="none" stroke="black" points="2105.5,-46 2485.5,-46 "/>
<text text-anchor="start" x="2113.5" y="-30.8" font-family="arial" font-size="14.00">get_next_proxy(): Union[str, None]</text>
</g>
<!-- olivia_finder.myrequests.request_handler.RequestHandler -->
<g id="node19" class="node">
<title>olivia_finder.myrequests.request_handler.RequestHandler</title>
<polygon fill="burlywood" stroke="black" points="1820,-211.5 1820,-385.5 2961,-385.5 2961,-211.5 1820,-211.5"/>
<text text-anchor="middle" x="2390.5" y="-370.3" font-family="arial" font-size="14.00">RequestHandler</text>
<polyline fill="none" stroke="black" points="1820,-362.5 2961,-362.5 "/>
<text text-anchor="start" x="1828" y="-347.3" font-family="arial" font-size="14.00">NUM_PROCESSES : int</text>
<text text-anchor="start" x="1828" y="-332.3" font-family="arial" font-size="14.00">REQUEST_MAX_RETRIES : Optional[int]</text>
<text text-anchor="start" x="1828" y="-317.3" font-family="arial" font-size="14.00">REQUEST_TIMEOUT : Optional[int]</text>
<text text-anchor="start" x="1828" y="-302.3" font-family="arial" font-size="14.00">lock : lock</text>
<text text-anchor="start" x="1828" y="-287.3" font-family="arial" font-size="14.00">proxy_handler : NoneType</text>
<text text-anchor="start" x="1828" y="-272.3" font-family="arial" font-size="14.00">useragents_handler : NoneType</text>
<polyline fill="none" stroke="black" points="1820,-264.5 2961,-264.5 "/>
<text text-anchor="start" x="1828" y="-249.3" font-family="arial" font-size="14.00">do_parallel_requests(url_list: List[str], param_list: Optional[List[dict]], progress_bar: Optional[tqdm.tqdm]): List[Union[Tuple[str, requests.Response], None]]</text>
<text text-anchor="start" x="1828" y="-234.3" font-family="arial" font-size="14.00">do_request(url: str, params: dict): Union[Tuple[str, requests.Response], None]</text>
<text text-anchor="start" x="1828" y="-219.3" font-family="arial" font-size="14.00">force_change_proxy()</text>
</g>
<!-- olivia_finder.myrequests.proxy_handler.ProxyHandler&#45;&gt;olivia_finder.myrequests.request_handler.RequestHandler -->
<g id="edge12" class="edge">
<title>olivia_finder.myrequests.proxy_handler.ProxyHandler&#45;&gt;olivia_finder.myrequests.request_handler.RequestHandler</title>
<path fill="none" stroke="black" d="M2320.09,-137.04C2328.56,-156.35 2338.32,-178.57 2347.81,-200.21"/>
<polygon fill="black" stroke="black" points="2347.92,-200.46 2353.99,-204.35 2352.74,-211.45 2346.67,-207.56 2347.92,-200.46"/>
<text text-anchor="middle" x="2395" y="-181.8" font-family="arial" font-size="14.00" fill="green">proxy_handler</text>
</g>
<!-- olivia_finder.data_source.repository_scrapers.pypi.PypiScraper -->
<g id="node17" class="node">
<title>olivia_finder.data_source.repository_scrapers.pypi.PypiScraper</title>
<polygon fill="aquamarine" stroke="black" points="1545,-241.5 1545,-355.5 1802,-355.5 1802,-241.5 1545,-241.5"/>
<text text-anchor="middle" x="1673.5" y="-340.3" font-family="arial" font-size="14.00">PypiScraper</text>
<polyline fill="none" stroke="black" points="1545,-332.5 1802,-332.5 "/>
<text text-anchor="start" x="1553" y="-317.3" font-family="arial" font-size="14.00">DESCRIPTION : str</text>
<text text-anchor="start" x="1553" y="-302.3" font-family="arial" font-size="14.00">NAME : str</text>
<text text-anchor="start" x="1553" y="-287.3" font-family="arial" font-size="14.00">PYPI_PACKAGE_DATA_URL : str</text>
<text text-anchor="start" x="1553" y="-272.3" font-family="arial" font-size="14.00">PYPI_PACKAGE_LIST_URL : str</text>
<polyline fill="none" stroke="black" points="1545,-264.5 1802,-264.5 "/>
<text text-anchor="start" x="1553" y="-249.3" font-family="arial" font-size="14.00">obtain_package_names(): List[str]</text>
</g>
<!-- olivia_finder.data_source.repository_scrapers.pypi.PypiScraper&#45;&gt;olivia_finder.data_source.scraper_ds.ScraperDataSource -->
<g id="edge6" class="edge">
<title>olivia_finder.data_source.repository_scrapers.pypi.PypiScraper&#45;&gt;olivia_finder.data_source.scraper_ds.ScraperDataSource</title>
<path fill="none" stroke="black" d="M1591.02,-355.64C1573.15,-366.53 1554.04,-377.26 1535.5,-386 1465.41,-419.06 1386.19,-448.13 1313.59,-471.78"/>
<polygon fill="none" stroke="black" points="1312.29,-468.53 1303.85,-474.94 1314.44,-475.19 1312.29,-468.53"/>
</g>
<!-- olivia_finder.myrequests.request_handler.RequestError -->
<g id="node18" class="node">
<title>olivia_finder.myrequests.request_handler.RequestError</title>
<polygon fill="burlywood" stroke="black" points="4405.5,-45.5 4405.5,-114.5 4519.5,-114.5 4519.5,-45.5 4405.5,-45.5"/>
<text text-anchor="middle" x="4462.5" y="-99.3" font-family="arial" font-size="14.00" fill="red">RequestError</text>
<polyline fill="none" stroke="black" points="4405.5,-91.5 4519.5,-91.5 "/>
<text text-anchor="start" x="4413.5" y="-76.3" font-family="arial" font-size="14.00" fill="red">message</text>
<polyline fill="none" stroke="black" points="4405.5,-68.5 4519.5,-68.5 "/>
<text text-anchor="middle" x="4462.5" y="-53.3" font-family="arial" font-size="14.00" fill="red"> </text>
</g>
<!-- olivia_finder.myrequests.request_handler.RequestHandler&#45;&gt;olivia_finder.data_source.scraper_ds.ScraperDataSource -->
<g id="edge13" class="edge">
<title>olivia_finder.myrequests.request_handler.RequestHandler&#45;&gt;olivia_finder.data_source.scraper_ds.ScraperDataSource</title>
<path fill="none" stroke="black" d="M1917.87,-385.53C1759.89,-414.29 1586.45,-445.86 1438.38,-472.81"/>
<polygon fill="black" stroke="black" points="1438.21,-472.84 1433.02,-477.85 1426.41,-474.99 1431.59,-469.98 1438.21,-472.84"/>
<text text-anchor="middle" x="1872" y="-407.8" font-family="arial" font-size="14.00" fill="green">request_handler</text>
</g>
<!-- olivia_finder.myrequests.proxy_builder.SSLProxies -->
<g id="node20" class="node">
<title>olivia_finder.myrequests.proxy_builder.SSLProxies</title>
<polygon fill="burlywood" stroke="black" points="3279.5,-45 3279.5,-115 3377.5,-115 3377.5,-45 3279.5,-45"/>
<text text-anchor="middle" x="3328.5" y="-99.8" font-family="arial" font-size="14.00">SSLProxies</text>
<polyline fill="none" stroke="black" points="3279.5,-92 3377.5,-92 "/>
<polyline fill="none" stroke="black" points="3279.5,-68 3377.5,-68 "/>
<text text-anchor="middle" x="3328.5" y="-52.8" font-family="arial" font-size="14.00"> </text>
</g>
<!-- olivia_finder.myrequests.proxy_builder.SSLProxies&#45;&gt;olivia_finder.myrequests.proxy_builder.ProxyBuilder -->
<g id="edge10" class="edge">
<title>olivia_finder.myrequests.proxy_builder.SSLProxies&#45;&gt;olivia_finder.myrequests.proxy_builder.ProxyBuilder</title>
<path fill="none" stroke="black" d="M3308.38,-115.31C3287.46,-150.96 3254.51,-207.12 3230.73,-247.67"/>
<polygon fill="none" stroke="black" points="3227.69,-245.93 3225.65,-256.33 3233.73,-249.48 3227.69,-245.93"/>
</g>
<!-- olivia_finder.data_source.scraper_ds.ScraperDataSource&#45;&gt;olivia_finder.data_source.data_source.DataSource -->
<g id="edge7" class="edge">
<title>olivia_finder.data_source.scraper_ds.ScraperDataSource&#45;&gt;olivia_finder.data_source.data_source.DataSource</title>
<path fill="none" stroke="black" d="M1354.68,-604.07C1453.58,-626.76 1566.85,-652.74 1673.19,-677.13"/>
<polygon fill="none" stroke="black" points="1672.6,-680.58 1683.13,-679.41 1674.17,-673.76 1672.6,-680.58"/>
</g>
<!-- olivia_finder.data_source.scraper_ds.ScraperError -->
<g id="node22" class="node">
<title>olivia_finder.data_source.scraper_ds.ScraperError</title>
<polygon fill="antiquewhite" stroke="black" points="4538,-45.5 4538,-114.5 4651,-114.5 4651,-45.5 4538,-45.5"/>
<text text-anchor="middle" x="4594.5" y="-99.3" font-family="arial" font-size="14.00" fill="red">ScraperError</text>
<polyline fill="none" stroke="black" points="4538,-91.5 4651,-91.5 "/>
<text text-anchor="start" x="4546" y="-76.3" font-family="arial" font-size="14.00" fill="red">message : str</text>
<polyline fill="none" stroke="black" points="4538,-68.5 4651,-68.5 "/>
<text text-anchor="middle" x="4594.5" y="-53.3" font-family="arial" font-size="14.00" fill="red"> </text>
</g>
<!-- olivia_finder.myrequests.useragent_handler.UserAgentHandler -->
<g id="node23" class="node">
<title>olivia_finder.myrequests.useragent_handler.UserAgentHandler</title>
<polygon fill="burlywood" stroke="black" points="2503.5,-15.5 2503.5,-144.5 2745.5,-144.5 2745.5,-15.5 2503.5,-15.5"/>
<text text-anchor="middle" x="2624.5" y="-129.3" font-family="arial" font-size="14.00">UserAgentHandler</text>
<polyline fill="none" stroke="black" points="2503.5,-121.5 2745.5,-121.5 "/>
<text text-anchor="start" x="2511.5" y="-106.3" font-family="arial" font-size="14.00">DATA_FILE</text>
<text text-anchor="start" x="2511.5" y="-91.3" font-family="arial" font-size="14.00">DATA_FILE : str</text>
<text text-anchor="start" x="2511.5" y="-76.3" font-family="arial" font-size="14.00">USERAGENTSTRING_URL : str</text>
<text text-anchor="start" x="2511.5" y="-61.3" font-family="arial" font-size="14.00">useragents_list : List[str]</text>
<text text-anchor="start" x="2511.5" y="-46.3" font-family="arial" font-size="14.00">useragents_list : list</text>
<polyline fill="none" stroke="black" points="2503.5,-38.5 2745.5,-38.5 "/>
<text text-anchor="start" x="2511.5" y="-23.3" font-family="arial" font-size="14.00">get_next_useragent(): str</text>
</g>
<!-- olivia_finder.myrequests.useragent_handler.UserAgentHandler&#45;&gt;olivia_finder.myrequests.request_handler.RequestHandler -->
<g id="edge14" class="edge">
<title>olivia_finder.myrequests.useragent_handler.UserAgentHandler&#45;&gt;olivia_finder.myrequests.request_handler.RequestHandler</title>
<path fill="none" stroke="black" d="M2555.56,-144.79C2535.86,-163.01 2513.96,-183.27 2492.72,-202.93"/>
<polygon fill="black" stroke="black" points="2492.47,-203.15 2490.79,-210.16 2483.67,-211.3 2485.35,-204.29 2492.47,-203.15"/>
<text text-anchor="middle" x="2586.5" y="-181.8" font-family="arial" font-size="14.00" fill="green">useragents_handler</text>
</g>
<!-- olivia_finder.utilities.util.Util -->
<g id="node24" class="node">
<title>olivia_finder.utilities.util.Util</title>
<polygon fill="cadetblue" stroke="black" points="4669.5,-15.5 4669.5,-144.5 4891.5,-144.5 4891.5,-15.5 4669.5,-15.5"/>
<text text-anchor="middle" x="4780.5" y="-129.3" font-family="arial" font-size="14.00">Util</text>
<polyline fill="none" stroke="black" points="4669.5,-121.5 4891.5,-121.5 "/>
<text text-anchor="start" x="4677.5" y="-106.3" font-family="arial" font-size="14.00">STYLES : dict</text>
<polyline fill="none" stroke="black" points="4669.5,-98.5 4891.5,-98.5 "/>
<text text-anchor="start" x="4677.5" y="-83.3" font-family="arial" font-size="14.00">clean_string(string)</text>
<text text-anchor="start" x="4677.5" y="-68.3" font-family="arial" font-size="14.00">print_colored(text: str, color)</text>
<text text-anchor="start" x="4677.5" y="-53.3" font-family="arial" font-size="14.00">print_styled(text, style)</text>
<text text-anchor="start" x="4677.5" y="-38.3" font-family="arial" font-size="14.00">recommended_threads()</text>
<text text-anchor="start" x="4677.5" y="-23.3" font-family="arial" font-size="14.00">timestamp()</text>
</g>
</g>
</svg>
