<?xml version="1.0" encoding="UTF-8" standalone="no"?>
<!DOCTYPE svg PUBLIC "-//W3C//DTD SVG 1.1//EN"
 "http://www.w3.org/Graphics/SVG/1.1/DTD/svg11.dtd">
<!-- Generated by graphviz version 2.43.0 (0)
 -->
<!-- Title: classes_olivia_finder Pages: 1 -->
<svg width="5832pt" height="1415pt"
 viewBox="0.00 0.00 5831.50 1414.80" xmlns="http://www.w3.org/2000/svg" xmlns:xlink="http://www.w3.org/1999/xlink">
<g id="graph0" class="graph" transform="scale(1 1) rotate(0) translate(4 1410.8)">
<title>classes_olivia_finder</title>
<polygon fill="white" stroke="transparent" points="-4,4 -4,-1410.8 5827.5,-1410.8 5827.5,4 -4,4"/>
<!-- olivia_finder.data_source.scrapers.bioconductor.BiocScraper -->
<g id="node1" class="node">
<title>olivia_finder.data_source.scrapers.bioconductor.BiocScraper</title>
<polygon fill="none" stroke="black" points="1384,-23 1384,-137 1719,-137 1719,-23 1384,-23"/>
<text text-anchor="start" x="1507.5" y="-121.8" font-family="Times,serif" font-size="14.00">BiocScraper</text>
<polyline fill="none" stroke="black" points="1384,-114 1719,-114 "/>
<text text-anchor="start" x="1392" y="-98.8" font-family="Times,serif" font-size="14.00">BIOCONDUCTOR_LIST_URL : str</text>
<text text-anchor="start" x="1392" y="-83.8" font-family="Times,serif" font-size="14.00">BIOCONDUCTOR_PACKAGE_DATA_URL : str</text>
<text text-anchor="start" x="1392" y="-68.8" font-family="Times,serif" font-size="14.00">DESCRIPTION : str</text>
<text text-anchor="start" x="1392" y="-53.8" font-family="Times,serif" font-size="14.00">NAME : str</text>
<polyline fill="none" stroke="black" points="1384,-46 1719,-46 "/>
<text text-anchor="start" x="1431" y="-30.8" font-family="Times,serif" font-size="14.00">obtain_package_names(): List[str]</text>
</g>
<!-- olivia_finder.data_source.csv_network.CSVNetwork -->
<g id="node2" class="node">
<title>olivia_finder.data_source.csv_network.CSVNetwork</title>
<polygon fill="none" stroke="black" points="440,-721.5 440,-955.5 1233,-955.5 1233,-721.5 440,-721.5"/>
<text text-anchor="start" x="790.5" y="-940.3" font-family="Times,serif" font-size="14.00">CSVNetwork</text>
<polyline fill="none" stroke="black" points="440,-932.5 1233,-932.5 "/>
<text text-anchor="start" x="674" y="-917.3" font-family="Times,serif" font-size="14.00">data : NoneType, DataFrame, TextFileReader</text>
<text text-anchor="start" x="674" y="-902.3" font-family="Times,serif" font-size="14.00">dependency_field : Optional[str]</text>
<text text-anchor="start" x="674" y="-887.3" font-family="Times,serif" font-size="14.00">dependency_version_field : Optional[str]</text>
<text text-anchor="start" x="674" y="-872.3" font-family="Times,serif" font-size="14.00">dependent_field : Optional[str]</text>
<text text-anchor="start" x="674" y="-857.3" font-family="Times,serif" font-size="14.00">dependent_url_field : Optional[str]</text>
<text text-anchor="start" x="674" y="-842.3" font-family="Times,serif" font-size="14.00">dependent_version_field : Optional[str]</text>
<text text-anchor="start" x="674" y="-827.3" font-family="Times,serif" font-size="14.00">description : Optional[str]</text>
<text text-anchor="start" x="674" y="-812.3" font-family="Times,serif" font-size="14.00">name : Optional[str]</text>
<polyline fill="none" stroke="black" points="440,-804.5 1233,-804.5 "/>
<text text-anchor="start" x="448" y="-789.3" font-family="Times,serif" font-size="14.00">get_info()</text>
<text text-anchor="start" x="448" y="-774.3" font-family="Times,serif" font-size="14.00">load_data(file_path: str)</text>
<text text-anchor="start" x="448" y="-759.3" font-family="Times,serif" font-size="14.00">obtain_package_data(package_name: str, override_previous: Optional[bool]): Dict</text>
<text text-anchor="start" x="448" y="-744.3" font-family="Times,serif" font-size="14.00">obtain_package_names(): List[str]</text>
<text text-anchor="start" x="448" y="-729.3" font-family="Times,serif" font-size="14.00">obtain_packages_data(package_name_list: Optional[List[str]], progress_bar: Optional[tqdm.tqdm]): List[Dict]</text>
</g>
<!-- olivia_finder.data_source.data_source_abc.DataSourceABC -->
<g id="node5" class="node">
<title>olivia_finder.data_source.data_source_abc.DataSourceABC</title>
<polygon fill="none" stroke="black" points="737,-993.5 737,-1105.3 960,-1105.3 960,-993.5 737,-993.5"/>
<text text-anchor="start" x="791" y="-1090.1" font-family="Times,serif" font-size="14.00">DataSourceABC</text>
<polyline fill="none" stroke="black" points="737,-1082.3 960,-1082.3 "/>
<polyline fill="none" stroke="black" points="737,-1057.5 960,-1057.5 "/>
<text text-anchor="start" x="745" y="-1043.3" font-family="Times,serif" font-style="italic" font-size="14.00">get_info</text>
<text text-anchor="start" x="803" y="-1043.3" font-family="Times,serif" font-size="14.00">(): dict</text>
<text text-anchor="start" x="745" y="-1029.3" font-family="Times,serif" font-style="italic" font-size="14.00">obtain_package_data</text>
<text text-anchor="start" x="894" y="-1029.3" font-family="Times,serif" font-size="14.00">(): dict</text>
<text text-anchor="start" x="745" y="-1015.3" font-family="Times,serif" font-style="italic" font-size="14.00">obtain_package_names</text>
<text text-anchor="start" x="909" y="-1015.3" font-family="Times,serif" font-size="14.00">(): list</text>
<text text-anchor="start" x="745" y="-1001.3" font-family="Times,serif" font-style="italic" font-size="14.00">obtain_packages_data</text>
<text text-anchor="start" x="902" y="-1001.3" font-family="Times,serif" font-size="14.00">(): list</text>
</g>
<!-- olivia_finder.data_source.csv_network.CSVNetwork&#45;&gt;olivia_finder.data_source.data_source_abc.DataSourceABC -->
<g id="edge1" class="edge">
<title>olivia_finder.data_source.csv_network.CSVNetwork&#45;&gt;olivia_finder.data_source.data_source_abc.DataSourceABC</title>
<path fill="none" stroke="black" d="M843.17,-955.56C843.71,-965.01 844.25,-974.33 844.76,-983.21"/>
<polygon fill="none" stroke="black" points="841.27,-983.62 845.34,-993.41 848.26,-983.22 841.27,-983.62"/>
</g>
<!-- olivia_finder.util.config_ini.Configuration -->
<g id="node3" class="node">
<title>olivia_finder.util.config_ini.Configuration</title>
<polygon fill="none" stroke="black" points="2354.5,-44.6 2354.5,-115.4 2578.5,-115.4 2578.5,-44.6 2354.5,-44.6"/>
<text text-anchor="start" x="2417.5" y="-100.2" font-family="Times,serif" font-size="14.00">Configuration</text>
<polyline fill="none" stroke="black" points="2354.5,-92.4 2578.5,-92.4 "/>
<polyline fill="none" stroke="black" points="2354.5,-67.6 2578.5,-67.6 "/>
<text text-anchor="start" x="2362.5" y="-52.4" font-family="Times,serif" font-size="14.00">get_key(section: str, key: str)</text>
</g>
<!-- olivia_finder.data_source.scrapers.cran.CranScraper -->
<g id="node4" class="node">
<title>olivia_finder.data_source.scrapers.cran.CranScraper</title>
<polygon fill="none" stroke="black" points="2597,-23 2597,-137 2854,-137 2854,-23 2597,-23"/>
<text text-anchor="start" x="2680" y="-121.8" font-family="Times,serif" font-size="14.00">CranScraper</text>
<polyline fill="none" stroke="black" points="2597,-114 2854,-114 "/>
<text text-anchor="start" x="2607" y="-98.8" font-family="Times,serif" font-size="14.00">CRAN_PACKAGE_DATA_URL : str</text>
<text text-anchor="start" x="2607" y="-83.8" font-family="Times,serif" font-size="14.00">CRAN_PACKAGE_LIST_URL : str</text>
<text text-anchor="start" x="2607" y="-68.8" font-family="Times,serif" font-size="14.00">DESCRIPTION : str</text>
<text text-anchor="start" x="2607" y="-53.8" font-family="Times,serif" font-size="14.00">NAME : str</text>
<polyline fill="none" stroke="black" points="2597,-46 2854,-46 "/>
<text text-anchor="start" x="2605" y="-30.8" font-family="Times,serif" font-size="14.00">obtain_package_names(): List[str]</text>
</g>
<!-- olivia_finder.package_manager.PackageManager -->
<g id="node10" class="node">
<title>olivia_finder.package_manager.PackageManager</title>
<polygon fill="none" stroke="black" points="0,-1157.3 0,-1406.3 1697,-1406.3 1697,-1157.3 0,-1157.3"/>
<text text-anchor="start" x="787" y="-1391.1" font-family="Times,serif" font-size="14.00">PackageManager</text>
<polyline fill="none" stroke="black" points="0,-1383.3 1697,-1383.3 "/>
<text text-anchor="start" x="745.5" y="-1368.1" font-family="Times,serif" font-size="14.00">data_source</text>
<text text-anchor="start" x="745.5" y="-1353.1" font-family="Times,serif" font-size="14.00">data_source</text>
<text text-anchor="start" x="745.5" y="-1338.1" font-family="Times,serif" font-size="14.00">packages : Dict[str, Package]</text>
<text text-anchor="start" x="745.5" y="-1323.1" font-family="Times,serif" font-size="14.00">packages : dict</text>
<polyline fill="none" stroke="black" points="0,-1315.3 1697,-1315.3 "/>
<text text-anchor="start" x="8" y="-1300.1" font-family="Times,serif" font-size="14.00">export_adjlist(): pd.DataFrame</text>
<text text-anchor="start" x="8" y="-1285.1" font-family="Times,serif" font-size="14.00">export_full_adjlist(): pd.DataFrame</text>
<text text-anchor="start" x="8" y="-1270.1" font-family="Times,serif" font-size="14.00">get_package(package_name: str): Union[Package, None]</text>
<text text-anchor="start" x="8" y="-1255.1" font-family="Times,serif" font-size="14.00">get_package_list(): List[Package]</text>
<text text-anchor="start" x="8" y="-1240.1" font-family="Times,serif" font-size="14.00">get_package_names(): List[str]</text>
<text text-anchor="start" x="8" y="-1225.1" font-family="Times,serif" font-size="14.00">load(path: str)</text>
<text text-anchor="start" x="8" y="-1210.1" font-family="Times,serif" font-size="14.00">load_csv_adjlist(csv_path: str, dependent_field: Optional[str], dependency_field: Optional[str], version_field: Optional[str], dependency_version_field: Optional[str], url_field: Optional[str], default_format: Optional[bool]): PackageManager</text>
<text text-anchor="start" x="8" y="-1195.1" font-family="Times,serif" font-size="14.00">obtain_package(package_name: str): Union[Package, None]</text>
<text text-anchor="start" x="8" y="-1180.1" font-family="Times,serif" font-size="14.00">obtain_packages(package_names: Optional[List[str]], extend: Optional[bool], show_progress: Optional[bool]): List[Package]</text>
<text text-anchor="start" x="8" y="-1165.1" font-family="Times,serif" font-size="14.00">save(path: str)</text>
</g>
<!-- olivia_finder.data_source.data_source_abc.DataSourceABC&#45;&gt;olivia_finder.package_manager.PackageManager -->
<g id="edge8" class="edge">
<title>olivia_finder.data_source.data_source_abc.DataSourceABC&#45;&gt;olivia_finder.package_manager.PackageManager</title>
<path fill="none" stroke="black" d="M803.57,-1105.35C800.32,-1111.32 797.53,-1117.52 795.5,-1123.8 793.26,-1130.73 791.98,-1137.82 791.5,-1144.97"/>
<polygon fill="black" stroke="black" points="791.49,-1145.06 795.45,-1151.09 791.4,-1157.06 787.45,-1151.03 791.49,-1145.06"/>
<text text-anchor="middle" x="838.5" y="-1127.6" font-family="Times,serif" font-size="14.00" fill="green">data_source</text>
</g>
<!-- olivia_finder.data_source.data_source_abc.DataSourceABC&#45;&gt;olivia_finder.package_manager.PackageManager -->
<g id="edge14" class="edge">
<title>olivia_finder.data_source.data_source_abc.DataSourceABC&#45;&gt;olivia_finder.package_manager.PackageManager</title>
<path fill="none" stroke="black" d="M876.26,-1105.67C878.39,-1111.68 880.21,-1117.79 881.5,-1123.8 882.98,-1130.69 883.84,-1137.75 884.2,-1144.89"/>
<polygon fill="none" stroke="black" points="884.2,-1144.94 888.27,-1150.9 884.34,-1156.94 880.27,-1150.99 884.2,-1144.94"/>
<text text-anchor="middle" x="927.5" y="-1127.6" font-family="Times,serif" font-size="14.00" fill="green">data_source</text>
</g>
<!-- olivia_finder.myrequests.proxy_builder.FreeProxyList -->
<g id="node6" class="node">
<title>olivia_finder.myrequests.proxy_builder.FreeProxyList</title>
<polygon fill="none" stroke="black" points="2872.5,-45.5 2872.5,-114.5 2990.5,-114.5 2990.5,-45.5 2872.5,-45.5"/>
<text text-anchor="start" x="2880.5" y="-99.3" font-family="Times,serif" font-size="14.00">FreeProxyList</text>
<polyline fill="none" stroke="black" points="2872.5,-91.5 2990.5,-91.5 "/>
<text text-anchor="start" x="2898.5" y="-76.3" font-family="Times,serif" font-size="14.00">URL : str</text>
<polyline fill="none" stroke="black" points="2872.5,-68.5 2990.5,-68.5 "/>
<text text-anchor="start" x="2929" y="-53.3" font-family="Times,serif" font-size="14.00"> </text>
</g>
<!-- olivia_finder.myrequests.proxy_builder.ProxyBuilder -->
<g id="node12" class="node">
<title>olivia_finder.myrequests.proxy_builder.ProxyBuilder</title>
<polygon fill="none" stroke="black" points="2970,-324 2970,-408 3167,-408 3167,-324 2970,-324"/>
<text text-anchor="start" x="3021.5" y="-392.8" font-family="Times,serif" font-size="14.00">ProxyBuilder</text>
<polyline fill="none" stroke="black" points="2970,-385 3167,-385 "/>
<text text-anchor="start" x="2978" y="-369.8" font-family="Times,serif" font-size="14.00">DEFAULT_TIMEOUT : int</text>
<text text-anchor="start" x="2978" y="-354.8" font-family="Times,serif" font-size="14.00">proxy_list_timeout : int</text>
<polyline fill="none" stroke="black" points="2970,-347 3167,-347 "/>
<text text-anchor="start" x="2988.5" y="-331.8" font-family="Times,serif" font-size="14.00">get_proxies(): List[str]</text>
</g>
<!-- olivia_finder.myrequests.proxy_builder.FreeProxyList&#45;&gt;olivia_finder.myrequests.proxy_builder.ProxyBuilder -->
<g id="edge5" class="edge">
<title>olivia_finder.myrequests.proxy_builder.FreeProxyList&#45;&gt;olivia_finder.myrequests.proxy_builder.ProxyBuilder</title>
<path fill="none" stroke="black" d="M2947.75,-114.69C2971.59,-164.1 3016.2,-256.59 3044.02,-314.25"/>
<polygon fill="none" stroke="black" points="3041,-316.05 3048.5,-323.54 3047.31,-313.01 3041,-316.05"/>
</g>
<!-- olivia_finder.myrequests.proxy_builder.GeonodeProxy -->
<g id="node7" class="node">
<title>olivia_finder.myrequests.proxy_builder.GeonodeProxy</title>
<polygon fill="none" stroke="black" points="3008.5,-45.5 3008.5,-114.5 3128.5,-114.5 3128.5,-45.5 3008.5,-45.5"/>
<text text-anchor="start" x="3016.5" y="-99.3" font-family="Times,serif" font-size="14.00">GeonodeProxy</text>
<polyline fill="none" stroke="black" points="3008.5,-91.5 3128.5,-91.5 "/>
<text text-anchor="start" x="3035.5" y="-76.3" font-family="Times,serif" font-size="14.00">URL : str</text>
<polyline fill="none" stroke="black" points="3008.5,-68.5 3128.5,-68.5 "/>
<text text-anchor="start" x="3066" y="-53.3" font-family="Times,serif" font-size="14.00"> </text>
</g>
<!-- olivia_finder.myrequests.proxy_builder.GeonodeProxy&#45;&gt;olivia_finder.myrequests.proxy_builder.ProxyBuilder -->
<g id="edge6" class="edge">
<title>olivia_finder.myrequests.proxy_builder.GeonodeProxy&#45;&gt;olivia_finder.myrequests.proxy_builder.ProxyBuilder</title>
<path fill="none" stroke="black" d="M3068.5,-114.69C3068.5,-163.9 3068.5,-255.82 3068.5,-313.53"/>
<polygon fill="none" stroke="black" points="3065,-313.54 3068.5,-323.54 3072,-313.54 3065,-313.54"/>
</g>
<!-- olivia_finder.data_source.scrapers.npm.NpmScraper -->
<g id="node8" class="node">
<title>olivia_finder.data_source.scrapers.npm.NpmScraper</title>
<polygon fill="none" stroke="black" points="3262.5,-8 3262.5,-152 4160.5,-152 4160.5,-8 3262.5,-8"/>
<text text-anchor="start" x="3666" y="-136.8" font-family="Times,serif" font-size="14.00">NpmScraper</text>
<polyline fill="none" stroke="black" points="3262.5,-129 4160.5,-129 "/>
<text text-anchor="start" x="3578" y="-113.8" font-family="Times,serif" font-size="14.00">DESCRIPTION : str</text>
<text text-anchor="start" x="3578" y="-98.8" font-family="Times,serif" font-size="14.00">NAME : str</text>
<text text-anchor="start" x="3578" y="-83.8" font-family="Times,serif" font-size="14.00">NPM_PACKAGE_LIST_URL : str</text>
<text text-anchor="start" x="3578" y="-68.8" font-family="Times,serif" font-size="14.00">NPM_PACKAGE_REGISTRY_URL : str</text>
<text text-anchor="start" x="3578" y="-53.8" font-family="Times,serif" font-size="14.00">NPM_REPO_URL : str</text>
<text text-anchor="start" x="3578" y="-38.8" font-family="Times,serif" font-size="14.00">chunks_folder</text>
<polyline fill="none" stroke="black" points="3262.5,-31 4160.5,-31 "/>
<text text-anchor="start" x="3270.5" y="-15.8" font-family="Times,serif" font-size="14.00">obtain_package_names(page_size: Optional[int], save_chunks: Optional[bool], show_progress_bar: Optional[bool]): List[dict]</text>
</g>
<!-- olivia_finder.package.Package -->
<g id="node9" class="node">
<title>olivia_finder.package.Package</title>
<polygon fill="none" stroke="black" points="4179,-0.5 4179,-159.5 4500,-159.5 4500,-0.5 4179,-0.5"/>
<text text-anchor="start" x="4310" y="-144.3" font-family="Times,serif" font-size="14.00">Package</text>
<polyline fill="none" stroke="black" points="4179,-136.5 4500,-136.5 "/>
<text text-anchor="start" x="4187" y="-121.3" font-family="Times,serif" font-size="14.00">dependencies : Optional[list[Package]], set</text>
<text text-anchor="start" x="4187" y="-106.3" font-family="Times,serif" font-size="14.00">name : str</text>
<text text-anchor="start" x="4187" y="-91.3" font-family="Times,serif" font-size="14.00">url : Optional[str]</text>
<text text-anchor="start" x="4187" y="-76.3" font-family="Times,serif" font-size="14.00">version : Optional[str]</text>
<polyline fill="none" stroke="black" points="4179,-68.5 4500,-68.5 "/>
<text text-anchor="start" x="4275.5" y="-53.3" font-family="Times,serif" font-size="14.00">load(data: dict)</text>
<text text-anchor="start" x="4275.5" y="-38.3" font-family="Times,serif" font-size="14.00">print()</text>
<text text-anchor="start" x="4275.5" y="-23.3" font-family="Times,serif" font-size="14.00">to_dict()</text>
<text text-anchor="start" x="4275.5" y="-8.3" font-family="Times,serif" font-size="14.00">update(data: dict)</text>
</g>
<!-- olivia_finder.package_manager.PackageManagerLoadError -->
<g id="node11" class="node">
<title>olivia_finder.package_manager.PackageManagerLoadError</title>
<polygon fill="none" stroke="black" points="4518.5,-45.5 4518.5,-114.5 4730.5,-114.5 4730.5,-45.5 4518.5,-45.5"/>
<text text-anchor="start" x="4526.5" y="-99.3" font-family="Times,serif" font-size="14.00" fill="red">PackageManagerLoadError</text>
<polyline fill="none" stroke="black" points="4518.5,-91.5 4730.5,-91.5 "/>
<text text-anchor="start" x="4593" y="-76.3" font-family="Times,serif" font-size="14.00" fill="red">message</text>
<polyline fill="none" stroke="black" points="4518.5,-68.5 4730.5,-68.5 "/>
<text text-anchor="start" x="4622" y="-53.3" font-family="Times,serif" font-size="14.00" fill="red"> </text>
</g>
<!-- olivia_finder.myrequests.proxy_handler.ProxyHandler -->
<g id="node13" class="node">
<title>olivia_finder.myrequests.proxy_handler.ProxyHandler</title>
<polygon fill="none" stroke="black" points="1737,-0.5 1737,-159.5 2004,-159.5 2004,-0.5 1737,-0.5"/>
<text text-anchor="start" x="1820.5" y="-144.3" font-family="Times,serif" font-size="14.00">ProxyHandler</text>
<polyline fill="none" stroke="black" points="1737,-136.5 2004,-136.5 "/>
<text text-anchor="start" x="1745" y="-121.3" font-family="Times,serif" font-size="14.00">PROXY_MAX_USES : Optional[int]</text>
<text text-anchor="start" x="1745" y="-106.3" font-family="Times,serif" font-size="14.00">PROXY_MAX_USES : int</text>
<text text-anchor="start" x="1745" y="-91.3" font-family="Times,serif" font-size="14.00">proxy_builders : List[ProxyBuilder]</text>
<text text-anchor="start" x="1745" y="-76.3" font-family="Times,serif" font-size="14.00">proxy_builders : list</text>
<text text-anchor="start" x="1745" y="-61.3" font-family="Times,serif" font-size="14.00">proxy_list : List[str]</text>
<text text-anchor="start" x="1745" y="-46.3" font-family="Times,serif" font-size="14.00">proxy_list : list</text>
<text text-anchor="start" x="1745" y="-31.3" font-family="Times,serif" font-size="14.00">proxy_uses : dict</text>
<polyline fill="none" stroke="black" points="1737,-23.5 2004,-23.5 "/>
<text text-anchor="start" x="1747" y="-8.3" font-family="Times,serif" font-size="14.00">get_next_proxy(): Union[str, None]</text>
</g>
<!-- olivia_finder.myrequests.request_handler.RequestHandler -->
<g id="node17" class="node">
<title>olivia_finder.myrequests.request_handler.RequestHandler</title>
<polygon fill="none" stroke="black" points="1453,-211.5 1453,-520.5 2594,-520.5 2594,-211.5 1453,-211.5"/>
<text text-anchor="start" x="1965" y="-505.3" font-family="Times,serif" font-size="14.00">RequestHandler</text>
<polyline fill="none" stroke="black" points="1453,-497.5 2594,-497.5 "/>
<text text-anchor="start" x="1877.5" y="-482.3" font-family="Times,serif" font-size="14.00">LOCK</text>
<text text-anchor="start" x="1877.5" y="-467.3" font-family="Times,serif" font-size="14.00">LOCK : lock</text>
<text text-anchor="start" x="1877.5" y="-452.3" font-family="Times,serif" font-size="14.00">NUM_PROCESSES : int</text>
<text text-anchor="start" x="1877.5" y="-437.3" font-family="Times,serif" font-size="14.00">NUM_PROCESSES : int</text>
<text text-anchor="start" x="1877.5" y="-422.3" font-family="Times,serif" font-size="14.00">REQUEST_MAX_RETRIES : Optional[int]</text>
<text text-anchor="start" x="1877.5" y="-407.3" font-family="Times,serif" font-size="14.00">REQUEST_MAX_RETRIES : int</text>
<text text-anchor="start" x="1877.5" y="-392.3" font-family="Times,serif" font-size="14.00">REQUEST_TIMEOUT : Optional[int]</text>
<text text-anchor="start" x="1877.5" y="-377.3" font-family="Times,serif" font-size="14.00">REQUEST_TIMEOUT : int</text>
<text text-anchor="start" x="1877.5" y="-362.3" font-family="Times,serif" font-size="14.00">current_proxy_index : int</text>
<text text-anchor="start" x="1877.5" y="-347.3" font-family="Times,serif" font-size="14.00">current_proxy_index : int</text>
<text text-anchor="start" x="1877.5" y="-332.3" font-family="Times,serif" font-size="14.00">current_useragent_index : int</text>
<text text-anchor="start" x="1877.5" y="-317.3" font-family="Times,serif" font-size="14.00">current_useragent_index : int</text>
<text text-anchor="start" x="1877.5" y="-302.3" font-family="Times,serif" font-size="14.00">proxy_handler</text>
<text text-anchor="start" x="1877.5" y="-287.3" font-family="Times,serif" font-size="14.00">proxy_handler : NoneType</text>
<text text-anchor="start" x="1877.5" y="-272.3" font-family="Times,serif" font-size="14.00">useragents_handler</text>
<text text-anchor="start" x="1877.5" y="-257.3" font-family="Times,serif" font-size="14.00">useragents_handler : NoneType</text>
<polyline fill="none" stroke="black" points="1453,-249.5 2594,-249.5 "/>
<text text-anchor="start" x="1461" y="-234.3" font-family="Times,serif" font-size="14.00">do_parallel_requests(url_list: List[str], param_list: Optional[List[dict]], progress_bar: Optional[tqdm.tqdm]): List[Union[Tuple[str, requests.Response], None]]</text>
<text text-anchor="start" x="1461" y="-219.3" font-family="Times,serif" font-size="14.00">do_request(url: str, params: dict): Union[Tuple[str, requests.Response], None]</text>
</g>
<!-- olivia_finder.myrequests.proxy_handler.ProxyHandler&#45;&gt;olivia_finder.myrequests.request_handler.RequestHandler -->
<g id="edge9" class="edge">
<title>olivia_finder.myrequests.proxy_handler.ProxyHandler&#45;&gt;olivia_finder.myrequests.request_handler.RequestHandler</title>
<path fill="none" stroke="black" d="M1831.45,-159.55C1829.96,-170.93 1830.82,-182.37 1835.5,-193 1836.62,-195.55 1837.8,-198.08 1839.04,-200.58"/>
<polygon fill="black" stroke="black" points="1839.17,-200.83 1845.52,-204.25 1844.8,-211.43 1838.46,-208.01 1839.17,-200.83"/>
<text text-anchor="middle" x="1887" y="-181.8" font-family="Times,serif" font-size="14.00" fill="green">proxy_handler</text>
</g>
<!-- olivia_finder.myrequests.proxy_handler.ProxyHandler&#45;&gt;olivia_finder.myrequests.request_handler.RequestHandler -->
<g id="edge10" class="edge">
<title>olivia_finder.myrequests.proxy_handler.ProxyHandler&#45;&gt;olivia_finder.myrequests.request_handler.RequestHandler</title>
<path fill="none" stroke="black" d="M1927.4,-159.62C1931.28,-165.76 1935.03,-171.93 1938.5,-178 1942.65,-185.26 1946.75,-192.76 1950.78,-200.39"/>
<polygon fill="black" stroke="black" points="1950.89,-200.62 1957.21,-204.1 1956.42,-211.27 1950.11,-207.78 1950.89,-200.62"/>
<text text-anchor="middle" x="1999" y="-181.8" font-family="Times,serif" font-size="14.00" fill="green">proxy_handler</text>
</g>
<!-- olivia_finder.data_source.scrapers.pypi.PypiScraper -->
<g id="node14" class="node">
<title>olivia_finder.data_source.scrapers.pypi.PypiScraper</title>
<polygon fill="none" stroke="black" points="4749,-23 4749,-137 5006,-137 5006,-23 4749,-23"/>
<text text-anchor="start" x="4833.5" y="-121.8" font-family="Times,serif" font-size="14.00">PypiScraper</text>
<polyline fill="none" stroke="black" points="4749,-114 5006,-114 "/>
<text text-anchor="start" x="4763.5" y="-98.8" font-family="Times,serif" font-size="14.00">DESCRIPTION : str</text>
<text text-anchor="start" x="4763.5" y="-83.8" font-family="Times,serif" font-size="14.00">NAME : str</text>
<text text-anchor="start" x="4763.5" y="-68.8" font-family="Times,serif" font-size="14.00">PYPI_PACKAGE_DATA_URL : str</text>
<text text-anchor="start" x="4763.5" y="-53.8" font-family="Times,serif" font-size="14.00">PYPI_PACKAGE_LIST_URL : str</text>
<polyline fill="none" stroke="black" points="4749,-46 5006,-46 "/>
<text text-anchor="start" x="4757" y="-30.8" font-family="Times,serif" font-size="14.00">obtain_package_names(): List[str]</text>
</g>
<!-- olivia_finder.data_source.scrapers.r.RScraper -->
<g id="node15" class="node">
<title>olivia_finder.data_source.scrapers.r.RScraper</title>
<polygon fill="none" stroke="black" points="1352,-330.6 1352,-401.4 1435,-401.4 1435,-330.6 1352,-330.6"/>
<text text-anchor="start" x="1360" y="-386.2" font-family="Times,serif" font-size="14.00">RScraper</text>
<polyline fill="none" stroke="black" points="1352,-378.4 1435,-378.4 "/>
<polyline fill="none" stroke="black" points="1352,-353.6 1435,-353.6 "/>
<text text-anchor="start" x="1391" y="-338.4" font-family="Times,serif" font-size="14.00"> </text>
</g>
<!-- olivia_finder.data_source.scraper.Scraper -->
<g id="node19" class="node">
<title>olivia_finder.data_source.scraper.Scraper</title>
<polygon fill="none" stroke="black" points="843,-572.5 843,-683.5 1976,-683.5 1976,-572.5 843,-572.5"/>
<text text-anchor="start" x="1381" y="-668.3" font-family="Times,serif" font-size="14.00">Scraper</text>
<polyline fill="none" stroke="black" points="843,-660.5 1976,-660.5 "/>
<text text-anchor="start" x="1351" y="-645.3" font-family="Times,serif" font-size="14.00">not_found : list</text>
<text text-anchor="start" x="1351" y="-630.3" font-family="Times,serif" font-size="14.00">request_handler</text>
<polyline fill="none" stroke="black" points="843,-622.5 1976,-622.5 "/>
<text text-anchor="start" x="851" y="-608.3" font-family="Times,serif" font-size="14.00">obtain_package_data(package_name: str, override_previous: Optional[bool]): Dict</text>
<text text-anchor="start" x="851" y="-594.3" font-family="Times,serif" font-style="italic" font-size="14.00">obtain_package_names</text>
<text text-anchor="start" x="1015" y="-594.3" font-family="Times,serif" font-size="14.00">(): List[str]</text>
<text text-anchor="start" x="851" y="-580.3" font-family="Times,serif" font-size="14.00">obtain_packages_data(package_names: Optional[List[str]], progress_bar: Optional[tqdm.tqdm], from_data_source: Optional[bool]): Tuple[List[Dict], List[str]]</text>
</g>
<!-- olivia_finder.data_source.scrapers.r.RScraper&#45;&gt;olivia_finder.data_source.scraper.Scraper -->
<g id="edge4" class="edge">
<title>olivia_finder.data_source.scrapers.r.RScraper&#45;&gt;olivia_finder.data_source.scraper.Scraper</title>
<path fill="none" stroke="black" d="M1395.62,-401.53C1398.14,-442.36 1402.37,-511.21 1405.51,-562.11"/>
<polygon fill="none" stroke="black" points="1402.03,-562.6 1406.14,-572.36 1409.02,-562.17 1402.03,-562.6"/>
</g>
<!-- olivia_finder.myrequests.request_handler.RequestError -->
<g id="node16" class="node">
<title>olivia_finder.myrequests.request_handler.RequestError</title>
<polygon fill="none" stroke="black" points="5024.5,-45.5 5024.5,-114.5 5138.5,-114.5 5138.5,-45.5 5024.5,-45.5"/>
<text text-anchor="start" x="5032.5" y="-99.3" font-family="Times,serif" font-size="14.00" fill="red">RequestError</text>
<polyline fill="none" stroke="black" points="5024.5,-91.5 5138.5,-91.5 "/>
<text text-anchor="start" x="5050" y="-76.3" font-family="Times,serif" font-size="14.00" fill="red">message</text>
<polyline fill="none" stroke="black" points="5024.5,-68.5 5138.5,-68.5 "/>
<text text-anchor="start" x="5079" y="-53.3" font-family="Times,serif" font-size="14.00" fill="red"> </text>
</g>
<!-- olivia_finder.myrequests.request_handler.RequestHandler&#45;&gt;olivia_finder.data_source.scraper.Scraper -->
<g id="edge11" class="edge">
<title>olivia_finder.myrequests.request_handler.RequestHandler&#45;&gt;olivia_finder.data_source.scraper.Scraper</title>
<path fill="none" stroke="black" d="M1660.57,-520.69C1621.43,-537.26 1583.55,-553.3 1549.58,-567.68"/>
<polygon fill="black" stroke="black" points="1549.27,-567.81 1545.31,-573.84 1538.22,-572.49 1542.19,-566.47 1549.27,-567.81"/>
<text text-anchor="middle" x="1667" y="-542.8" font-family="Times,serif" font-size="14.00" fill="green">request_handler</text>
</g>
<!-- olivia_finder.myrequests.proxy_builder.SSLProxies -->
<g id="node18" class="node">
<title>olivia_finder.myrequests.proxy_builder.SSLProxies</title>
<polygon fill="none" stroke="black" points="3146.5,-45.5 3146.5,-114.5 3244.5,-114.5 3244.5,-45.5 3146.5,-45.5"/>
<text text-anchor="start" x="3154.5" y="-99.3" font-family="Times,serif" font-size="14.00">SSLProxies</text>
<polyline fill="none" stroke="black" points="3146.5,-91.5 3244.5,-91.5 "/>
<text text-anchor="start" x="3162.5" y="-76.3" font-family="Times,serif" font-size="14.00">URL : str</text>
<polyline fill="none" stroke="black" points="3146.5,-68.5 3244.5,-68.5 "/>
<text text-anchor="start" x="3193" y="-53.3" font-family="Times,serif" font-size="14.00"> </text>
</g>
<!-- olivia_finder.myrequests.proxy_builder.SSLProxies&#45;&gt;olivia_finder.myrequests.proxy_builder.ProxyBuilder -->
<g id="edge7" class="edge">
<title>olivia_finder.myrequests.proxy_builder.SSLProxies&#45;&gt;olivia_finder.myrequests.proxy_builder.ProxyBuilder</title>
<path fill="none" stroke="black" d="M3180.43,-114.69C3158.34,-164.1 3116.98,-256.59 3091.2,-314.25"/>
<polygon fill="none" stroke="black" points="3087.93,-312.98 3087.04,-323.54 3094.32,-315.84 3087.93,-312.98"/>
</g>
<!-- olivia_finder.data_source.scraper_abc.ScraperABC -->
<g id="node20" class="node">
<title>olivia_finder.data_source.scraper_abc.ScraperABC</title>
<polygon fill="none" stroke="black" points="1250.5,-789.6 1250.5,-887.4 1568.5,-887.4 1568.5,-789.6 1250.5,-789.6"/>
<text text-anchor="start" x="1365.5" y="-872.2" font-family="Times,serif" font-size="14.00">ScraperABC</text>
<polyline fill="none" stroke="black" points="1250.5,-864.4 1568.5,-864.4 "/>
<polyline fill="none" stroke="black" points="1250.5,-839.6 1568.5,-839.6 "/>
<text text-anchor="start" x="1258.5" y="-825.4" font-family="Times,serif" font-style="italic" font-size="14.00">obtain_package_data</text>
<text text-anchor="start" x="1407.5" y="-825.4" font-family="Times,serif" font-size="14.00">(): Dict[str, str]</text>
<text text-anchor="start" x="1258.5" y="-811.4" font-family="Times,serif" font-style="italic" font-size="14.00">obtain_package_names</text>
<text text-anchor="start" x="1422.5" y="-811.4" font-family="Times,serif" font-size="14.00">(): List[str]</text>
<text text-anchor="start" x="1258.5" y="-797.4" font-family="Times,serif" font-style="italic" font-size="14.00">obtain_packages_data</text>
<text text-anchor="start" x="1415.5" y="-797.4" font-family="Times,serif" font-size="14.00">(): List[Dict[str, str]]</text>
</g>
<!-- olivia_finder.data_source.scraper.Scraper&#45;&gt;olivia_finder.data_source.scraper_abc.ScraperABC -->
<g id="edge2" class="edge">
<title>olivia_finder.data_source.scraper.Scraper&#45;&gt;olivia_finder.data_source.scraper_abc.ScraperABC</title>
<path fill="none" stroke="black" d="M1409.5,-683.51C1409.5,-712.87 1409.5,-749.1 1409.5,-779.04"/>
<polygon fill="none" stroke="black" points="1406,-779.35 1409.5,-789.35 1413,-779.35 1406,-779.35"/>
</g>
<!-- olivia_finder.data_source.scraper_abc.ScraperABC&#45;&gt;olivia_finder.data_source.data_source_abc.DataSourceABC -->
<g id="edge3" class="edge">
<title>olivia_finder.data_source.scraper_abc.ScraperABC&#45;&gt;olivia_finder.data_source.data_source_abc.DataSourceABC</title>
<path fill="none" stroke="black" d="M1351.73,-887.67C1320.74,-911.34 1280.9,-938.47 1241.5,-956 1154.76,-994.59 1049.78,-1018.21 970.15,-1031.9"/>
<polygon fill="none" stroke="black" points="969.35,-1028.49 960.08,-1033.61 970.52,-1035.39 969.35,-1028.49"/>
</g>
<!-- olivia_finder.data_source.scraper.ScraperError -->
<g id="node21" class="node">
<title>olivia_finder.data_source.scraper.ScraperError</title>
<polygon fill="none" stroke="black" points="5157,-45.5 5157,-114.5 5270,-114.5 5270,-45.5 5157,-45.5"/>
<text text-anchor="start" x="5165.5" y="-99.3" font-family="Times,serif" font-size="14.00" fill="red">ScraperError</text>
<polyline fill="none" stroke="black" points="5157,-91.5 5270,-91.5 "/>
<text text-anchor="start" x="5165" y="-76.3" font-family="Times,serif" font-size="14.00" fill="red">message : str</text>
<polyline fill="none" stroke="black" points="5157,-68.5 5270,-68.5 "/>
<text text-anchor="start" x="5211" y="-53.3" font-family="Times,serif" font-size="14.00" fill="red"> </text>
</g>
<!-- olivia_finder.myrequests.useragent_handler.UserAgentHandler -->
<g id="node22" class="node">
<title>olivia_finder.myrequests.useragent_handler.UserAgentHandler</title>
<polygon fill="none" stroke="black" points="2094.5,-8 2094.5,-152 2336.5,-152 2336.5,-8 2094.5,-8"/>
<text text-anchor="start" x="2148" y="-136.8" font-family="Times,serif" font-size="14.00">UserAgentHandler</text>
<polyline fill="none" stroke="black" points="2094.5,-129 2336.5,-129 "/>
<text text-anchor="start" x="2102.5" y="-113.8" font-family="Times,serif" font-size="14.00">DATA_FILE</text>
<text text-anchor="start" x="2102.5" y="-98.8" font-family="Times,serif" font-size="14.00">DATA_FILE : str</text>
<text text-anchor="start" x="2102.5" y="-83.8" font-family="Times,serif" font-size="14.00">USERAGENTSTRING_URL : str</text>
<text text-anchor="start" x="2102.5" y="-68.8" font-family="Times,serif" font-size="14.00">my_logger : Logger</text>
<text text-anchor="start" x="2102.5" y="-53.8" font-family="Times,serif" font-size="14.00">useragents_list : List[str]</text>
<text text-anchor="start" x="2102.5" y="-38.8" font-family="Times,serif" font-size="14.00">useragents_list : list</text>
<polyline fill="none" stroke="black" points="2094.5,-31 2336.5,-31 "/>
<text text-anchor="start" x="2125" y="-15.8" font-family="Times,serif" font-size="14.00">get_next_useragent(): str</text>
</g>
<!-- olivia_finder.myrequests.useragent_handler.UserAgentHandler&#45;&gt;olivia_finder.myrequests.request_handler.RequestHandler -->
<g id="edge12" class="edge">
<title>olivia_finder.myrequests.useragent_handler.UserAgentHandler&#45;&gt;olivia_finder.myrequests.request_handler.RequestHandler</title>
<path fill="none" stroke="black" d="M2110.16,-152.03C2101.84,-160.17 2094.12,-168.85 2087.5,-178 2082.39,-185.07 2077.66,-192.59 2073.28,-200.38"/>
<polygon fill="black" stroke="black" points="2073.18,-200.58 2073.89,-207.76 2067.54,-211.18 2066.83,-204 2073.18,-200.58"/>
<text text-anchor="middle" x="2158.5" y="-181.8" font-family="Times,serif" font-size="14.00" fill="green">useragents_handler</text>
</g>
<!-- olivia_finder.myrequests.useragent_handler.UserAgentHandler&#45;&gt;olivia_finder.myrequests.request_handler.RequestHandler -->
<g id="edge13" class="edge">
<title>olivia_finder.myrequests.useragent_handler.UserAgentHandler&#45;&gt;olivia_finder.myrequests.request_handler.RequestHandler</title>
<path fill="none" stroke="black" d="M2236.1,-152.19C2236.94,-166.17 2235.4,-180.4 2229.5,-193 2228.32,-195.53 2227.08,-198.03 2225.78,-200.51"/>
<polygon fill="black" stroke="black" points="2225.64,-200.77 2226.19,-207.96 2219.77,-211.23 2219.22,-204.04 2225.64,-200.77"/>
<text text-anchor="middle" x="2305.5" y="-181.8" font-family="Times,serif" font-size="14.00" fill="green">useragents_handler</text>
</g>
<!-- olivia_finder.util.util.Util -->
<g id="node23" class="node">
<title>olivia_finder.util.util.Util</title>
<polygon fill="none" stroke="black" points="5288,-15.5 5288,-144.5 5539,-144.5 5539,-15.5 5288,-15.5"/>
<text text-anchor="start" x="5399.5" y="-129.3" font-family="Times,serif" font-size="14.00">Util</text>
<polyline fill="none" stroke="black" points="5288,-121.5 5539,-121.5 "/>
<text text-anchor="start" x="5364.5" y="-106.3" font-family="Times,serif" font-size="14.00">STYLES : dict</text>
<polyline fill="none" stroke="black" points="5288,-98.5 5539,-98.5 "/>
<text text-anchor="start" x="5296" y="-83.3" font-family="Times,serif" font-size="14.00">clean_string(s: str)</text>
<text text-anchor="start" x="5296" y="-68.3" font-family="Times,serif" font-size="14.00">print_colored(text: str, color: str)</text>
<text text-anchor="start" x="5296" y="-53.3" font-family="Times,serif" font-size="14.00">print_styled(text, style)</text>
<text text-anchor="start" x="5296" y="-38.3" font-family="Times,serif" font-size="14.00">recommended_threads()</text>
<text text-anchor="start" x="5296" y="-23.3" font-family="Times,serif" font-size="14.00">timestamp()</text>
</g>
<!-- olivia_finder.util.logger.UtilLogger -->
<g id="node24" class="node">
<title>olivia_finder.util.logger.UtilLogger</title>
<polygon fill="none" stroke="black" points="5557.5,-23 5557.5,-137 5823.5,-137 5823.5,-23 5557.5,-23"/>
<text text-anchor="start" x="5651.5" y="-121.8" font-family="Times,serif" font-size="14.00">UtilLogger</text>
<polyline fill="none" stroke="black" points="5557.5,-114 5823.5,-114 "/>
<text text-anchor="start" x="5639.5" y="-98.8" font-family="Times,serif" font-size="14.00">STATUS : bool</text>
<polyline fill="none" stroke="black" points="5557.5,-91 5823.5,-91 "/>
<text text-anchor="start" x="5565.5" y="-75.8" font-family="Times,serif" font-size="14.00">disable_logger()</text>
<text text-anchor="start" x="5565.5" y="-60.8" font-family="Times,serif" font-size="14.00">enable_logger()</text>
<text text-anchor="start" x="5565.5" y="-45.8" font-family="Times,serif" font-size="14.00">init_logger(console: bool, file: bool)</text>
<text text-anchor="start" x="5565.5" y="-30.8" font-family="Times,serif" font-size="14.00">log(text: str)</text>
</g>
</g>
</svg>
