<?xml version="1.0" encoding="UTF-8" standalone="no"?>
<!DOCTYPE svg PUBLIC "-//W3C//DTD SVG 1.1//EN"
 "http://www.w3.org/Graphics/SVG/1.1/DTD/svg11.dtd">
<!-- Generated by graphviz version 2.43.0 (0)
 -->
<!-- Title: classes_olivia_finder Pages: 1 -->
<svg width="4286pt" height="1423pt"
 viewBox="0.00 0.00 4285.50 1423.00" xmlns="http://www.w3.org/2000/svg" xmlns:xlink="http://www.w3.org/1999/xlink">
<g id="graph0" class="graph" transform="scale(1 1) rotate(0) translate(4 1419)">
<title>classes_olivia_finder</title>
<polygon fill="white" stroke="black" points="-4,4 -4,-1419 4281.5,-1419 4281.5,4 -4,4"/>
<!-- olivia_finder.data_source.scrapers.bioconductor.BiocScraper -->
<g id="node1" class="node">
<title>olivia_finder.data_source.scrapers.bioconductor.BiocScraper</title>
<polygon fill="aquamarine" stroke="black" points="0,-23 0,-137 335,-137 335,-23 0,-23"/>
<text text-anchor="middle" x="167.5" y="-121.8" font-family="Arial" font-size="14.00">BiocScraper</text>
<polyline fill="none" stroke="black" points="0,-114 335,-114 "/>
<text text-anchor="start" x="8" y="-98.8" font-family="Arial" font-size="14.00">BIOCONDUCTOR_LIST_URL : str</text>
<text text-anchor="start" x="8" y="-83.8" font-family="Arial" font-size="14.00">BIOCONDUCTOR_PACKAGE_DATA_URL : str</text>
<text text-anchor="start" x="8" y="-68.8" font-family="Arial" font-size="14.00">DESCRIPTION : str</text>
<text text-anchor="start" x="8" y="-53.8" font-family="Arial" font-size="14.00">NAME : str</text>
<polyline fill="none" stroke="black" points="0,-46 335,-46 "/>
<text text-anchor="start" x="8" y="-30.8" font-family="Arial" font-size="14.00">obtain_package_names(): List[str]</text>
</g>
<!-- olivia_finder.data_source.scrapers.r.RScraper -->
<g id="node18" class="node">
<title>olivia_finder.data_source.scrapers.r.RScraper</title>
<polygon fill="aquamarine" stroke="black" points="283,-263.5 283,-333.5 366,-333.5 366,-263.5 283,-263.5"/>
<text text-anchor="middle" x="324.5" y="-318.3" font-family="Arial" font-size="14.00">RScraper</text>
<polyline fill="none" stroke="black" points="283,-310.5 366,-310.5 "/>
<polyline fill="none" stroke="black" points="283,-286.5 366,-286.5 "/>
<text text-anchor="middle" x="324.5" y="-271.3" font-family="Arial" font-size="14.00"> </text>
</g>
<!-- olivia_finder.data_source.scrapers.bioconductor.BiocScraper&#45;&gt;olivia_finder.data_source.scrapers.r.RScraper -->
<g id="edge5" class="edge">
<title>olivia_finder.data_source.scrapers.bioconductor.BiocScraper&#45;&gt;olivia_finder.data_source.scrapers.r.RScraper</title>
<path fill="none" stroke="black" d="M208.14,-137.04C234.85,-173.88 269.27,-221.34 293.72,-255.06"/>
<polygon fill="none" stroke="black" points="291.01,-257.28 299.72,-263.32 296.68,-253.17 291.01,-257.28"/>
</g>
<!-- olivia_finder.data_source.csv_network.CSVNetwork -->
<g id="node2" class="node">
<title>olivia_finder.data_source.csv_network.CSVNetwork</title>
<polygon fill="antiquewhite" stroke="black" points="1201,-604.5 1201,-808.5 1994,-808.5 1994,-604.5 1201,-604.5"/>
<text text-anchor="middle" x="1597.5" y="-793.3" font-family="Arial" font-size="14.00">CSVNetwork</text>
<polyline fill="none" stroke="black" points="1201,-785.5 1994,-785.5 "/>
<text text-anchor="start" x="1209" y="-770.3" font-family="Arial" font-size="14.00">data : TextFileReader, NoneType, DataFrame</text>
<text text-anchor="start" x="1209" y="-755.3" font-family="Arial" font-size="14.00">dependency_field : Optional[str]</text>
<text text-anchor="start" x="1209" y="-740.3" font-family="Arial" font-size="14.00">dependency_version_field : Optional[str]</text>
<text text-anchor="start" x="1209" y="-725.3" font-family="Arial" font-size="14.00">dependent_field : Optional[str]</text>
<text text-anchor="start" x="1209" y="-710.3" font-family="Arial" font-size="14.00">dependent_url_field : Optional[str]</text>
<text text-anchor="start" x="1209" y="-695.3" font-family="Arial" font-size="14.00">dependent_version_field : Optional[str]</text>
<text text-anchor="start" x="1209" y="-680.3" font-family="Arial" font-size="14.00">file_path : str</text>
<polyline fill="none" stroke="black" points="1201,-672.5 1994,-672.5 "/>
<text text-anchor="start" x="1209" y="-657.3" font-family="Arial" font-size="14.00">get_info()</text>
<text text-anchor="start" x="1209" y="-642.3" font-family="Arial" font-size="14.00">obtain_package_data(package_name: str, override_previous: Optional[bool]): Dict</text>
<text text-anchor="start" x="1209" y="-627.3" font-family="Arial" font-size="14.00">obtain_package_names(): List[str]</text>
<text text-anchor="start" x="1209" y="-612.3" font-family="Arial" font-size="14.00">obtain_packages_data(package_name_list: Optional[List[str]], progress_bar: Optional[tqdm.tqdm]): List[Dict]</text>
</g>
<!-- olivia_finder.data_source.data_source.DataSource -->
<g id="node5" class="node">
<title>olivia_finder.data_source.data_source.DataSource</title>
<polygon fill="antiquewhite" stroke="black" points="1235,-846.5 1235,-990.5 1494,-990.5 1494,-846.5 1235,-846.5"/>
<text text-anchor="middle" x="1364.5" y="-975.3" font-family="Arial" font-size="14.00">DataSource</text>
<polyline fill="none" stroke="black" points="1235,-967.5 1494,-967.5 "/>
<text text-anchor="start" x="1243" y="-952.3" font-family="Arial" font-size="14.00">description : str</text>
<text text-anchor="start" x="1243" y="-937.3" font-family="Arial" font-size="14.00">name : str</text>
<text text-anchor="start" x="1243" y="-922.3" font-family="Arial" font-size="14.00">packages_data : dict</text>
<polyline fill="none" stroke="black" points="1235,-914.5 1494,-914.5 "/>
<text text-anchor="start" x="1243" y="-899.3" font-family="Arial" font-size="14.00">get_info(): Dict</text>
<text text-anchor="start" x="1243" y="-884.3" font-family="Arial" font-size="14.00">obtain_package_data(): Dict</text>
<text text-anchor="start" x="1243" y="-869.3" font-family="Arial" font-size="14.00">obtain_package_names(): List[str]</text>
<text text-anchor="start" x="1243" y="-854.3" font-family="Arial" font-size="14.00">obtain_packages_data(): List[Dict]</text>
</g>
<!-- olivia_finder.data_source.csv_network.CSVNetwork&#45;&gt;olivia_finder.data_source.data_source.DataSource -->
<g id="edge1" class="edge">
<title>olivia_finder.data_source.csv_network.CSVNetwork&#45;&gt;olivia_finder.data_source.data_source.DataSource</title>
<path fill="none" stroke="black" d="M1485.44,-808.5C1473.88,-818.92 1462.27,-829.39 1451.05,-839.5"/>
<polygon fill="none" stroke="black" points="1448.44,-837.14 1443.35,-846.43 1453.12,-842.34 1448.44,-837.14"/>
</g>
<!-- olivia_finder.util.config_ini.Configuration -->
<g id="node3" class="node">
<title>olivia_finder.util.config_ini.Configuration</title>
<polygon fill="cadetblue" stroke="black" points="2354.5,-45 2354.5,-115 2578.5,-115 2578.5,-45 2354.5,-45"/>
<text text-anchor="middle" x="2466.5" y="-99.8" font-family="Arial" font-size="14.00">Configuration</text>
<polyline fill="none" stroke="black" points="2354.5,-92 2578.5,-92 "/>
<polyline fill="none" stroke="black" points="2354.5,-68 2578.5,-68 "/>
<text text-anchor="start" x="2362.5" y="-52.8" font-family="Arial" font-size="14.00">get_key(section: str, key: str)</text>
</g>
<!-- olivia_finder.data_source.scrapers.cran.CranScraper -->
<g id="node4" class="node">
<title>olivia_finder.data_source.scrapers.cran.CranScraper</title>
<polygon fill="aquamarine" stroke="black" points="353,-23 353,-137 610,-137 610,-23 353,-23"/>
<text text-anchor="middle" x="481.5" y="-121.8" font-family="Arial" font-size="14.00">CranScraper</text>
<polyline fill="none" stroke="black" points="353,-114 610,-114 "/>
<text text-anchor="start" x="361" y="-98.8" font-family="Arial" font-size="14.00">CRAN_PACKAGE_DATA_URL : str</text>
<text text-anchor="start" x="361" y="-83.8" font-family="Arial" font-size="14.00">CRAN_PACKAGE_LIST_URL : str</text>
<text text-anchor="start" x="361" y="-68.8" font-family="Arial" font-size="14.00">DESCRIPTION : str</text>
<text text-anchor="start" x="361" y="-53.8" font-family="Arial" font-size="14.00">NAME : str</text>
<polyline fill="none" stroke="black" points="353,-46 610,-46 "/>
<text text-anchor="start" x="361" y="-30.8" font-family="Arial" font-size="14.00">obtain_package_names(): List[str]</text>
</g>
<!-- olivia_finder.data_source.scrapers.cran.CranScraper&#45;&gt;olivia_finder.data_source.scrapers.r.RScraper -->
<g id="edge6" class="edge">
<title>olivia_finder.data_source.scrapers.cran.CranScraper&#45;&gt;olivia_finder.data_source.scrapers.r.RScraper</title>
<path fill="none" stroke="black" d="M432.61,-137.14C413.95,-159.53 392.98,-185.91 375.5,-211 365.94,-224.73 356.38,-240.32 348.16,-254.45"/>
<polygon fill="none" stroke="black" points="344.91,-253.08 342.97,-263.49 350.98,-256.56 344.91,-253.08"/>
</g>
<!-- olivia_finder.data_source.data_source_abc.DataSourceABC -->
<g id="node6" class="node">
<title>olivia_finder.data_source.data_source_abc.DataSourceABC</title>
<polygon fill="antiquewhite" stroke="black" points="1253.5,-1028.5 1253.5,-1143.5 1475.5,-1143.5 1475.5,-1028.5 1253.5,-1028.5"/>
<text text-anchor="middle" x="1364.5" y="-1128.3" font-family="Arial" font-size="14.00">DataSourceABC</text>
<polyline fill="none" stroke="black" points="1253.5,-1120.5 1475.5,-1120.5 "/>
<polyline fill="none" stroke="black" points="1253.5,-1096.5 1475.5,-1096.5 "/>
<text text-anchor="start" x="1261.5" y="-1081.3" font-family="Arial" font-size="14.00">get_info(): dict</text>
<text text-anchor="start" x="1261.5" y="-1066.3" font-family="Arial" font-size="14.00">obtain_package_data(): dict</text>
<text text-anchor="start" x="1261.5" y="-1051.3" font-family="Arial" font-size="14.00">obtain_package_names(): list</text>
<text text-anchor="start" x="1261.5" y="-1036.3" font-family="Arial" font-size="14.00">obtain_packages_data(): list</text>
</g>
<!-- olivia_finder.data_source.data_source.DataSource&#45;&gt;olivia_finder.data_source.data_source_abc.DataSourceABC -->
<g id="edge2" class="edge">
<title>olivia_finder.data_source.data_source.DataSource&#45;&gt;olivia_finder.data_source.data_source_abc.DataSourceABC</title>
<path fill="none" stroke="black" d="M1364.5,-990.65C1364.5,-999.81 1364.5,-1009.17 1364.5,-1018.27"/>
<polygon fill="none" stroke="black" points="1361,-1018.39 1364.5,-1028.39 1368,-1018.39 1361,-1018.39"/>
</g>
<!-- olivia_finder.package_manager.PackageManager -->
<g id="node12" class="node">
<title>olivia_finder.package_manager.PackageManager</title>
<polygon fill="aliceblue" stroke="black" points="529.5,-1195.5 529.5,-1414.5 2199.5,-1414.5 2199.5,-1195.5 529.5,-1195.5"/>
<text text-anchor="middle" x="1364.5" y="-1399.3" font-family="Arial" font-size="14.00">PackageManager</text>
<polyline fill="none" stroke="black" points="529.5,-1391.5 2199.5,-1391.5 "/>
<text text-anchor="start" x="537.5" y="-1376.3" font-family="Arial" font-size="14.00">data_source</text>
<text text-anchor="start" x="537.5" y="-1361.3" font-family="Arial" font-size="14.00">packages : Dict[str, Package], list</text>
<polyline fill="none" stroke="black" points="529.5,-1353.5 2199.5,-1353.5 "/>
<text text-anchor="start" x="537.5" y="-1338.3" font-family="Arial" font-size="14.00">export_adjlist(): </text>
<text text-anchor="start" x="537.5" y="-1323.3" font-family="Arial" font-size="14.00">export_full_adjlist(): </text>
<text text-anchor="start" x="537.5" y="-1308.3" font-family="Arial" font-size="14.00">get_package(package_name: str): Union[Package, None]</text>
<text text-anchor="start" x="537.5" y="-1293.3" font-family="Arial" font-size="14.00">get_package_list(): List[Package]</text>
<text text-anchor="start" x="537.5" y="-1278.3" font-family="Arial" font-size="14.00">get_package_names(): List[str]</text>
<text text-anchor="start" x="537.5" y="-1263.3" font-family="Arial" font-size="14.00">load(cls: str, path)</text>
<text text-anchor="start" x="537.5" y="-1248.3" font-family="Arial" font-size="14.00">load_csv_adjlist(csv_path: Optional[str], dependent_field: Optional[str], dependency_field: Optional[str], version_field: Optional[str], dependency_version_field: Optional[str], url_field: Optional[bool], default_format): PackageManager</text>
<text text-anchor="start" x="537.5" y="-1233.3" font-family="Arial" font-size="14.00">obtain_package(package_name: str): Union[Package, None]</text>
<text text-anchor="start" x="537.5" y="-1218.3" font-family="Arial" font-size="14.00">obtain_packages(package_names: Optional[List[str]], extend: Optional[bool], show_progress: Optional[bool]): List[Package]</text>
<text text-anchor="start" x="537.5" y="-1203.3" font-family="Arial" font-size="14.00">save(path: str)</text>
</g>
<!-- olivia_finder.data_source.data_source_abc.DataSourceABC&#45;&gt;olivia_finder.package_manager.PackageManager -->
<g id="edge14" class="edge">
<title>olivia_finder.data_source.data_source_abc.DataSourceABC&#45;&gt;olivia_finder.package_manager.PackageManager</title>
<path fill="none" stroke="black" d="M1364.5,-1143.73C1364.5,-1156.07 1364.5,-1169.57 1364.5,-1183.33"/>
<polygon fill="black" stroke="black" points="1364.5,-1183.47 1368.5,-1189.47 1364.5,-1195.47 1360.5,-1189.47 1364.5,-1183.47"/>
<text text-anchor="middle" x="1407.5" y="-1165.8" font-family="Arial" font-size="14.00" fill="green">data_source</text>
</g>
<!-- olivia_finder.myrequests.proxy_builder.FreeProxyList -->
<g id="node7" class="node">
<title>olivia_finder.myrequests.proxy_builder.FreeProxyList</title>
<polygon fill="burlywood" stroke="black" points="2665.5,-45 2665.5,-115 2783.5,-115 2783.5,-45 2665.5,-45"/>
<text text-anchor="middle" x="2724.5" y="-99.8" font-family="Arial" font-size="14.00">FreeProxyList</text>
<polyline fill="none" stroke="black" points="2665.5,-92 2783.5,-92 "/>
<polyline fill="none" stroke="black" points="2665.5,-68 2783.5,-68 "/>
<text text-anchor="middle" x="2724.5" y="-52.8" font-family="Arial" font-size="14.00"> </text>
</g>
<!-- olivia_finder.myrequests.proxy_builder.ProxyBuilder -->
<g id="node14" class="node">
<title>olivia_finder.myrequests.proxy_builder.ProxyBuilder</title>
<polygon fill="burlywood" stroke="black" points="2735,-256.5 2735,-340.5 2988,-340.5 2988,-256.5 2735,-256.5"/>
<text text-anchor="middle" x="2861.5" y="-325.3" font-family="Arial" font-size="14.00">ProxyBuilder</text>
<polyline fill="none" stroke="black" points="2735,-317.5 2988,-317.5 "/>
<text text-anchor="start" x="2743" y="-302.3" font-family="Arial" font-size="14.00">proxy_list_timeout : Optional[int]</text>
<text text-anchor="start" x="2743" y="-287.3" font-family="Arial" font-size="14.00">url : str</text>
<polyline fill="none" stroke="black" points="2735,-279.5 2988,-279.5 "/>
<text text-anchor="start" x="2743" y="-264.3" font-family="Arial" font-size="14.00">get_proxies(): List[str]</text>
</g>
<!-- olivia_finder.myrequests.proxy_builder.FreeProxyList&#45;&gt;olivia_finder.myrequests.proxy_builder.ProxyBuilder -->
<g id="edge10" class="edge">
<title>olivia_finder.myrequests.proxy_builder.FreeProxyList&#45;&gt;olivia_finder.myrequests.proxy_builder.ProxyBuilder</title>
<path fill="none" stroke="black" d="M2746.21,-115.31C2768.77,-150.96 2804.31,-207.12 2829.97,-247.67"/>
<polygon fill="none" stroke="black" points="2827.14,-249.75 2835.45,-256.33 2833.06,-246.01 2827.14,-249.75"/>
</g>
<!-- olivia_finder.myrequests.proxy_builder.GeonodeProxy -->
<g id="node8" class="node">
<title>olivia_finder.myrequests.proxy_builder.GeonodeProxy</title>
<polygon fill="burlywood" stroke="black" points="2801.5,-45 2801.5,-115 2921.5,-115 2921.5,-45 2801.5,-45"/>
<text text-anchor="middle" x="2861.5" y="-99.8" font-family="Arial" font-size="14.00">GeonodeProxy</text>
<polyline fill="none" stroke="black" points="2801.5,-92 2921.5,-92 "/>
<polyline fill="none" stroke="black" points="2801.5,-68 2921.5,-68 "/>
<text text-anchor="middle" x="2861.5" y="-52.8" font-family="Arial" font-size="14.00"> </text>
</g>
<!-- olivia_finder.myrequests.proxy_builder.GeonodeProxy&#45;&gt;olivia_finder.myrequests.proxy_builder.ProxyBuilder -->
<g id="edge11" class="edge">
<title>olivia_finder.myrequests.proxy_builder.GeonodeProxy&#45;&gt;olivia_finder.myrequests.proxy_builder.ProxyBuilder</title>
<path fill="none" stroke="black" d="M2861.5,-115.31C2861.5,-150.51 2861.5,-205.71 2861.5,-246.13"/>
<polygon fill="none" stroke="black" points="2858,-246.33 2861.5,-256.33 2865,-246.33 2858,-246.33"/>
</g>
<!-- olivia_finder.util.logger.MyLogger -->
<g id="node9" class="node">
<title>olivia_finder.util.logger.MyLogger</title>
<polygon fill="cadetblue" stroke="black" points="3055.5,-8 3055.5,-152 3203.5,-152 3203.5,-8 3055.5,-8"/>
<text text-anchor="middle" x="3129.5" y="-136.8" font-family="Arial" font-size="14.00">MyLogger</text>
<polyline fill="none" stroke="black" points="3055.5,-129 3203.5,-129 "/>
<text text-anchor="start" x="3063.5" y="-113.8" font-family="Arial" font-size="14.00">level : NoneType</text>
<text text-anchor="start" x="3063.5" y="-98.8" font-family="Arial" font-size="14.00">logger : NoneType</text>
<text text-anchor="start" x="3063.5" y="-83.8" font-family="Arial" font-size="14.00">status : bool</text>
<polyline fill="none" stroke="black" points="3055.5,-76 3203.5,-76 "/>
<text text-anchor="start" x="3063.5" y="-60.8" font-family="Arial" font-size="14.00">disable_logger()</text>
<text text-anchor="start" x="3063.5" y="-45.8" font-family="Arial" font-size="14.00">enable_logger()</text>
<text text-anchor="start" x="3063.5" y="-30.8" font-family="Arial" font-size="14.00">get_instance(cls)</text>
<text text-anchor="start" x="3063.5" y="-15.8" font-family="Arial" font-size="14.00">log(text)</text>
</g>
<!-- olivia_finder.data_source.scrapers.npm.NpmScraper -->
<g id="node10" class="node">
<title>olivia_finder.data_source.scrapers.npm.NpmScraper</title>
<polygon fill="aquamarine" stroke="black" points="384.5,-226.5 384.5,-370.5 1282.5,-370.5 1282.5,-226.5 384.5,-226.5"/>
<text text-anchor="middle" x="833.5" y="-355.3" font-family="Arial" font-size="14.00">NpmScraper</text>
<polyline fill="none" stroke="black" points="384.5,-347.5 1282.5,-347.5 "/>
<text text-anchor="start" x="392.5" y="-332.3" font-family="Arial" font-size="14.00">DESCRIPTION : str</text>
<text text-anchor="start" x="392.5" y="-317.3" font-family="Arial" font-size="14.00">NAME : str</text>
<text text-anchor="start" x="392.5" y="-302.3" font-family="Arial" font-size="14.00">NPM_PACKAGE_LIST_URL : str</text>
<text text-anchor="start" x="392.5" y="-287.3" font-family="Arial" font-size="14.00">NPM_PACKAGE_REGISTRY_URL : str</text>
<text text-anchor="start" x="392.5" y="-272.3" font-family="Arial" font-size="14.00">NPM_REPO_URL : str</text>
<text text-anchor="start" x="392.5" y="-257.3" font-family="Arial" font-size="14.00">chunks_folder</text>
<polyline fill="none" stroke="black" points="384.5,-249.5 1282.5,-249.5 "/>
<text text-anchor="start" x="392.5" y="-234.3" font-family="Arial" font-size="14.00">obtain_package_names(page_size: Optional[int], save_chunks: Optional[bool], show_progress_bar: Optional[bool]): List[dict]</text>
</g>
<!-- olivia_finder.data_source.scraper.Scraper -->
<g id="node22" class="node">
<title>olivia_finder.data_source.scraper.Scraper</title>
<polygon fill="antiquewhite" stroke="black" points="565,-437.5 565,-566.5 1698,-566.5 1698,-437.5 565,-437.5"/>
<text text-anchor="middle" x="1131.5" y="-551.3" font-family="Arial" font-size="14.00">Scraper</text>
<polyline fill="none" stroke="black" points="565,-543.5 1698,-543.5 "/>
<text text-anchor="start" x="573" y="-528.3" font-family="Arial" font-size="14.00">not_found : list</text>
<text text-anchor="start" x="573" y="-513.3" font-family="Arial" font-size="14.00">request_handler : Optional[RequestHandler]</text>
<polyline fill="none" stroke="black" points="565,-505.5 1698,-505.5 "/>
<text text-anchor="start" x="573" y="-490.3" font-family="Arial" font-size="14.00">get_info(): dict</text>
<text text-anchor="start" x="573" y="-475.3" font-family="Arial" font-size="14.00">obtain_package_data(package_name: str): Dict</text>
<text text-anchor="start" x="573" y="-460.3" font-family="Arial" font-size="14.00">obtain_package_names(): List[str]</text>
<text text-anchor="start" x="573" y="-445.3" font-family="Arial" font-size="14.00">obtain_packages_data(package_names: Optional[List[str]], progress_bar: Optional[tqdm.tqdm], from_data_source: Optional[bool]): Tuple[List[Dict], List[str]]</text>
</g>
<!-- olivia_finder.data_source.scrapers.npm.NpmScraper&#45;&gt;olivia_finder.data_source.scraper.Scraper -->
<g id="edge7" class="edge">
<title>olivia_finder.data_source.scrapers.npm.NpmScraper&#45;&gt;olivia_finder.data_source.scraper.Scraper</title>
<path fill="none" stroke="black" d="M938.56,-370.54C967.85,-390.34 999.62,-411.82 1028.76,-431.53"/>
<polygon fill="none" stroke="black" points="1027.07,-434.61 1037.31,-437.31 1030.99,-428.81 1027.07,-434.61"/>
</g>
<!-- olivia_finder.package.Package -->
<g id="node11" class="node">
<title>olivia_finder.package.Package</title>
<polygon fill="aliceblue" stroke="black" points="3222,-0.5 3222,-159.5 3543,-159.5 3543,-0.5 3222,-0.5"/>
<text text-anchor="middle" x="3382.5" y="-144.3" font-family="Arial" font-size="14.00">Package</text>
<polyline fill="none" stroke="black" points="3222,-136.5 3543,-136.5 "/>
<text text-anchor="start" x="3230" y="-121.3" font-family="Arial" font-size="14.00">dependencies : Optional[list[Package]], set</text>
<text text-anchor="start" x="3230" y="-106.3" font-family="Arial" font-size="14.00">name : str</text>
<text text-anchor="start" x="3230" y="-91.3" font-family="Arial" font-size="14.00">url : Optional[str]</text>
<text text-anchor="start" x="3230" y="-76.3" font-family="Arial" font-size="14.00">version : Optional[str]</text>
<polyline fill="none" stroke="black" points="3222,-68.5 3543,-68.5 "/>
<text text-anchor="start" x="3230" y="-53.3" font-family="Arial" font-size="14.00">load(cls: dict, data)</text>
<text text-anchor="start" x="3230" y="-38.3" font-family="Arial" font-size="14.00">print()</text>
<text text-anchor="start" x="3230" y="-23.3" font-family="Arial" font-size="14.00">to_dict()</text>
<text text-anchor="start" x="3230" y="-8.3" font-family="Arial" font-size="14.00">update(data: dict)</text>
</g>
<!-- olivia_finder.package_manager.PackageManagerLoadError -->
<g id="node13" class="node">
<title>olivia_finder.package_manager.PackageManagerLoadError</title>
<polygon fill="aliceblue" stroke="black" points="3561.5,-45.5 3561.5,-114.5 3773.5,-114.5 3773.5,-45.5 3561.5,-45.5"/>
<text text-anchor="middle" x="3667.5" y="-99.3" font-family="Arial" font-size="14.00" fill="red">PackageManagerLoadError</text>
<polyline fill="none" stroke="black" points="3561.5,-91.5 3773.5,-91.5 "/>
<text text-anchor="start" x="3569.5" y="-76.3" font-family="Arial" font-size="14.00" fill="red">message</text>
<polyline fill="none" stroke="black" points="3561.5,-68.5 3773.5,-68.5 "/>
<text text-anchor="middle" x="3667.5" y="-53.3" font-family="Arial" font-size="14.00" fill="red"> </text>
</g>
<!-- olivia_finder.myrequests.proxy_builder.ProxyBuilderABC -->
<g id="node15" class="node">
<title>olivia_finder.myrequests.proxy_builder.ProxyBuilderABC</title>
<polygon fill="burlywood" stroke="black" points="2773.5,-467 2773.5,-537 2949.5,-537 2949.5,-467 2773.5,-467"/>
<text text-anchor="middle" x="2861.5" y="-521.8" font-family="Arial" font-size="14.00">ProxyBuilderABC</text>
<polyline fill="none" stroke="black" points="2773.5,-514 2949.5,-514 "/>
<polyline fill="none" stroke="black" points="2773.5,-490 2949.5,-490 "/>
<text text-anchor="start" x="2781.5" y="-474.8" font-family="Arial" font-size="14.00">get_proxies(): List[str]</text>
</g>
<!-- olivia_finder.myrequests.proxy_builder.ProxyBuilder&#45;&gt;olivia_finder.myrequests.proxy_builder.ProxyBuilderABC -->
<g id="edge12" class="edge">
<title>olivia_finder.myrequests.proxy_builder.ProxyBuilder&#45;&gt;olivia_finder.myrequests.proxy_builder.ProxyBuilderABC</title>
<path fill="none" stroke="black" d="M2861.5,-340.76C2861.5,-374.47 2861.5,-422.01 2861.5,-456.55"/>
<polygon fill="none" stroke="black" points="2858,-456.82 2861.5,-466.82 2865,-456.82 2858,-456.82"/>
</g>
<!-- olivia_finder.myrequests.proxy_handler.ProxyHandler -->
<g id="node16" class="node">
<title>olivia_finder.myrequests.proxy_handler.ProxyHandler</title>
<polygon fill="burlywood" stroke="black" points="1631.5,-23 1631.5,-137 2041.5,-137 2041.5,-23 1631.5,-23"/>
<text text-anchor="middle" x="1836.5" y="-121.8" font-family="Arial" font-size="14.00">ProxyHandler</text>
<polyline fill="none" stroke="black" points="1631.5,-114 2041.5,-114 "/>
<text text-anchor="start" x="1639.5" y="-98.8" font-family="Arial" font-size="14.00">proxy_builders : List[ProxyBuilderABC], list, NoneType</text>
<text text-anchor="start" x="1639.5" y="-83.8" font-family="Arial" font-size="14.00">proxy_list : List[str], list</text>
<text text-anchor="start" x="1639.5" y="-68.8" font-family="Arial" font-size="14.00">proxy_max_uses : Optional[int]</text>
<text text-anchor="start" x="1639.5" y="-53.8" font-family="Arial" font-size="14.00">proxy_uses : dict</text>
<polyline fill="none" stroke="black" points="1631.5,-46 2041.5,-46 "/>
<text text-anchor="start" x="1639.5" y="-30.8" font-family="Arial" font-size="14.00">get_next_proxy(): Union[str, None]</text>
</g>
<!-- olivia_finder.myrequests.request_handler.RequestHandler -->
<g id="node20" class="node">
<title>olivia_finder.myrequests.request_handler.RequestHandler</title>
<polygon fill="burlywood" stroke="black" points="1576,-211.5 1576,-385.5 2717,-385.5 2717,-211.5 1576,-211.5"/>
<text text-anchor="middle" x="2146.5" y="-370.3" font-family="Arial" font-size="14.00">RequestHandler</text>
<polyline fill="none" stroke="black" points="1576,-362.5 2717,-362.5 "/>
<text text-anchor="start" x="1584" y="-347.3" font-family="Arial" font-size="14.00">NUM_PROCESSES : int</text>
<text text-anchor="start" x="1584" y="-332.3" font-family="Arial" font-size="14.00">REQUEST_MAX_RETRIES : Optional[int]</text>
<text text-anchor="start" x="1584" y="-317.3" font-family="Arial" font-size="14.00">REQUEST_TIMEOUT : Optional[int]</text>
<text text-anchor="start" x="1584" y="-302.3" font-family="Arial" font-size="14.00">current_proxy_index : int</text>
<text text-anchor="start" x="1584" y="-287.3" font-family="Arial" font-size="14.00">current_useragent_index : int</text>
<text text-anchor="start" x="1584" y="-272.3" font-family="Arial" font-size="14.00">proxy_handler : NoneType</text>
<text text-anchor="start" x="1584" y="-257.3" font-family="Arial" font-size="14.00">useragents_handler : NoneType</text>
<polyline fill="none" stroke="black" points="1576,-249.5 2717,-249.5 "/>
<text text-anchor="start" x="1584" y="-234.3" font-family="Arial" font-size="14.00">do_parallel_requests(url_list: List[str], param_list: Optional[List[dict]], progress_bar: Optional[tqdm.tqdm]): List[Union[Tuple[str, requests.Response], None]]</text>
<text text-anchor="start" x="1584" y="-219.3" font-family="Arial" font-size="14.00">do_request(url: str, params: dict): Union[Tuple[str, requests.Response], None]</text>
</g>
<!-- olivia_finder.myrequests.proxy_handler.ProxyHandler&#45;&gt;olivia_finder.myrequests.request_handler.RequestHandler -->
<g id="edge15" class="edge">
<title>olivia_finder.myrequests.proxy_handler.ProxyHandler&#45;&gt;olivia_finder.myrequests.request_handler.RequestHandler</title>
<path fill="none" stroke="black" d="M1916.74,-137.04C1946.16,-157.59 1980.32,-181.44 2013.15,-204.37"/>
<polygon fill="black" stroke="black" points="2013.45,-204.58 2020.66,-204.74 2023.29,-211.45 2016.08,-211.3 2013.45,-204.58"/>
<text text-anchor="middle" x="2043" y="-181.8" font-family="Arial" font-size="14.00" fill="green">proxy_handler</text>
</g>
<!-- olivia_finder.data_source.scrapers.pypi.PypiScraper -->
<g id="node17" class="node">
<title>olivia_finder.data_source.scrapers.pypi.PypiScraper</title>
<polygon fill="aquamarine" stroke="black" points="1301,-241.5 1301,-355.5 1558,-355.5 1558,-241.5 1301,-241.5"/>
<text text-anchor="middle" x="1429.5" y="-340.3" font-family="Arial" font-size="14.00">PypiScraper</text>
<polyline fill="none" stroke="black" points="1301,-332.5 1558,-332.5 "/>
<text text-anchor="start" x="1309" y="-317.3" font-family="Arial" font-size="14.00">DESCRIPTION : str</text>
<text text-anchor="start" x="1309" y="-302.3" font-family="Arial" font-size="14.00">NAME : str</text>
<text text-anchor="start" x="1309" y="-287.3" font-family="Arial" font-size="14.00">PYPI_PACKAGE_DATA_URL : str</text>
<text text-anchor="start" x="1309" y="-272.3" font-family="Arial" font-size="14.00">PYPI_PACKAGE_LIST_URL : str</text>
<polyline fill="none" stroke="black" points="1301,-264.5 1558,-264.5 "/>
<text text-anchor="start" x="1309" y="-249.3" font-family="Arial" font-size="14.00">obtain_package_names(): List[str]</text>
</g>
<!-- olivia_finder.data_source.scrapers.pypi.PypiScraper&#45;&gt;olivia_finder.data_source.scraper.Scraper -->
<g id="edge8" class="edge">
<title>olivia_finder.data_source.scrapers.pypi.PypiScraper&#45;&gt;olivia_finder.data_source.scraper.Scraper</title>
<path fill="none" stroke="black" d="M1346.49,-355.63C1311.73,-379.13 1270.97,-406.69 1234.34,-431.46"/>
<polygon fill="none" stroke="black" points="1231.94,-428.86 1225.62,-437.36 1235.86,-434.66 1231.94,-428.86"/>
</g>
<!-- olivia_finder.data_source.scrapers.r.RScraper&#45;&gt;olivia_finder.data_source.scraper.Scraper -->
<g id="edge9" class="edge">
<title>olivia_finder.data_source.scrapers.r.RScraper&#45;&gt;olivia_finder.data_source.scraper.Scraper</title>
<path fill="none" stroke="black" d="M336.33,-333.81C344.46,-352.21 357.16,-373.6 375.5,-386 410.96,-409.98 476.54,-429.17 554.8,-444.47"/>
<polygon fill="none" stroke="black" points="554.43,-447.97 564.91,-446.42 555.75,-441.09 554.43,-447.97"/>
</g>
<!-- olivia_finder.myrequests.request_handler.RequestError -->
<g id="node19" class="node">
<title>olivia_finder.myrequests.request_handler.RequestError</title>
<polygon fill="burlywood" stroke="black" points="3791.5,-45.5 3791.5,-114.5 3905.5,-114.5 3905.5,-45.5 3791.5,-45.5"/>
<text text-anchor="middle" x="3848.5" y="-99.3" font-family="Arial" font-size="14.00" fill="red">RequestError</text>
<polyline fill="none" stroke="black" points="3791.5,-91.5 3905.5,-91.5 "/>
<text text-anchor="start" x="3799.5" y="-76.3" font-family="Arial" font-size="14.00" fill="red">message</text>
<polyline fill="none" stroke="black" points="3791.5,-68.5 3905.5,-68.5 "/>
<text text-anchor="middle" x="3848.5" y="-53.3" font-family="Arial" font-size="14.00" fill="red"> </text>
</g>
<!-- olivia_finder.myrequests.request_handler.RequestHandler&#45;&gt;olivia_finder.data_source.scraper.Scraper -->
<g id="edge16" class="edge">
<title>olivia_finder.myrequests.request_handler.RequestHandler&#45;&gt;olivia_finder.data_source.scraper.Scraper</title>
<path fill="none" stroke="black" d="M1713.1,-385.54C1629.57,-402.12 1543.29,-419.25 1463.59,-435.07"/>
<polygon fill="black" stroke="black" points="1463.14,-435.16 1458.04,-440.25 1451.37,-437.5 1456.48,-432.41 1463.14,-435.16"/>
<text text-anchor="middle" x="1668" y="-407.8" font-family="Arial" font-size="14.00" fill="green">request_handler</text>
</g>
<!-- olivia_finder.myrequests.proxy_builder.SSLProxies -->
<g id="node21" class="node">
<title>olivia_finder.myrequests.proxy_builder.SSLProxies</title>
<polygon fill="burlywood" stroke="black" points="2939.5,-45 2939.5,-115 3037.5,-115 3037.5,-45 2939.5,-45"/>
<text text-anchor="middle" x="2988.5" y="-99.8" font-family="Arial" font-size="14.00">SSLProxies</text>
<polyline fill="none" stroke="black" points="2939.5,-92 3037.5,-92 "/>
<polyline fill="none" stroke="black" points="2939.5,-68 3037.5,-68 "/>
<text text-anchor="middle" x="2988.5" y="-52.8" font-family="Arial" font-size="14.00"> </text>
</g>
<!-- olivia_finder.myrequests.proxy_builder.SSLProxies&#45;&gt;olivia_finder.myrequests.proxy_builder.ProxyBuilder -->
<g id="edge13" class="edge">
<title>olivia_finder.myrequests.proxy_builder.SSLProxies&#45;&gt;olivia_finder.myrequests.proxy_builder.ProxyBuilder</title>
<path fill="none" stroke="black" d="M2968.38,-115.31C2947.46,-150.96 2914.51,-207.12 2890.73,-247.67"/>
<polygon fill="none" stroke="black" points="2887.69,-245.93 2885.65,-256.33 2893.73,-249.48 2887.69,-245.93"/>
</g>
<!-- olivia_finder.data_source.scraper_abc.ScraperABC -->
<g id="node23" class="node">
<title>olivia_finder.data_source.scraper_abc.ScraperABC</title>
<polygon fill="antiquewhite" stroke="black" points="1079.5,-671.5 1079.5,-741.5 1183.5,-741.5 1183.5,-671.5 1079.5,-671.5"/>
<text text-anchor="middle" x="1131.5" y="-726.3" font-family="Arial" font-size="14.00">ScraperABC</text>
<polyline fill="none" stroke="black" points="1079.5,-718.5 1183.5,-718.5 "/>
<polyline fill="none" stroke="black" points="1079.5,-694.5 1183.5,-694.5 "/>
<text text-anchor="middle" x="1131.5" y="-679.3" font-family="Arial" font-size="14.00"> </text>
</g>
<!-- olivia_finder.data_source.scraper.Scraper&#45;&gt;olivia_finder.data_source.scraper_abc.ScraperABC -->
<g id="edge3" class="edge">
<title>olivia_finder.data_source.scraper.Scraper&#45;&gt;olivia_finder.data_source.scraper_abc.ScraperABC</title>
<path fill="none" stroke="black" d="M1131.5,-566.52C1131.5,-597.27 1131.5,-633.44 1131.5,-661.17"/>
<polygon fill="none" stroke="black" points="1128,-661.36 1131.5,-671.36 1135,-661.36 1128,-661.36"/>
</g>
<!-- olivia_finder.data_source.scraper_abc.ScraperABC&#45;&gt;olivia_finder.data_source.data_source.DataSource -->
<g id="edge4" class="edge">
<title>olivia_finder.data_source.scraper_abc.ScraperABC&#45;&gt;olivia_finder.data_source.data_source.DataSource</title>
<path fill="none" stroke="black" d="M1146.59,-741.77C1157.05,-762.86 1172.5,-789.5 1191.5,-809 1202.36,-820.15 1214.58,-830.66 1227.37,-840.43"/>
<polygon fill="none" stroke="black" points="1225.3,-843.25 1235.41,-846.42 1229.48,-837.64 1225.3,-843.25"/>
</g>
<!-- olivia_finder.data_source.scraper.ScraperError -->
<g id="node24" class="node">
<title>olivia_finder.data_source.scraper.ScraperError</title>
<polygon fill="antiquewhite" stroke="black" points="3924,-45.5 3924,-114.5 4037,-114.5 4037,-45.5 3924,-45.5"/>
<text text-anchor="middle" x="3980.5" y="-99.3" font-family="Arial" font-size="14.00" fill="red">ScraperError</text>
<polyline fill="none" stroke="black" points="3924,-91.5 4037,-91.5 "/>
<text text-anchor="start" x="3932" y="-76.3" font-family="Arial" font-size="14.00" fill="red">message : str</text>
<polyline fill="none" stroke="black" points="3924,-68.5 4037,-68.5 "/>
<text text-anchor="middle" x="3980.5" y="-53.3" font-family="Arial" font-size="14.00" fill="red"> </text>
</g>
<!-- olivia_finder.myrequests.useragent_handler.UserAgentHandler -->
<g id="node25" class="node">
<title>olivia_finder.myrequests.useragent_handler.UserAgentHandler</title>
<polygon fill="burlywood" stroke="black" points="2059.5,-15.5 2059.5,-144.5 2301.5,-144.5 2301.5,-15.5 2059.5,-15.5"/>
<text text-anchor="middle" x="2180.5" y="-129.3" font-family="Arial" font-size="14.00">UserAgentHandler</text>
<polyline fill="none" stroke="black" points="2059.5,-121.5 2301.5,-121.5 "/>
<text text-anchor="start" x="2067.5" y="-106.3" font-family="Arial" font-size="14.00">DATA_FILE</text>
<text text-anchor="start" x="2067.5" y="-91.3" font-family="Arial" font-size="14.00">DATA_FILE : str</text>
<text text-anchor="start" x="2067.5" y="-76.3" font-family="Arial" font-size="14.00">USERAGENTSTRING_URL : str</text>
<text text-anchor="start" x="2067.5" y="-61.3" font-family="Arial" font-size="14.00">useragents_list : List[str]</text>
<text text-anchor="start" x="2067.5" y="-46.3" font-family="Arial" font-size="14.00">useragents_list : list</text>
<polyline fill="none" stroke="black" points="2059.5,-38.5 2301.5,-38.5 "/>
<text text-anchor="start" x="2067.5" y="-23.3" font-family="Arial" font-size="14.00">get_next_useragent(): str</text>
</g>
<!-- olivia_finder.myrequests.useragent_handler.UserAgentHandler&#45;&gt;olivia_finder.myrequests.request_handler.RequestHandler -->
<g id="edge17" class="edge">
<title>olivia_finder.myrequests.useragent_handler.UserAgentHandler&#45;&gt;olivia_finder.myrequests.request_handler.RequestHandler</title>
<path fill="none" stroke="black" d="M2170.48,-144.79C2167.8,-161.87 2164.83,-180.75 2161.93,-199.23"/>
<polygon fill="black" stroke="black" points="2161.9,-199.45 2164.92,-205.99 2160.04,-211.3 2157.02,-204.75 2161.9,-199.45"/>
<text text-anchor="middle" x="2236.5" y="-181.8" font-family="Arial" font-size="14.00" fill="green">useragents_handler</text>
</g>
<!-- olivia_finder.util.util.Util -->
<g id="node26" class="node">
<title>olivia_finder.util.util.Util</title>
<polygon fill="cadetblue" stroke="black" points="4055.5,-15.5 4055.5,-144.5 4277.5,-144.5 4277.5,-15.5 4055.5,-15.5"/>
<text text-anchor="middle" x="4166.5" y="-129.3" font-family="Arial" font-size="14.00">Util</text>
<polyline fill="none" stroke="black" points="4055.5,-121.5 4277.5,-121.5 "/>
<text text-anchor="start" x="4063.5" y="-106.3" font-family="Arial" font-size="14.00">STYLES : dict</text>
<polyline fill="none" stroke="black" points="4055.5,-98.5 4277.5,-98.5 "/>
<text text-anchor="start" x="4063.5" y="-83.3" font-family="Arial" font-size="14.00">clean_string(string)</text>
<text text-anchor="start" x="4063.5" y="-68.3" font-family="Arial" font-size="14.00">print_colored(text: str, color)</text>
<text text-anchor="start" x="4063.5" y="-53.3" font-family="Arial" font-size="14.00">print_styled(text, style)</text>
<text text-anchor="start" x="4063.5" y="-38.3" font-family="Arial" font-size="14.00">recommended_threads()</text>
<text text-anchor="start" x="4063.5" y="-23.3" font-family="Arial" font-size="14.00">timestamp()</text>
</g>
</g>
</svg>
