<?xml version="1.0" encoding="UTF-8" standalone="no"?>
<!DOCTYPE svg PUBLIC "-//W3C//DTD SVG 1.1//EN"
 "http://www.w3.org/Graphics/SVG/1.1/DTD/svg11.dtd">
<!-- Generated by graphviz version 2.43.0 (0)
 -->
<!-- Title: packages_olivia_finder Pages: 1 -->
<svg width="4112pt" height="260pt"
 viewBox="0.00 0.00 4111.50 260.00" xmlns="http://www.w3.org/2000/svg" xmlns:xlink="http://www.w3.org/1999/xlink">
<g id="graph0" class="graph" transform="scale(1 1) rotate(0) translate(4 256)">
<title>packages_olivia_finder</title>
<polygon fill="white" stroke="transparent" points="-4,4 -4,-256 4107.5,-256 4107.5,4 -4,4"/>
<!-- olivia_finder -->
<g id="node1" class="node">
<title>olivia_finder</title>
<polygon fill="aliceblue" stroke="aliceblue" points="104,-36 0,-36 0,0 104,0 104,-36"/>
<text text-anchor="middle" x="52" y="-14.3" font-family="Times,serif" font-size="14.00">olivia_finder</text>
</g>
<!-- olivia_finder.data_source -->
<g id="node2" class="node">
<title>olivia_finder.data_source</title>
<polygon fill="antiquewhite" stroke="antiquewhite" points="314,-36 122,-36 122,0 314,0 314,-36"/>
<text text-anchor="middle" x="218" y="-14.3" font-family="Times,serif" font-size="14.00">olivia_finder.data_source</text>
</g>
<!-- olivia_finder.data_source.csv_network -->
<g id="node3" class="node">
<title>olivia_finder.data_source.csv_network</title>
<polygon fill="antiquewhite" stroke="antiquewhite" points="835.5,-108 550.5,-108 550.5,-72 835.5,-72 835.5,-108"/>
<text text-anchor="middle" x="693" y="-86.3" font-family="Times,serif" font-size="14.00">olivia_finder.data_source.csv_network</text>
</g>
<!-- olivia_finder.data_source.data_source -->
<g id="node4" class="node">
<title>olivia_finder.data_source.data_source</title>
<polygon fill="antiquewhite" stroke="antiquewhite" points="834,-180 552,-180 552,-144 834,-144 834,-180"/>
<text text-anchor="middle" x="693" y="-158.3" font-family="Times,serif" font-size="14.00">olivia_finder.data_source.data_source</text>
</g>
<!-- olivia_finder.data_source.csv_network&#45;&gt;olivia_finder.data_source.data_source -->
<g id="edge1" class="edge">
<title>olivia_finder.data_source.csv_network&#45;&gt;olivia_finder.data_source.data_source</title>
<path fill="none" stroke="black" d="M693,-108.3C693,-116.02 693,-125.29 693,-133.89"/>
<polygon fill="black" stroke="black" points="693,-143.9 688.5,-133.9 693,-138.9 693,-133.9 693,-133.9 693,-133.9 693,-138.9 697.5,-133.9 693,-143.9 693,-143.9"/>
</g>
<!-- olivia_finder.data_source.data_source_abc -->
<g id="node5" class="node">
<title>olivia_finder.data_source.data_source_abc</title>
<polygon fill="antiquewhite" stroke="antiquewhite" points="673,-252 359,-252 359,-216 673,-216 673,-252"/>
<text text-anchor="middle" x="516" y="-230.3" font-family="Times,serif" font-size="14.00">olivia_finder.data_source.data_source_abc</text>
</g>
<!-- olivia_finder.data_source.data_source&#45;&gt;olivia_finder.data_source.data_source_abc -->
<g id="edge2" class="edge">
<title>olivia_finder.data_source.data_source&#45;&gt;olivia_finder.data_source.data_source_abc</title>
<path fill="none" stroke="black" d="M649.7,-180.12C625.29,-189.78 594.6,-201.91 568.79,-212.12"/>
<polygon fill="black" stroke="black" points="559.16,-215.93 566.8,-208.07 563.81,-214.09 568.46,-212.25 568.46,-212.25 568.46,-212.25 563.81,-214.09 570.11,-216.44 559.16,-215.93 559.16,-215.93"/>
</g>
<!-- olivia_finder.data_source.scraper -->
<g id="node6" class="node">
<title>olivia_finder.data_source.scraper</title>
<polygon fill="antiquewhite" stroke="antiquewhite" points="1120.5,-36 869.5,-36 869.5,0 1120.5,0 1120.5,-36"/>
<text text-anchor="middle" x="995" y="-14.3" font-family="Times,serif" font-size="14.00">olivia_finder.data_source.scraper</text>
</g>
<!-- olivia_finder.data_source.scraper_abc -->
<g id="node7" class="node">
<title>olivia_finder.data_source.scraper_abc</title>
<polygon fill="antiquewhite" stroke="antiquewhite" points="1136,-108 854,-108 854,-72 1136,-72 1136,-108"/>
<text text-anchor="middle" x="995" y="-86.3" font-family="Times,serif" font-size="14.00">olivia_finder.data_source.scraper_abc</text>
</g>
<!-- olivia_finder.data_source.scraper&#45;&gt;olivia_finder.data_source.scraper_abc -->
<g id="edge3" class="edge">
<title>olivia_finder.data_source.scraper&#45;&gt;olivia_finder.data_source.scraper_abc</title>
<path fill="none" stroke="black" d="M995,-36.3C995,-44.02 995,-53.29 995,-61.89"/>
<polygon fill="black" stroke="black" points="995,-71.9 990.5,-61.9 995,-66.9 995,-61.9 995,-61.9 995,-61.9 995,-66.9 999.5,-61.9 995,-71.9 995,-71.9"/>
</g>
<!-- olivia_finder.data_source.scraper_abc&#45;&gt;olivia_finder.data_source.data_source -->
<g id="edge4" class="edge">
<title>olivia_finder.data_source.scraper_abc&#45;&gt;olivia_finder.data_source.data_source</title>
<path fill="none" stroke="black" d="M921.51,-108.03C877.67,-118.2 821.88,-131.13 776.4,-141.67"/>
<polygon fill="black" stroke="black" points="766.56,-143.95 775.28,-137.31 771.43,-142.82 776.3,-141.69 776.3,-141.69 776.3,-141.69 771.43,-142.82 777.32,-146.08 766.56,-143.95 766.56,-143.95"/>
</g>
<!-- olivia_finder.data_source.scrapers -->
<g id="node8" class="node">
<title>olivia_finder.data_source.scrapers</title>
<polygon fill="aquamarine" stroke="aquamarine" points="1397,-36 1139,-36 1139,0 1397,0 1397,-36"/>
<text text-anchor="middle" x="1268" y="-14.3" font-family="Times,serif" font-size="14.00">olivia_finder.data_source.scrapers</text>
</g>
<!-- olivia_finder.data_source.scrapers.bioconductor -->
<g id="node9" class="node">
<title>olivia_finder.data_source.scrapers.bioconductor</title>
<polygon fill="aquamarine" stroke="aquamarine" points="1771,-36 1415,-36 1415,0 1771,0 1771,-36"/>
<text text-anchor="middle" x="1593" y="-14.3" font-family="Times,serif" font-size="14.00">olivia_finder.data_source.scrapers.bioconductor</text>
</g>
<!-- olivia_finder.data_source.scrapers.cran -->
<g id="node10" class="node">
<title>olivia_finder.data_source.scrapers.cran</title>
<polygon fill="aquamarine" stroke="aquamarine" points="2083,-36 1789,-36 1789,0 2083,0 2083,-36"/>
<text text-anchor="middle" x="1936" y="-14.3" font-family="Times,serif" font-size="14.00">olivia_finder.data_source.scrapers.cran</text>
</g>
<!-- olivia_finder.data_source.scrapers.npm -->
<g id="node11" class="node">
<title>olivia_finder.data_source.scrapers.npm</title>
<polygon fill="aquamarine" stroke="aquamarine" points="2395,-36 2101,-36 2101,0 2395,0 2395,-36"/>
<text text-anchor="middle" x="2248" y="-14.3" font-family="Times,serif" font-size="14.00">olivia_finder.data_source.scrapers.npm</text>
</g>
<!-- olivia_finder.data_source.scrapers.pypi -->
<g id="node12" class="node">
<title>olivia_finder.data_source.scrapers.pypi</title>
<polygon fill="aquamarine" stroke="aquamarine" points="2706.5,-36 2413.5,-36 2413.5,0 2706.5,0 2706.5,-36"/>
<text text-anchor="middle" x="2560" y="-14.3" font-family="Times,serif" font-size="14.00">olivia_finder.data_source.scrapers.pypi</text>
</g>
<!-- olivia_finder.data_source.scrapers.r -->
<g id="node13" class="node">
<title>olivia_finder.data_source.scrapers.r</title>
<polygon fill="aquamarine" stroke="aquamarine" points="2993.5,-36 2724.5,-36 2724.5,0 2993.5,0 2993.5,-36"/>
<text text-anchor="middle" x="2859" y="-14.3" font-family="Times,serif" font-size="14.00">olivia_finder.data_source.scrapers.r</text>
</g>
<!-- olivia_finder.myrequests -->
<g id="node14" class="node">
<title>olivia_finder.myrequests</title>
<polygon fill="burlywood" stroke="burlywood" points="3202.5,-36 3011.5,-36 3011.5,0 3202.5,0 3202.5,-36"/>
<text text-anchor="middle" x="3107" y="-14.3" font-family="Times,serif" font-size="14.00">olivia_finder.myrequests</text>
</g>
<!-- olivia_finder.myrequests.proxy_builder -->
<g id="node15" class="node">
<title>olivia_finder.myrequests.proxy_builder</title>
<polygon fill="burlywood" stroke="burlywood" points="3356.5,-180 3063.5,-180 3063.5,-144 3356.5,-144 3356.5,-180"/>
<text text-anchor="middle" x="3210" y="-158.3" font-family="Times,serif" font-size="14.00">olivia_finder.myrequests.proxy_builder</text>
</g>
<!-- olivia_finder.myrequests.proxy_handler -->
<g id="node16" class="node">
<title>olivia_finder.myrequests.proxy_handler</title>
<polygon fill="burlywood" stroke="burlywood" points="3358.5,-108 3061.5,-108 3061.5,-72 3358.5,-72 3358.5,-108"/>
<text text-anchor="middle" x="3210" y="-86.3" font-family="Times,serif" font-size="14.00">olivia_finder.myrequests.proxy_handler</text>
</g>
<!-- olivia_finder.myrequests.proxy_handler&#45;&gt;olivia_finder.myrequests.proxy_builder -->
<g id="edge5" class="edge">
<title>olivia_finder.myrequests.proxy_handler&#45;&gt;olivia_finder.myrequests.proxy_builder</title>
<path fill="none" stroke="black" d="M3210,-108.3C3210,-116.02 3210,-125.29 3210,-133.89"/>
<polygon fill="black" stroke="black" points="3210,-143.9 3205.5,-133.9 3210,-138.9 3210,-133.9 3210,-133.9 3210,-133.9 3210,-138.9 3214.5,-133.9 3210,-143.9 3210,-143.9"/>
</g>
<!-- olivia_finder.myrequests.request_handler -->
<g id="node17" class="node">
<title>olivia_finder.myrequests.request_handler</title>
<polygon fill="burlywood" stroke="burlywood" points="3531.5,-36 3220.5,-36 3220.5,0 3531.5,0 3531.5,-36"/>
<text text-anchor="middle" x="3376" y="-14.3" font-family="Times,serif" font-size="14.00">olivia_finder.myrequests.request_handler</text>
</g>
<!-- olivia_finder.myrequests.request_handler&#45;&gt;olivia_finder.myrequests.proxy_handler -->
<g id="edge6" class="edge">
<title>olivia_finder.myrequests.request_handler&#45;&gt;olivia_finder.myrequests.proxy_handler</title>
<path fill="none" stroke="black" d="M3335.39,-36.12C3312.6,-45.74 3283.97,-57.81 3259.83,-67.99"/>
<polygon fill="black" stroke="black" points="3250.48,-71.93 3257.94,-63.9 3255.08,-69.99 3259.69,-68.05 3259.69,-68.05 3259.69,-68.05 3255.08,-69.99 3261.44,-72.19 3250.48,-71.93 3250.48,-71.93"/>
</g>
<!-- olivia_finder.myrequests.useragent_handler -->
<g id="node18" class="node">
<title>olivia_finder.myrequests.useragent_handler</title>
<polygon fill="burlywood" stroke="burlywood" points="3705.5,-108 3376.5,-108 3376.5,-72 3705.5,-72 3705.5,-108"/>
<text text-anchor="middle" x="3541" y="-86.3" font-family="Times,serif" font-size="14.00">olivia_finder.myrequests.useragent_handler</text>
</g>
<!-- olivia_finder.myrequests.request_handler&#45;&gt;olivia_finder.myrequests.useragent_handler -->
<g id="edge7" class="edge">
<title>olivia_finder.myrequests.request_handler&#45;&gt;olivia_finder.myrequests.useragent_handler</title>
<path fill="none" stroke="black" d="M3416.36,-36.12C3439.02,-45.74 3467.47,-57.81 3491.47,-67.99"/>
<polygon fill="black" stroke="black" points="3500.77,-71.93 3489.8,-72.17 3496.16,-69.98 3491.56,-68.03 3491.56,-68.03 3491.56,-68.03 3496.16,-69.98 3493.32,-63.88 3500.77,-71.93 3500.77,-71.93"/>
</g>
<!-- olivia_finder.package -->
<g id="node19" class="node">
<title>olivia_finder.package</title>
<polygon fill="aliceblue" stroke="aliceblue" points="532.5,-108 367.5,-108 367.5,-72 532.5,-72 532.5,-108"/>
<text text-anchor="middle" x="450" y="-86.3" font-family="Times,serif" font-size="14.00">olivia_finder.package</text>
</g>
<!-- olivia_finder.package_manager -->
<g id="node20" class="node">
<title>olivia_finder.package_manager</title>
<polygon fill="aliceblue" stroke="aliceblue" points="567.5,-36 332.5,-36 332.5,0 567.5,0 567.5,-36"/>
<text text-anchor="middle" x="450" y="-14.3" font-family="Times,serif" font-size="14.00">olivia_finder.package_manager</text>
</g>
<!-- olivia_finder.package_manager&#45;&gt;olivia_finder.data_source.csv_network -->
<g id="edge8" class="edge">
<title>olivia_finder.package_manager&#45;&gt;olivia_finder.data_source.csv_network</title>
<path fill="none" stroke="black" d="M509.13,-36.03C543.68,-45.99 587.45,-58.59 623.62,-69.01"/>
<polygon fill="black" stroke="black" points="633.6,-71.89 622.75,-73.45 628.8,-70.51 623.99,-69.12 623.99,-69.12 623.99,-69.12 628.8,-70.51 625.24,-64.8 633.6,-71.89 633.6,-71.89"/>
</g>
<!-- olivia_finder.package_manager&#45;&gt;olivia_finder.data_source.data_source_abc -->
<g id="edge9" class="edge">
<title>olivia_finder.package_manager&#45;&gt;olivia_finder.data_source.data_source_abc</title>
<path fill="none" stroke="black" d="M399.91,-36.03C383.6,-44.23 367.32,-55.88 358,-72 349.99,-85.85 351.03,-93.6 358,-108 380.97,-155.45 431.66,-190.36 469.47,-211.04"/>
<polygon fill="black" stroke="black" points="478.78,-216 467.84,-215.27 474.37,-213.65 469.95,-211.3 469.95,-211.3 469.95,-211.3 474.37,-213.65 472.06,-207.33 478.78,-216 478.78,-216"/>
</g>
<!-- olivia_finder.package_manager&#45;&gt;olivia_finder.package -->
<g id="edge10" class="edge">
<title>olivia_finder.package_manager&#45;&gt;olivia_finder.package</title>
<path fill="none" stroke="black" d="M450,-36.3C450,-44.02 450,-53.29 450,-61.89"/>
<polygon fill="black" stroke="black" points="450,-71.9 445.5,-61.9 450,-66.9 450,-61.9 450,-61.9 450,-61.9 450,-66.9 454.5,-61.9 450,-71.9 450,-71.9"/>
</g>
<!-- olivia_finder.util -->
<g id="node21" class="node">
<title>olivia_finder.util</title>
<polygon fill="cadetblue" stroke="cadetblue" points="3863.5,-36 3732.5,-36 3732.5,0 3863.5,0 3863.5,-36"/>
<text text-anchor="middle" x="3798" y="-14.3" font-family="Times,serif" font-size="14.00">olivia_finder.util</text>
</g>
<!-- olivia_finder.util.config_ini -->
<g id="node22" class="node">
<title>olivia_finder.util.config_ini</title>
<polygon fill="cadetblue" stroke="cadetblue" points="3926.5,-108 3723.5,-108 3723.5,-72 3926.5,-72 3926.5,-108"/>
<text text-anchor="middle" x="3825" y="-86.3" font-family="Times,serif" font-size="14.00">olivia_finder.util.config_ini</text>
</g>
<!-- olivia_finder.util.logger -->
<g id="node23" class="node">
<title>olivia_finder.util.logger</title>
<polygon fill="cadetblue" stroke="cadetblue" points="4097.5,-36 3916.5,-36 3916.5,0 4097.5,0 4097.5,-36"/>
<text text-anchor="middle" x="4007" y="-14.3" font-family="Times,serif" font-size="14.00">olivia_finder.util.logger</text>
</g>
<!-- olivia_finder.util.logger&#45;&gt;olivia_finder.util.config_ini -->
<g id="edge11" class="edge">
<title>olivia_finder.util.logger&#45;&gt;olivia_finder.util.config_ini</title>
<path fill="none" stroke="black" d="M3962.48,-36.12C3937.27,-45.82 3905.55,-58.02 3878.93,-68.26"/>
<polygon fill="black" stroke="black" points="3869.38,-71.93 3877.1,-64.14 3874.04,-70.14 3878.71,-68.34 3878.71,-68.34 3878.71,-68.34 3874.04,-70.14 3880.33,-72.54 3869.38,-71.93 3869.38,-71.93"/>
</g>
<!-- olivia_finder.util.util -->
<g id="node24" class="node">
<title>olivia_finder.util.util</title>
<polygon fill="cadetblue" stroke="cadetblue" points="4103.5,-108 3944.5,-108 3944.5,-72 4103.5,-72 4103.5,-108"/>
<text text-anchor="middle" x="4024" y="-86.3" font-family="Times,serif" font-size="14.00">olivia_finder.util.util</text>
</g>
<!-- olivia_finder.util.logger&#45;&gt;olivia_finder.util.util -->
<g id="edge12" class="edge">
<title>olivia_finder.util.logger&#45;&gt;olivia_finder.util.util</title>
<path fill="none" stroke="black" d="M4011.2,-36.3C4013.1,-44.1 4015.38,-53.49 4017.48,-62.17"/>
<polygon fill="black" stroke="black" points="4019.85,-71.9 4013.11,-63.24 4018.67,-67.04 4017.49,-62.18 4017.49,-62.18 4017.49,-62.18 4018.67,-67.04 4021.86,-61.12 4019.85,-71.9 4019.85,-71.9"/>
</g>
</g>
</svg>
