<?xml version="1.0" encoding="UTF-8" standalone="no"?>
<!DOCTYPE svg PUBLIC "-//W3C//DTD SVG 1.1//EN"
 "http://www.w3.org/Graphics/SVG/1.1/DTD/svg11.dtd">
<!-- Generated by graphviz version 2.43.0 (0)
 -->
<!-- Title: packages_olivia_finder Pages: 1 -->
<svg width="3347pt" height="404pt"
 viewBox="0.00 0.00 3346.50 404.00" xmlns="http://www.w3.org/2000/svg" xmlns:xlink="http://www.w3.org/1999/xlink">
<g id="graph0" class="graph" transform="scale(1 1) rotate(0) translate(4 400)">
<title>packages_olivia_finder</title>
<polygon fill="white" stroke="transparent" points="-4,4 -4,-400 3342.5,-400 3342.5,4 -4,4"/>
<!-- olivia_finder -->
<g id="node1" class="node">
<title>olivia_finder</title>
<polygon fill="none" stroke="black" points="104,-36 0,-36 0,0 104,0 104,-36"/>
<text text-anchor="middle" x="52" y="-14.3" font-family="Times,serif" font-size="14.00">olivia_finder</text>
</g>
<!-- olivia_finder.data_source -->
<g id="node2" class="node">
<title>olivia_finder.data_source</title>
<polygon fill="none" stroke="black" points="314,-36 122,-36 122,0 314,0 314,-36"/>
<text text-anchor="middle" x="218" y="-14.3" font-family="Times,serif" font-size="14.00">olivia_finder.data_source</text>
</g>
<!-- olivia_finder.data_source.csv_network -->
<g id="node3" class="node">
<title>olivia_finder.data_source.csv_network</title>
<polygon fill="none" stroke="black" points="902.5,-108 617.5,-108 617.5,-72 902.5,-72 902.5,-108"/>
<text text-anchor="middle" x="760" y="-86.3" font-family="Times,serif" font-size="14.00">olivia_finder.data_source.csv_network</text>
</g>
<!-- olivia_finder.data_source.data_source_abc -->
<g id="node4" class="node">
<title>olivia_finder.data_source.data_source_abc</title>
<polygon fill="none" stroke="black" points="917,-180 603,-180 603,-144 917,-144 917,-180"/>
<text text-anchor="middle" x="760" y="-158.3" font-family="Times,serif" font-size="14.00">olivia_finder.data_source.data_source_abc</text>
</g>
<!-- olivia_finder.data_source.csv_network&#45;&gt;olivia_finder.data_source.data_source_abc -->
<g id="edge1" class="edge">
<title>olivia_finder.data_source.csv_network&#45;&gt;olivia_finder.data_source.data_source_abc</title>
<path fill="none" stroke="black" d="M760,-108.3C760,-116.02 760,-125.29 760,-133.89"/>
<polygon fill="black" stroke="black" points="760,-143.9 755.5,-133.9 760,-138.9 760,-133.9 760,-133.9 760,-133.9 760,-138.9 764.5,-133.9 760,-143.9 760,-143.9"/>
</g>
<!-- olivia_finder.data_source.scraper -->
<g id="node5" class="node">
<title>olivia_finder.data_source.scraper</title>
<polygon fill="none" stroke="black" points="583.5,-36 332.5,-36 332.5,0 583.5,0 583.5,-36"/>
<text text-anchor="middle" x="458" y="-14.3" font-family="Times,serif" font-size="14.00">olivia_finder.data_source.scraper</text>
</g>
<!-- olivia_finder.data_source.scraper_abc -->
<g id="node6" class="node">
<title>olivia_finder.data_source.scraper_abc</title>
<polygon fill="none" stroke="black" points="599,-108 317,-108 317,-72 599,-72 599,-108"/>
<text text-anchor="middle" x="458" y="-86.3" font-family="Times,serif" font-size="14.00">olivia_finder.data_source.scraper_abc</text>
</g>
<!-- olivia_finder.data_source.scraper&#45;&gt;olivia_finder.data_source.scraper_abc -->
<g id="edge2" class="edge">
<title>olivia_finder.data_source.scraper&#45;&gt;olivia_finder.data_source.scraper_abc</title>
<path fill="none" stroke="black" d="M458,-36.3C458,-44.02 458,-53.29 458,-61.89"/>
<polygon fill="black" stroke="black" points="458,-71.9 453.5,-61.9 458,-66.9 458,-61.9 458,-61.9 458,-61.9 458,-66.9 462.5,-61.9 458,-71.9 458,-71.9"/>
</g>
<!-- olivia_finder.data_source.scraper_abc&#45;&gt;olivia_finder.data_source.data_source_abc -->
<g id="edge3" class="edge">
<title>olivia_finder.data_source.scraper_abc&#45;&gt;olivia_finder.data_source.data_source_abc</title>
<path fill="none" stroke="black" d="M531.49,-108.03C575.33,-118.2 631.12,-131.13 676.6,-141.67"/>
<polygon fill="black" stroke="black" points="686.44,-143.95 675.68,-146.08 681.57,-142.82 676.7,-141.69 676.7,-141.69 676.7,-141.69 681.57,-142.82 677.72,-137.31 686.44,-143.95 686.44,-143.95"/>
</g>
<!-- olivia_finder.data_source.scrapers -->
<g id="node7" class="node">
<title>olivia_finder.data_source.scrapers</title>
<polygon fill="none" stroke="black" points="1325,-36 1067,-36 1067,0 1325,0 1325,-36"/>
<text text-anchor="middle" x="1196" y="-14.3" font-family="Times,serif" font-size="14.00">olivia_finder.data_source.scrapers</text>
</g>
<!-- olivia_finder.data_source.scrapers.bioconductor -->
<g id="node8" class="node">
<title>olivia_finder.data_source.scrapers.bioconductor</title>
<polygon fill="none" stroke="black" points="1699,-36 1343,-36 1343,0 1699,0 1699,-36"/>
<text text-anchor="middle" x="1521" y="-14.3" font-family="Times,serif" font-size="14.00">olivia_finder.data_source.scrapers.bioconductor</text>
</g>
<!-- olivia_finder.myrequests.request_handler -->
<g id="node16" class="node">
<title>olivia_finder.myrequests.request_handler</title>
<polygon fill="none" stroke="black" points="2272.5,-108 1961.5,-108 1961.5,-72 2272.5,-72 2272.5,-108"/>
<text text-anchor="middle" x="2117" y="-86.3" font-family="Times,serif" font-size="14.00">olivia_finder.myrequests.request_handler</text>
</g>
<!-- olivia_finder.data_source.scrapers.bioconductor&#45;&gt;olivia_finder.myrequests.request_handler -->
<g id="edge4" class="edge">
<title>olivia_finder.data_source.scrapers.bioconductor&#45;&gt;olivia_finder.myrequests.request_handler</title>
<path fill="none" stroke="black" d="M1666.04,-36.03C1755.62,-46.56 1870.52,-60.05 1961.91,-70.79"/>
<polygon fill="black" stroke="black" points="1972.09,-71.98 1961.63,-75.28 1967.12,-71.4 1962.16,-70.81 1962.16,-70.81 1962.16,-70.81 1967.12,-71.4 1962.68,-66.34 1972.09,-71.98 1972.09,-71.98"/>
</g>
<!-- olivia_finder.util.util -->
<g id="node23" class="node">
<title>olivia_finder.util.util</title>
<polygon fill="none" stroke="black" points="1849.5,-396 1690.5,-396 1690.5,-360 1849.5,-360 1849.5,-396"/>
<text text-anchor="middle" x="1770" y="-374.3" font-family="Times,serif" font-size="14.00">olivia_finder.util.util</text>
</g>
<!-- olivia_finder.data_source.scrapers.bioconductor&#45;&gt;olivia_finder.util.util -->
<g id="edge5" class="edge">
<title>olivia_finder.data_source.scrapers.bioconductor&#45;&gt;olivia_finder.util.util</title>
<path fill="none" stroke="black" d="M1540.09,-36.23C1565.42,-61.09 1607,-109.7 1607,-161 1607,-161 1607,-161 1607,-235 1607,-293.58 1667.6,-333.52 1714.9,-355.77"/>
<polygon fill="black" stroke="black" points="1724.16,-359.98 1713.2,-359.93 1719.61,-357.91 1715.06,-355.84 1715.06,-355.84 1715.06,-355.84 1719.61,-357.91 1716.92,-351.74 1724.16,-359.98 1724.16,-359.98"/>
</g>
<!-- olivia_finder.data_source.scrapers.cran -->
<g id="node9" class="node">
<title>olivia_finder.data_source.scrapers.cran</title>
<polygon fill="none" stroke="black" points="2011,-36 1717,-36 1717,0 2011,0 2011,-36"/>
<text text-anchor="middle" x="1864" y="-14.3" font-family="Times,serif" font-size="14.00">olivia_finder.data_source.scrapers.cran</text>
</g>
<!-- olivia_finder.data_source.scrapers.cran&#45;&gt;olivia_finder.myrequests.request_handler -->
<g id="edge6" class="edge">
<title>olivia_finder.data_source.scrapers.cran&#45;&gt;olivia_finder.myrequests.request_handler</title>
<path fill="none" stroke="black" d="M1925.57,-36.03C1961.69,-46.03 2007.49,-58.7 2045.24,-69.15"/>
<polygon fill="black" stroke="black" points="2055.16,-71.89 2044.32,-73.56 2050.34,-70.56 2045.52,-69.22 2045.52,-69.22 2045.52,-69.22 2050.34,-70.56 2046.72,-64.89 2055.16,-71.89 2055.16,-71.89"/>
</g>
<!-- olivia_finder.util.logger -->
<g id="node22" class="node">
<title>olivia_finder.util.logger</title>
<polygon fill="none" stroke="black" points="2423.5,-324 2242.5,-324 2242.5,-288 2423.5,-288 2423.5,-324"/>
<text text-anchor="middle" x="2333" y="-302.3" font-family="Times,serif" font-size="14.00">olivia_finder.util.logger</text>
</g>
<!-- olivia_finder.data_source.scrapers.cran&#45;&gt;olivia_finder.util.logger -->
<g id="edge7" class="edge">
<title>olivia_finder.data_source.scrapers.cran&#45;&gt;olivia_finder.util.logger</title>
<path fill="none" stroke="black" d="M1851.85,-36.03C1830.84,-67.76 1793.05,-136.64 1827,-180 1876.34,-243.01 2099.09,-278.63 2232.04,-294.62"/>
<polygon fill="black" stroke="black" points="2242.25,-295.83 2231.78,-299.12 2237.28,-295.24 2232.31,-294.65 2232.31,-294.65 2232.31,-294.65 2237.28,-295.24 2232.84,-290.18 2242.25,-295.83 2242.25,-295.83"/>
</g>
<!-- olivia_finder.data_source.scrapers.cran&#45;&gt;olivia_finder.util.util -->
<g id="edge8" class="edge">
<title>olivia_finder.data_source.scrapers.cran&#45;&gt;olivia_finder.util.util</title>
<path fill="none" stroke="black" d="M1830.69,-36.13C1791.59,-58.91 1732,-103.11 1732,-161 1732,-161 1732,-161 1732,-235 1732,-276.37 1747.23,-322.28 1758.41,-350.39"/>
<polygon fill="black" stroke="black" points="1762.31,-359.91 1754.35,-352.36 1760.41,-355.28 1758.52,-350.65 1758.52,-350.65 1758.52,-350.65 1760.41,-355.28 1762.68,-348.95 1762.31,-359.91 1762.31,-359.91"/>
</g>
<!-- olivia_finder.data_source.scrapers.npm -->
<g id="node10" class="node">
<title>olivia_finder.data_source.scrapers.npm</title>
<polygon fill="none" stroke="black" points="2693,-36 2399,-36 2399,0 2693,0 2693,-36"/>
<text text-anchor="middle" x="2546" y="-14.3" font-family="Times,serif" font-size="14.00">olivia_finder.data_source.scrapers.npm</text>
</g>
<!-- olivia_finder.data_source.scrapers.npm&#45;&gt;olivia_finder.myrequests.request_handler -->
<g id="edge9" class="edge">
<title>olivia_finder.data_source.scrapers.npm&#45;&gt;olivia_finder.myrequests.request_handler</title>
<path fill="none" stroke="black" d="M2441.6,-36.03C2378.03,-46.41 2296.74,-59.67 2231.42,-70.33"/>
<polygon fill="black" stroke="black" points="2221.49,-71.95 2230.64,-65.9 2226.43,-71.14 2231.36,-70.34 2231.36,-70.34 2231.36,-70.34 2226.43,-71.14 2232.09,-74.78 2221.49,-71.95 2221.49,-71.95"/>
</g>
<!-- olivia_finder.util.config_ini -->
<g id="node21" class="node">
<title>olivia_finder.util.config_ini</title>
<polygon fill="none" stroke="black" points="2559.5,-396 2356.5,-396 2356.5,-360 2559.5,-360 2559.5,-396"/>
<text text-anchor="middle" x="2458" y="-374.3" font-family="Times,serif" font-size="14.00">olivia_finder.util.config_ini</text>
</g>
<!-- olivia_finder.data_source.scrapers.npm&#45;&gt;olivia_finder.util.config_ini -->
<g id="edge10" class="edge">
<title>olivia_finder.data_source.scrapers.npm&#45;&gt;olivia_finder.util.config_ini</title>
<path fill="none" stroke="black" d="M2554.3,-36.32C2558.91,-46.51 2564.41,-59.76 2568,-72 2579.33,-110.56 2584,-120.81 2584,-161 2584,-161 2584,-161 2584,-235 2584,-287.79 2534.68,-330.1 2497.76,-354.39"/>
<polygon fill="black" stroke="black" points="2489.15,-359.88 2495.16,-350.71 2493.36,-357.19 2497.58,-354.5 2497.58,-354.5 2497.58,-354.5 2493.36,-357.19 2500,-358.3 2489.15,-359.88 2489.15,-359.88"/>
</g>
<!-- olivia_finder.data_source.scrapers.npm&#45;&gt;olivia_finder.util.logger -->
<g id="edge11" class="edge">
<title>olivia_finder.data_source.scrapers.npm&#45;&gt;olivia_finder.util.logger</title>
<path fill="none" stroke="black" d="M2549.12,-36.13C2555.77,-78.44 2566.61,-188.97 2512,-252 2492.08,-275 2462.69,-288.26 2433.46,-295.82"/>
<polygon fill="black" stroke="black" points="2423.57,-298.18 2432.26,-291.49 2428.43,-297.02 2433.3,-295.86 2433.3,-295.86 2433.3,-295.86 2428.43,-297.02 2434.34,-300.24 2423.57,-298.18 2423.57,-298.18"/>
</g>
<!-- olivia_finder.data_source.scrapers.pypi -->
<g id="node11" class="node">
<title>olivia_finder.data_source.scrapers.pypi</title>
<polygon fill="none" stroke="black" points="2322.5,-36 2029.5,-36 2029.5,0 2322.5,0 2322.5,-36"/>
<text text-anchor="middle" x="2176" y="-14.3" font-family="Times,serif" font-size="14.00">olivia_finder.data_source.scrapers.pypi</text>
</g>
<!-- olivia_finder.data_source.scrapers.pypi&#45;&gt;olivia_finder.myrequests.request_handler -->
<g id="edge12" class="edge">
<title>olivia_finder.data_source.scrapers.pypi&#45;&gt;olivia_finder.myrequests.request_handler</title>
<path fill="none" stroke="black" d="M2161.42,-36.3C2154.34,-44.7 2145.72,-54.93 2137.95,-64.14"/>
<polygon fill="black" stroke="black" points="2131.42,-71.9 2134.42,-61.35 2134.64,-68.07 2137.86,-64.25 2137.86,-64.25 2137.86,-64.25 2134.64,-68.07 2141.3,-67.15 2131.42,-71.9 2131.42,-71.9"/>
</g>
<!-- olivia_finder.data_source.scrapers.r -->
<g id="node12" class="node">
<title>olivia_finder.data_source.scrapers.r</title>
<polygon fill="none" stroke="black" points="2980.5,-36 2711.5,-36 2711.5,0 2980.5,0 2980.5,-36"/>
<text text-anchor="middle" x="2846" y="-14.3" font-family="Times,serif" font-size="14.00">olivia_finder.data_source.scrapers.r</text>
</g>
<!-- olivia_finder.myrequests -->
<g id="node13" class="node">
<title>olivia_finder.myrequests</title>
<polygon fill="none" stroke="black" points="3189.5,-36 2998.5,-36 2998.5,0 3189.5,0 3189.5,-36"/>
<text text-anchor="middle" x="3094" y="-14.3" font-family="Times,serif" font-size="14.00">olivia_finder.myrequests</text>
</g>
<!-- olivia_finder.myrequests.proxy_builder -->
<g id="node14" class="node">
<title>olivia_finder.myrequests.proxy_builder</title>
<polygon fill="none" stroke="black" points="2479.5,-252 2186.5,-252 2186.5,-216 2479.5,-216 2479.5,-252"/>
<text text-anchor="middle" x="2333" y="-230.3" font-family="Times,serif" font-size="14.00">olivia_finder.myrequests.proxy_builder</text>
</g>
<!-- olivia_finder.myrequests.proxy_builder&#45;&gt;olivia_finder.util.logger -->
<g id="edge13" class="edge">
<title>olivia_finder.myrequests.proxy_builder&#45;&gt;olivia_finder.util.logger</title>
<path fill="none" stroke="black" d="M2333,-252.3C2333,-260.02 2333,-269.29 2333,-277.89"/>
<polygon fill="black" stroke="black" points="2333,-287.9 2328.5,-277.9 2333,-282.9 2333,-277.9 2333,-277.9 2333,-277.9 2333,-282.9 2337.5,-277.9 2333,-287.9 2333,-287.9"/>
</g>
<!-- olivia_finder.myrequests.proxy_handler -->
<g id="node15" class="node">
<title>olivia_finder.myrequests.proxy_handler</title>
<polygon fill="none" stroke="black" points="2479.5,-180 2182.5,-180 2182.5,-144 2479.5,-144 2479.5,-180"/>
<text text-anchor="middle" x="2331" y="-158.3" font-family="Times,serif" font-size="14.00">olivia_finder.myrequests.proxy_handler</text>
</g>
<!-- olivia_finder.myrequests.proxy_handler&#45;&gt;olivia_finder.myrequests.proxy_builder -->
<g id="edge14" class="edge">
<title>olivia_finder.myrequests.proxy_handler&#45;&gt;olivia_finder.myrequests.proxy_builder</title>
<path fill="none" stroke="black" d="M2331.49,-180.3C2331.71,-188.02 2331.98,-197.29 2332.23,-205.89"/>
<polygon fill="black" stroke="black" points="2332.51,-215.9 2327.73,-206.03 2332.37,-210.9 2332.23,-205.9 2332.23,-205.9 2332.23,-205.9 2332.37,-210.9 2336.72,-205.77 2332.51,-215.9 2332.51,-215.9"/>
</g>
<!-- olivia_finder.myrequests.proxy_handler&#45;&gt;olivia_finder.util.logger -->
<g id="edge15" class="edge">
<title>olivia_finder.myrequests.proxy_handler&#45;&gt;olivia_finder.util.logger</title>
<path fill="none" stroke="black" d="M2248.77,-180C2200.4,-194 2153.16,-217.25 2178,-252 2191.25,-270.54 2211.4,-282.67 2232.82,-290.58"/>
<polygon fill="black" stroke="black" points="2242.4,-293.82 2231.49,-294.88 2237.67,-292.22 2232.93,-290.61 2232.93,-290.61 2232.93,-290.61 2237.67,-292.22 2234.37,-286.35 2242.4,-293.82 2242.4,-293.82"/>
</g>
<!-- olivia_finder.myrequests.request_handler&#45;&gt;olivia_finder.myrequests.proxy_handler -->
<g id="edge16" class="edge">
<title>olivia_finder.myrequests.request_handler&#45;&gt;olivia_finder.myrequests.proxy_handler</title>
<path fill="none" stroke="black" d="M2169.08,-108.03C2199.24,-117.9 2237.39,-130.38 2269.08,-140.75"/>
<polygon fill="black" stroke="black" points="2278.69,-143.89 2267.79,-145.06 2273.94,-142.33 2269.19,-140.78 2269.19,-140.78 2269.19,-140.78 2273.94,-142.33 2270.58,-136.5 2278.69,-143.89 2278.69,-143.89"/>
</g>
<!-- olivia_finder.myrequests.useragent_handler -->
<g id="node17" class="node">
<title>olivia_finder.myrequests.useragent_handler</title>
<polygon fill="none" stroke="black" points="2164.5,-180 1835.5,-180 1835.5,-144 2164.5,-144 2164.5,-180"/>
<text text-anchor="middle" x="2000" y="-158.3" font-family="Times,serif" font-size="14.00">olivia_finder.myrequests.useragent_handler</text>
</g>
<!-- olivia_finder.myrequests.request_handler&#45;&gt;olivia_finder.myrequests.useragent_handler -->
<g id="edge17" class="edge">
<title>olivia_finder.myrequests.request_handler&#45;&gt;olivia_finder.myrequests.useragent_handler</title>
<path fill="none" stroke="black" d="M2088.38,-108.12C2073.08,-117.28 2054.06,-128.66 2037.58,-138.52"/>
<polygon fill="black" stroke="black" points="2028.73,-143.81 2035,-134.81 2033.02,-141.24 2037.31,-138.68 2037.31,-138.68 2037.31,-138.68 2033.02,-141.24 2039.62,-142.54 2028.73,-143.81 2028.73,-143.81"/>
</g>
<!-- olivia_finder.myrequests.request_handler&#45;&gt;olivia_finder.util.logger -->
<g id="edge18" class="edge">
<title>olivia_finder.myrequests.request_handler&#45;&gt;olivia_finder.util.logger</title>
<path fill="none" stroke="black" d="M2272.67,-93.27C2361.46,-98.23 2460.6,-111.26 2489,-144 2520.46,-180.26 2516.95,-212.98 2489,-252 2475.58,-270.74 2455.15,-282.93 2433.46,-290.84"/>
<polygon fill="black" stroke="black" points="2423.76,-294.08 2431.82,-286.64 2428.5,-292.49 2433.25,-290.91 2433.25,-290.91 2433.25,-290.91 2428.5,-292.49 2434.67,-295.18 2423.76,-294.08 2423.76,-294.08"/>
</g>
<!-- olivia_finder.myrequests.request_handler&#45;&gt;olivia_finder.util.util -->
<g id="edge19" class="edge">
<title>olivia_finder.myrequests.request_handler&#45;&gt;olivia_finder.util.util</title>
<path fill="none" stroke="black" d="M1961.21,-104.27C1903.65,-112.25 1847.44,-124.74 1827,-144 1769.24,-198.44 1765.89,-300.96 1767.95,-349.8"/>
<polygon fill="black" stroke="black" points="1768.49,-359.91 1763.46,-350.17 1768.22,-354.92 1767.96,-349.93 1767.96,-349.93 1767.96,-349.93 1768.22,-354.92 1772.45,-349.69 1768.49,-359.91 1768.49,-359.91"/>
</g>
<!-- olivia_finder.package -->
<g id="node18" class="node">
<title>olivia_finder.package</title>
<polygon fill="none" stroke="black" points="1124.5,-108 959.5,-108 959.5,-72 1124.5,-72 1124.5,-108"/>
<text text-anchor="middle" x="1042" y="-86.3" font-family="Times,serif" font-size="14.00">olivia_finder.package</text>
</g>
<!-- olivia_finder.package_manager -->
<g id="node19" class="node">
<title>olivia_finder.package_manager</title>
<polygon fill="none" stroke="black" points="1048.5,-36 813.5,-36 813.5,0 1048.5,0 1048.5,-36"/>
<text text-anchor="middle" x="931" y="-14.3" font-family="Times,serif" font-size="14.00">olivia_finder.package_manager</text>
</g>
<!-- olivia_finder.package_manager&#45;&gt;olivia_finder.data_source.csv_network -->
<g id="edge20" class="edge">
<title>olivia_finder.package_manager&#45;&gt;olivia_finder.data_source.csv_network</title>
<path fill="none" stroke="black" d="M889.17,-36.12C865.58,-45.78 835.94,-57.91 811,-68.12"/>
<polygon fill="black" stroke="black" points="801.7,-71.93 809.25,-63.98 806.32,-70.04 810.95,-68.14 810.95,-68.14 810.95,-68.14 806.32,-70.04 812.65,-72.31 801.7,-71.93 801.7,-71.93"/>
</g>
<!-- olivia_finder.package_manager&#45;&gt;olivia_finder.data_source.data_source_abc -->
<g id="edge21" class="edge">
<title>olivia_finder.package_manager&#45;&gt;olivia_finder.data_source.data_source_abc</title>
<path fill="none" stroke="black" d="M931.8,-36.27C931.77,-56.01 928.69,-88.12 911,-108 898.34,-122.23 881.63,-132.64 863.95,-140.25"/>
<polygon fill="black" stroke="black" points="854.64,-143.98 862.25,-136.09 859.28,-142.12 863.92,-140.27 863.92,-140.27 863.92,-140.27 859.28,-142.12 865.59,-144.44 854.64,-143.98 854.64,-143.98"/>
</g>
<!-- olivia_finder.package_manager&#45;&gt;olivia_finder.package -->
<g id="edge22" class="edge">
<title>olivia_finder.package_manager&#45;&gt;olivia_finder.package</title>
<path fill="none" stroke="black" d="M958.15,-36.12C972.53,-45.19 990.38,-56.45 1005.91,-66.24"/>
<polygon fill="black" stroke="black" points="1014.74,-71.81 1003.88,-70.28 1010.51,-69.14 1006.28,-66.48 1006.28,-66.48 1006.28,-66.48 1010.51,-69.14 1008.68,-62.67 1014.74,-71.81 1014.74,-71.81"/>
</g>
<!-- olivia_finder.util -->
<g id="node20" class="node">
<title>olivia_finder.util</title>
<polygon fill="none" stroke="black" points="3338.5,-36 3207.5,-36 3207.5,0 3338.5,0 3338.5,-36"/>
<text text-anchor="middle" x="3273" y="-14.3" font-family="Times,serif" font-size="14.00">olivia_finder.util</text>
</g>
<!-- olivia_finder.util.logger&#45;&gt;olivia_finder.util.config_ini -->
<g id="edge23" class="edge">
<title>olivia_finder.util.logger&#45;&gt;olivia_finder.util.config_ini</title>
<path fill="none" stroke="black" d="M2363.58,-324.12C2380.07,-333.36 2400.62,-344.87 2418.34,-354.79"/>
<polygon fill="black" stroke="black" points="2427.3,-359.81 2416.38,-358.85 2422.94,-357.37 2418.58,-354.92 2418.58,-354.92 2418.58,-354.92 2422.94,-357.37 2420.78,-351 2427.3,-359.81 2427.3,-359.81"/>
</g>
<!-- olivia_finder.util.logger&#45;&gt;olivia_finder.util.util -->
<g id="edge24" class="edge">
<title>olivia_finder.util.logger&#45;&gt;olivia_finder.util.util</title>
<path fill="none" stroke="black" d="M2242.23,-318.29C2136.93,-331.38 1964.39,-352.83 1859.59,-365.86"/>
<polygon fill="black" stroke="black" points="1849.66,-367.1 1859.03,-361.4 1854.62,-366.48 1859.59,-365.86 1859.59,-365.86 1859.59,-365.86 1854.62,-366.48 1860.14,-370.33 1849.66,-367.1 1849.66,-367.1"/>
</g>
</g>
</svg>
