<?xml version="1.0" encoding="UTF-8" standalone="no"?>
<!DOCTYPE svg PUBLIC "-//W3C//DTD SVG 1.1//EN"
 "http://www.w3.org/Graphics/SVG/1.1/DTD/svg11.dtd">
<!-- Generated by graphviz version 2.43.0 (0)
 -->
<!-- Title: packages_olivia_finder Pages: 1 -->
<svg width="4528pt" height="188pt"
 viewBox="0.00 0.00 4527.50 188.00" xmlns="http://www.w3.org/2000/svg" xmlns:xlink="http://www.w3.org/1999/xlink">
<g id="graph0" class="graph" transform="scale(1 1) rotate(0) translate(4 184)">
<title>packages_olivia_finder</title>
<polygon fill="white" stroke="transparent" points="-4,4 -4,-184 4523.5,-184 4523.5,4 -4,4"/>
<!-- olivia_finder -->
<g id="node1" class="node">
<title>olivia_finder</title>
<polygon fill="aliceblue" stroke="aliceblue" points="529.5,-36 425.5,-36 425.5,0 529.5,0 529.5,-36"/>
<text text-anchor="middle" x="477.5" y="-14.3" font-family="Times,serif" font-size="14.00">olivia_finder</text>
</g>
<!-- olivia_finder.data_source -->
<g id="node2" class="node">
<title>olivia_finder.data_source</title>
<polygon fill="antiquewhite" stroke="antiquewhite" points="739.5,-36 547.5,-36 547.5,0 739.5,0 739.5,-36"/>
<text text-anchor="middle" x="643.5" y="-14.3" font-family="Times,serif" font-size="14.00">olivia_finder.data_source</text>
</g>
<!-- olivia_finder.data_source.csv_ds -->
<g id="node3" class="node">
<title>olivia_finder.data_source.csv_ds</title>
<polygon fill="antiquewhite" stroke="antiquewhite" points="847,-108 604,-108 604,-72 847,-72 847,-108"/>
<text text-anchor="middle" x="725.5" y="-86.3" font-family="Times,serif" font-size="14.00">olivia_finder.data_source.csv_ds</text>
</g>
<!-- olivia_finder.data_source.data_source -->
<g id="node4" class="node">
<title>olivia_finder.data_source.data_source</title>
<polygon fill="antiquewhite" stroke="antiquewhite" points="728.5,-180 446.5,-180 446.5,-144 728.5,-144 728.5,-180"/>
<text text-anchor="middle" x="587.5" y="-158.3" font-family="Times,serif" font-size="14.00">olivia_finder.data_source.data_source</text>
</g>
<!-- olivia_finder.data_source.csv_ds&#45;&gt;olivia_finder.data_source.data_source -->
<g id="edge1" class="edge">
<title>olivia_finder.data_source.csv_ds&#45;&gt;olivia_finder.data_source.data_source</title>
<path fill="none" stroke="black" d="M691.74,-108.12C673.28,-117.49 650.22,-129.19 630.48,-139.2"/>
<polygon fill="black" stroke="black" points="621.39,-143.81 628.27,-135.27 625.85,-141.55 630.31,-139.29 630.31,-139.29 630.31,-139.29 625.85,-141.55 632.34,-143.3 621.39,-143.81 621.39,-143.81"/>
</g>
<!-- olivia_finder.data_source.librariesio_ds -->
<g id="node5" class="node">
<title>olivia_finder.data_source.librariesio_ds</title>
<polygon fill="antiquewhite" stroke="antiquewhite" points="293,-108 0,-108 0,-72 293,-72 293,-108"/>
<text text-anchor="middle" x="146.5" y="-86.3" font-family="Times,serif" font-size="14.00">olivia_finder.data_source.librariesio_ds</text>
</g>
<!-- olivia_finder.data_source.librariesio_ds&#45;&gt;olivia_finder.data_source.data_source -->
<g id="edge2" class="edge">
<title>olivia_finder.data_source.librariesio_ds&#45;&gt;olivia_finder.data_source.data_source</title>
<path fill="none" stroke="black" d="M253.82,-108.03C319.17,-118.41 402.73,-131.67 469.88,-142.33"/>
<polygon fill="black" stroke="black" points="480.08,-143.95 469.5,-146.83 475.15,-143.17 470.21,-142.38 470.21,-142.38 470.21,-142.38 475.15,-143.17 470.91,-137.94 480.08,-143.95 480.08,-143.95"/>
</g>
<!-- olivia_finder.data_source.repository_scrapers -->
<g id="node6" class="node">
<title>olivia_finder.data_source.repository_scrapers</title>
<polygon fill="aquamarine" stroke="aquamarine" points="1349.5,-36 1011.5,-36 1011.5,0 1349.5,0 1349.5,-36"/>
<text text-anchor="middle" x="1180.5" y="-14.3" font-family="Times,serif" font-size="14.00">olivia_finder.data_source.repository_scrapers</text>
</g>
<!-- olivia_finder.data_source.repository_scrapers.bioconductor -->
<g id="node7" class="node">
<title>olivia_finder.data_source.repository_scrapers.bioconductor</title>
<polygon fill="aquamarine" stroke="aquamarine" points="1803.5,-36 1367.5,-36 1367.5,0 1803.5,0 1803.5,-36"/>
<text text-anchor="middle" x="1585.5" y="-14.3" font-family="Times,serif" font-size="14.00">olivia_finder.data_source.repository_scrapers.bioconductor</text>
</g>
<!-- olivia_finder.data_source.repository_scrapers.cran -->
<g id="node8" class="node">
<title>olivia_finder.data_source.repository_scrapers.cran</title>
<polygon fill="aquamarine" stroke="aquamarine" points="2195.5,-36 1821.5,-36 1821.5,0 2195.5,0 2195.5,-36"/>
<text text-anchor="middle" x="2008.5" y="-14.3" font-family="Times,serif" font-size="14.00">olivia_finder.data_source.repository_scrapers.cran</text>
</g>
<!-- olivia_finder.data_source.repository_scrapers.npm -->
<g id="node9" class="node">
<title>olivia_finder.data_source.repository_scrapers.npm</title>
<polygon fill="aquamarine" stroke="aquamarine" points="2587.5,-36 2213.5,-36 2213.5,0 2587.5,0 2587.5,-36"/>
<text text-anchor="middle" x="2400.5" y="-14.3" font-family="Times,serif" font-size="14.00">olivia_finder.data_source.repository_scrapers.npm</text>
</g>
<!-- olivia_finder.data_source.repository_scrapers.pypi -->
<g id="node10" class="node">
<title>olivia_finder.data_source.repository_scrapers.pypi</title>
<polygon fill="aquamarine" stroke="aquamarine" points="2979.5,-36 2605.5,-36 2605.5,0 2979.5,0 2979.5,-36"/>
<text text-anchor="middle" x="2792.5" y="-14.3" font-family="Times,serif" font-size="14.00">olivia_finder.data_source.repository_scrapers.pypi</text>
</g>
<!-- olivia_finder.data_source.repository_scrapers.r -->
<g id="node11" class="node">
<title>olivia_finder.data_source.repository_scrapers.r</title>
<polygon fill="aquamarine" stroke="aquamarine" points="3347.5,-36 2997.5,-36 2997.5,0 3347.5,0 3347.5,-36"/>
<text text-anchor="middle" x="3172.5" y="-14.3" font-family="Times,serif" font-size="14.00">olivia_finder.data_source.repository_scrapers.r</text>
</g>
<!-- olivia_finder.data_source.scraper_ds -->
<g id="node12" class="node">
<title>olivia_finder.data_source.scraper_ds</title>
<polygon fill="antiquewhite" stroke="antiquewhite" points="585.5,-108 311.5,-108 311.5,-72 585.5,-72 585.5,-108"/>
<text text-anchor="middle" x="448.5" y="-86.3" font-family="Times,serif" font-size="14.00">olivia_finder.data_source.scraper_ds</text>
</g>
<!-- olivia_finder.data_source.scraper_ds&#45;&gt;olivia_finder.data_source.data_source -->
<g id="edge3" class="edge">
<title>olivia_finder.data_source.scraper_ds&#45;&gt;olivia_finder.data_source.data_source</title>
<path fill="none" stroke="black" d="M482.5,-108.12C501.1,-117.49 524.33,-129.19 544.21,-139.2"/>
<polygon fill="black" stroke="black" points="553.37,-143.81 542.41,-143.33 548.9,-141.56 544.43,-139.31 544.43,-139.31 544.43,-139.31 548.9,-141.56 546.46,-135.29 553.37,-143.81 553.37,-143.81"/>
</g>
<!-- olivia_finder.myrequests -->
<g id="node13" class="node">
<title>olivia_finder.myrequests</title>
<polygon fill="burlywood" stroke="burlywood" points="3557,-36 3366,-36 3366,0 3557,0 3557,-36"/>
<text text-anchor="middle" x="3461.5" y="-14.3" font-family="Times,serif" font-size="14.00">olivia_finder.myrequests</text>
</g>
<!-- olivia_finder.myrequests.proxy_builder -->
<g id="node14" class="node">
<title>olivia_finder.myrequests.proxy_builder</title>
<polygon fill="burlywood" stroke="burlywood" points="3711,-180 3418,-180 3418,-144 3711,-144 3711,-180"/>
<text text-anchor="middle" x="3564.5" y="-158.3" font-family="Times,serif" font-size="14.00">olivia_finder.myrequests.proxy_builder</text>
</g>
<!-- olivia_finder.myrequests.proxy_handler -->
<g id="node15" class="node">
<title>olivia_finder.myrequests.proxy_handler</title>
<polygon fill="burlywood" stroke="burlywood" points="3713,-108 3416,-108 3416,-72 3713,-72 3713,-108"/>
<text text-anchor="middle" x="3564.5" y="-86.3" font-family="Times,serif" font-size="14.00">olivia_finder.myrequests.proxy_handler</text>
</g>
<!-- olivia_finder.myrequests.proxy_handler&#45;&gt;olivia_finder.myrequests.proxy_builder -->
<g id="edge4" class="edge">
<title>olivia_finder.myrequests.proxy_handler&#45;&gt;olivia_finder.myrequests.proxy_builder</title>
<path fill="none" stroke="black" d="M3564.5,-108.3C3564.5,-116.02 3564.5,-125.29 3564.5,-133.89"/>
<polygon fill="black" stroke="black" points="3564.5,-143.9 3560,-133.9 3564.5,-138.9 3564.5,-133.9 3564.5,-133.9 3564.5,-133.9 3564.5,-138.9 3569,-133.9 3564.5,-143.9 3564.5,-143.9"/>
</g>
<!-- olivia_finder.myrequests.request_handler -->
<g id="node16" class="node">
<title>olivia_finder.myrequests.request_handler</title>
<polygon fill="burlywood" stroke="burlywood" points="3886,-36 3575,-36 3575,0 3886,0 3886,-36"/>
<text text-anchor="middle" x="3730.5" y="-14.3" font-family="Times,serif" font-size="14.00">olivia_finder.myrequests.request_handler</text>
</g>
<!-- olivia_finder.myrequests.request_handler&#45;&gt;olivia_finder.myrequests.proxy_handler -->
<g id="edge5" class="edge">
<title>olivia_finder.myrequests.request_handler&#45;&gt;olivia_finder.myrequests.proxy_handler</title>
<path fill="none" stroke="black" d="M3689.89,-36.12C3667.1,-45.74 3638.47,-57.81 3614.33,-67.99"/>
<polygon fill="black" stroke="black" points="3604.98,-71.93 3612.44,-63.9 3609.58,-69.99 3614.19,-68.05 3614.19,-68.05 3614.19,-68.05 3609.58,-69.99 3615.94,-72.19 3604.98,-71.93 3604.98,-71.93"/>
</g>
<!-- olivia_finder.myrequests.useragent_handler -->
<g id="node17" class="node">
<title>olivia_finder.myrequests.useragent_handler</title>
<polygon fill="burlywood" stroke="burlywood" points="4060,-108 3731,-108 3731,-72 4060,-72 4060,-108"/>
<text text-anchor="middle" x="3895.5" y="-86.3" font-family="Times,serif" font-size="14.00">olivia_finder.myrequests.useragent_handler</text>
</g>
<!-- olivia_finder.myrequests.request_handler&#45;&gt;olivia_finder.myrequests.useragent_handler -->
<g id="edge6" class="edge">
<title>olivia_finder.myrequests.request_handler&#45;&gt;olivia_finder.myrequests.useragent_handler</title>
<path fill="none" stroke="black" d="M3770.86,-36.12C3793.52,-45.74 3821.97,-57.81 3845.97,-67.99"/>
<polygon fill="black" stroke="black" points="3855.27,-71.93 3844.3,-72.17 3850.66,-69.98 3846.06,-68.03 3846.06,-68.03 3846.06,-68.03 3850.66,-69.98 3847.82,-63.88 3855.27,-71.93 3855.27,-71.93"/>
</g>
<!-- olivia_finder.package -->
<g id="node18" class="node">
<title>olivia_finder.package</title>
<polygon fill="aliceblue" stroke="aliceblue" points="1069,-108 904,-108 904,-72 1069,-72 1069,-108"/>
<text text-anchor="middle" x="986.5" y="-86.3" font-family="Times,serif" font-size="14.00">olivia_finder.package</text>
</g>
<!-- olivia_finder.package_manager -->
<g id="node19" class="node">
<title>olivia_finder.package_manager</title>
<polygon fill="aliceblue" stroke="aliceblue" points="993,-36 758,-36 758,0 993,0 993,-36"/>
<text text-anchor="middle" x="875.5" y="-14.3" font-family="Times,serif" font-size="14.00">olivia_finder.package_manager</text>
</g>
<!-- olivia_finder.package_manager&#45;&gt;olivia_finder.data_source.csv_ds -->
<g id="edge7" class="edge">
<title>olivia_finder.package_manager&#45;&gt;olivia_finder.data_source.csv_ds</title>
<path fill="none" stroke="black" d="M838.81,-36.12C818.48,-45.61 793.03,-57.49 771.4,-67.58"/>
<polygon fill="black" stroke="black" points="762.07,-71.93 769.23,-63.62 766.61,-69.82 771.14,-67.7 771.14,-67.7 771.14,-67.7 766.61,-69.82 773.04,-71.78 762.07,-71.93 762.07,-71.93"/>
</g>
<!-- olivia_finder.package_manager&#45;&gt;olivia_finder.data_source.data_source -->
<g id="edge8" class="edge">
<title>olivia_finder.package_manager&#45;&gt;olivia_finder.data_source.data_source</title>
<path fill="none" stroke="black" d="M876.77,-36.02C877.27,-56.13 874.78,-89.21 855.5,-108 837.71,-125.34 789.59,-137.36 738.96,-145.52"/>
<polygon fill="black" stroke="black" points="728.8,-147.1 737.99,-141.11 733.74,-146.33 738.68,-145.56 738.68,-145.56 738.68,-145.56 733.74,-146.33 739.38,-150.01 728.8,-147.1 728.8,-147.1"/>
</g>
<!-- olivia_finder.package_manager&#45;&gt;olivia_finder.package -->
<g id="edge9" class="edge">
<title>olivia_finder.package_manager&#45;&gt;olivia_finder.package</title>
<path fill="none" stroke="black" d="M902.65,-36.12C917.03,-45.19 934.88,-56.45 950.41,-66.24"/>
<polygon fill="black" stroke="black" points="959.24,-71.81 948.38,-70.28 955.01,-69.14 950.78,-66.48 950.78,-66.48 950.78,-66.48 955.01,-69.14 953.18,-62.67 959.24,-71.81 959.24,-71.81"/>
</g>
<!-- olivia_finder.utilities -->
<g id="node20" class="node">
<title>olivia_finder.utilities</title>
<polygon fill="cadetblue" stroke="cadetblue" points="4248,-36 4087,-36 4087,0 4248,0 4248,-36"/>
<text text-anchor="middle" x="4167.5" y="-14.3" font-family="Times,serif" font-size="14.00">olivia_finder.utilities</text>
</g>
<!-- olivia_finder.utilities.config_ini -->
<g id="node21" class="node">
<title>olivia_finder.utilities.config_ini</title>
<polygon fill="cadetblue" stroke="cadetblue" points="4311,-108 4078,-108 4078,-72 4311,-72 4311,-108"/>
<text text-anchor="middle" x="4194.5" y="-86.3" font-family="Times,serif" font-size="14.00">olivia_finder.utilities.config_ini</text>
</g>
<!-- olivia_finder.utilities.logger -->
<g id="node22" class="node">
<title>olivia_finder.utilities.logger</title>
<polygon fill="cadetblue" stroke="cadetblue" points="4513.5,-36 4301.5,-36 4301.5,0 4513.5,0 4513.5,-36"/>
<text text-anchor="middle" x="4407.5" y="-14.3" font-family="Times,serif" font-size="14.00">olivia_finder.utilities.logger</text>
</g>
<!-- olivia_finder.utilities.logger&#45;&gt;olivia_finder.utilities.config_ini -->
<g id="edge10" class="edge">
<title>olivia_finder.utilities.logger&#45;&gt;olivia_finder.utilities.config_ini</title>
<path fill="none" stroke="black" d="M4355.67,-36.03C4325.65,-45.9 4287.68,-58.38 4256.13,-68.75"/>
<polygon fill="black" stroke="black" points="4246.57,-71.89 4254.66,-64.49 4251.32,-70.33 4256.07,-68.77 4256.07,-68.77 4256.07,-68.77 4251.32,-70.33 4257.47,-73.04 4246.57,-71.89 4246.57,-71.89"/>
</g>
<!-- olivia_finder.utilities.util -->
<g id="node23" class="node">
<title>olivia_finder.utilities.util</title>
<polygon fill="cadetblue" stroke="cadetblue" points="4519.5,-108 4329.5,-108 4329.5,-72 4519.5,-72 4519.5,-108"/>
<text text-anchor="middle" x="4424.5" y="-86.3" font-family="Times,serif" font-size="14.00">olivia_finder.utilities.util</text>
</g>
<!-- olivia_finder.utilities.logger&#45;&gt;olivia_finder.utilities.util -->
<g id="edge11" class="edge">
<title>olivia_finder.utilities.logger&#45;&gt;olivia_finder.utilities.util</title>
<path fill="none" stroke="black" d="M4411.7,-36.3C4413.6,-44.1 4415.88,-53.49 4417.98,-62.17"/>
<polygon fill="black" stroke="black" points="4420.35,-71.9 4413.61,-63.24 4419.17,-67.04 4417.99,-62.18 4417.99,-62.18 4417.99,-62.18 4419.17,-67.04 4422.36,-61.12 4420.35,-71.9 4420.35,-71.9"/>
</g>
</g>
</svg>
